<svg width="51" height="51" viewBox="0 0 51 51" fill="none" xmlns="http://www.w3.org/2000/svg">
<path d="M45.895 0.224609H5.89502C3.1336 0.224609 0.89502 2.46319 0.89502 5.22461V45.2246C0.89502 47.986 3.1336 50.2246 5.89502 50.2246H45.895C48.6565 50.2246 50.895 47.986 50.895 45.2246V5.22461C50.895 2.46319 48.6565 0.224609 45.895 0.224609Z" fill="#CB009B"/>
<path d="M30.0772 18.2545L35.2817 23.4589V18.2545L27.6609 11.0054V38.4218H29.9843V18.2545H30.0772ZM23.014 36.0983H25.988V5.15039L16.6943 14.4441V20.6708L23.2928 14.0723L23.014 36.0983ZM7.12183 45.7638C7.12183 45.7638 25.5233 35.7266 44.8542 45.7638C35.7464 38.4218 19.5754 35.9125 7.12183 45.7638ZM21.3412 19.6485L14.4638 26.5259V40.8381C16.6943 39.9088 19.0177 39.3511 21.3412 38.9794V19.6485ZM31.4713 39.1653C33.4229 39.537 35.2817 40.0017 37.0475 40.7452V27.827L31.4713 22.2508V39.1653Z" fill="white"/>
</svg>
