<svg width="140" height="82" viewBox="0 0 140 82" fill="none" xmlns="http://www.w3.org/2000/svg">
<path d="M90 0H50C47.2386 0 45 2.23858 45 5V45C45 47.7614 47.2386 50 50 50H90C92.7614 50 95 47.7614 95 45V5C95 2.23858 92.7614 0 90 0Z" fill="#CB009B"/>
<path d="M74.1822 18.0299L79.3867 23.2343V18.0299L71.7658 10.7808V38.1972H74.0893V18.0299H74.1822ZM67.119 35.8737H70.093V4.92578L60.7993 14.2195V20.4462L67.3978 13.8477L67.119 35.8737ZM51.2268 45.5392C51.2268 45.5392 69.6283 35.502 88.9592 45.5392C79.8513 38.1972 63.6803 35.6879 51.2268 45.5392ZM65.4461 19.4239L58.5688 26.3012V40.6135C60.7993 39.6841 63.1227 39.1265 65.4461 38.7548V19.4239ZM75.5763 38.9407C77.5279 39.3124 79.3867 39.7771 81.1525 40.5206V27.6024L75.5763 22.0262V38.9407Z" fill="white"/>
<path d="M10.0557 80.7246H0.0185547V61.3008H10.0557V63.4383H2.34197V69.851H9.59104V71.9885H2.34197V78.68H10.0557V80.7246Z" fill="#374246"/>
<path d="M13.0298 76.3572H15.0744C15.0744 77.1007 15.2603 77.7512 15.725 78.3088C16.1896 78.8665 16.7473 79.1453 17.4908 79.1453C18.2343 79.1453 18.7919 78.9594 19.2566 78.5876C19.7212 78.2159 19.9071 77.7512 19.9071 77.0077C19.9071 76.0783 19.3495 75.3349 18.3272 74.7772C17.3049 74.3125 16.3755 73.9408 15.3532 73.4761C14.238 72.8256 13.7733 71.8033 13.7733 70.5021C13.7733 69.3869 14.145 68.4575 14.9815 67.714C15.725 66.9705 16.7473 66.5059 17.8625 66.5059C19.0707 66.5059 20.0001 66.8776 20.6506 67.5282C21.3012 68.2717 21.6729 69.201 21.6729 70.4092H19.5354C19.5354 69.1081 18.9777 68.4575 17.7696 68.4575C17.2119 68.4575 16.7473 68.6434 16.4684 69.0152C16.0967 69.3869 15.9108 69.8516 15.9108 70.3163C15.9108 70.8739 16.0967 71.2456 16.4684 71.5244C16.8402 71.8033 17.5837 72.175 18.606 72.7326C19.6283 73.1973 20.3718 73.662 20.8365 73.9408C21.58 74.4984 21.9517 75.149 22.1376 75.8925C22.1376 76.1713 22.2305 76.4501 22.2305 76.8218C22.2305 78.123 21.7659 79.0523 20.9294 79.8888C20.093 80.6322 18.9777 81.004 17.7696 81.004C16.4685 81.004 15.3532 80.5393 14.6097 79.7029C13.8662 78.8665 13.0298 77.7512 13.0298 76.3572Z" fill="#374246"/>
<path d="M30.0371 68.8285H27.8996V80.7244H25.855V68.8285H23.9033V66.8768H25.855V63.0664H27.8996V66.8768H30.0371V68.8285Z" fill="#374246"/>
<path d="M45.9293 80.724H43.8847V78.6794C42.5836 80.2594 40.9107 81.0029 38.8661 81.0029C36.8215 81.0029 35.1486 80.3523 33.7546 78.9582C32.3605 77.5642 31.71 75.8913 31.71 73.8467C31.71 71.8021 32.3605 70.1293 33.7546 68.7352C35.1486 67.3411 36.8215 66.5977 38.8661 66.5977C41.0036 66.5977 42.6765 67.4341 43.8847 69.107V66.9694H45.9293V80.724ZM38.959 68.5493C37.565 68.5493 36.3568 69.1069 35.4274 70.1293C34.4981 71.1516 33.9404 72.4527 33.9404 73.8467C33.9404 75.2408 34.4051 76.5419 35.4274 77.5642C36.3568 78.5865 37.565 79.1441 39.052 79.1441C40.446 79.1441 41.5613 78.5865 42.5836 77.5642C43.6059 76.5419 44.0706 75.2408 44.0706 73.8467C44.0706 72.4527 43.6059 71.2445 42.6765 70.1293C41.7471 69.014 40.3531 68.5493 38.959 68.5493Z" fill="#374246"/>
<path d="M55.0371 68.8285H52.8996V80.7244H50.855V68.8285H48.9033V66.8768H50.855V63.0664H52.8996V66.8768H55.0371V68.8285Z" fill="#374246"/>
<path d="M70.8365 74.4981H58.8477C58.9406 75.9851 59.4982 77.1003 60.3347 77.9368C61.264 78.6803 62.3793 79.1449 63.8663 79.1449C66.0038 79.1449 67.4908 78.4014 68.3272 76.8215H70.6506C69.0707 79.7026 66.8402 81.1895 63.8663 81.1895C61.7287 81.1895 59.9629 80.539 58.6618 79.1449C57.2677 77.7509 56.6172 76.078 56.6172 73.8475C56.6172 71.8029 57.2677 70.0371 58.6618 68.736C60.0558 67.4349 61.7287 66.6914 63.7733 66.6914C66.0967 66.6914 67.8625 67.4349 69.0707 69.0148C70.2789 70.223 70.8365 72.1747 70.8365 74.4981ZM58.8477 72.6394H68.7919C68.5131 71.1524 67.9555 70.1301 67.212 69.4795C66.3756 68.829 65.2603 68.5501 63.7733 68.5501C62.4722 68.5501 61.4499 68.9219 60.5205 69.6654C59.6841 70.4089 59.1265 71.4312 58.8477 72.6394Z" fill="#374246"/>
<path d="M86.0781 74.9625C86.0781 78.8658 83.7546 80.7246 79.1078 80.7246H74.7397V61.3008H78.6431C82.9182 61.3008 85.0558 63.0666 85.0558 66.5052C85.0558 68.364 84.2193 69.5722 82.6394 70.3157C84.8699 70.9662 86.0781 72.5461 86.0781 74.9625ZM76.9702 63.4383V69.6651H78.829C81.3383 69.6651 82.6394 68.5499 82.6394 66.4123C82.6394 64.3677 81.2453 63.4383 78.5502 63.4383H76.9702ZM76.9702 71.6168V78.68H79.2937C82.2676 78.68 83.7546 77.5647 83.7546 75.2413C83.7546 73.8472 83.3829 72.9179 82.6394 72.3603C81.9888 71.8956 80.9665 71.6168 79.4795 71.6168H76.9702Z" fill="#374246"/>
<path d="M91.933 80.7249H89.8884V60H91.933V80.7249Z" fill="#374246"/>
<path d="M102.528 66.5059C104.479 66.5059 106.245 67.2494 107.639 68.6434C109.033 70.0375 109.777 71.7103 109.777 73.7549C109.777 75.7995 109.126 77.4724 107.732 78.9594C106.338 80.4464 104.665 81.0969 102.621 81.0969C100.669 81.0969 98.9033 80.3534 97.5092 78.9594C96.1152 77.5653 95.4646 75.7995 95.4646 73.8479C95.4646 71.8962 96.1152 70.1304 97.5092 68.7363C98.9033 67.2494 100.576 66.5059 102.528 66.5059ZM107.639 73.8479C107.639 72.3609 107.175 71.0598 106.245 70.0375C105.316 69.0152 104.108 68.5505 102.528 68.5505C101.041 68.5505 99.8326 69.0152 98.9033 70.0375C97.9739 71.0598 97.5092 72.2679 97.5092 73.8479C97.5092 75.3349 97.9739 76.543 98.9033 77.5653C99.8326 78.5876 101.041 79.0523 102.528 79.0523C104.015 79.0523 105.223 78.5876 106.152 77.5653C107.175 76.543 107.639 75.3349 107.639 73.8479Z" fill="#374246"/>
<path d="M126.041 76.1713C125.576 77.6583 124.74 78.8665 123.532 79.7029C122.416 80.5393 121.022 81.004 119.442 81.004C117.398 81.004 115.725 80.2605 114.424 78.8665C113.123 77.4724 112.379 75.7066 112.379 73.7549C112.379 71.7103 113.03 70.0375 114.424 68.6434C115.818 67.2494 117.491 66.5059 119.442 66.5059C121.022 66.5059 122.323 66.8776 123.439 67.714C124.554 68.5505 125.39 69.6657 125.948 71.1527H123.717C122.881 69.3869 121.487 68.4575 119.349 68.4575C117.862 68.4575 116.747 68.9222 115.818 69.9445C114.981 70.9668 114.517 72.175 114.517 73.662C114.517 75.149 114.981 76.3572 115.818 77.3795C116.747 78.4018 117.955 78.9594 119.349 78.9594C120.372 78.9594 121.208 78.6806 122.045 78.2159C122.788 77.6583 123.439 77.0077 123.717 76.0783H126.041V76.1713Z" fill="#374246"/>
<path d="M139.981 80.7249H137.379L131.338 73.4758V80.7249H129.294V60H131.338V73.29L136.822 66.8773H139.331L133.569 73.3829L139.981 80.7249Z" fill="#374246"/>
</svg>
