<svg width="144" height="150" viewBox="0 0 144 150" fill="none" xmlns="http://www.w3.org/2000/svg">
<g clip-path="url(#clip0)">
<path d="M136.081 144.594H115.338L109.527 132.364L104.865 144.594H44.3243L41.0135 132.77L36.2162 144.594H17.7703C17.7703 144.594 25.3378 89.1211 50.0676 89.1211H104.189C128.716 89.1211 136.081 144.594 136.081 144.594Z" fill="url(#paint0_linear)" stroke="#133DC7" stroke-width="1.5" stroke-miterlimit="10" stroke-linejoin="round"/>
<path d="M74.3918 144.594C74.3918 144.594 71.8918 108.243 81.5539 94.459" stroke="#133DC7" stroke-width="1.5" stroke-miterlimit="10" stroke-linejoin="round"/>
<path d="M89.3918 116.824C89.3918 116.824 97.2972 118.784 102.162 116.824L95.8108 109.324L89.3918 116.824Z" fill="url(#paint1_linear)" stroke="#133DC7" stroke-width="1.5" stroke-miterlimit="10" stroke-linejoin="round"/>
<path d="M108.919 57.8378C108.716 57.8378 108.514 57.8378 108.378 57.8378C107.906 47.4999 108.243 40.8108 109.054 35.8783C111.081 23.7162 85.2704 19.6621 76.1488 19.6621C66.4866 19.6621 49.1217 24.9324 47.4326 37.0945C46.6893 42.4324 47.4326 51.2837 47.4326 57.8378C47.2299 57.8378 47.0272 57.8378 46.8245 57.8378C42.9731 57.8378 39.865 61.2837 39.865 65.5405C39.865 69.7972 42.9731 73.2432 46.8245 73.2432C47.1623 73.2432 47.5001 73.1756 47.838 73.1756C51.2839 88.0405 63.4461 98.9864 77.9055 98.9864C92.365 98.9864 104.527 88.0405 107.973 73.1756C108.311 73.2432 108.649 73.2432 108.987 73.2432C112.838 73.2432 115.946 69.7972 115.946 65.5405C115.879 61.2837 112.77 57.8378 108.919 57.8378Z" fill="url(#paint2_linear)" stroke="#133DC7" stroke-width="1.5" stroke-miterlimit="10" stroke-linejoin="round"/>
<path d="M79.0541 77.6356C79.0541 77.6356 79.0541 77.6356 85.2027 76.5545C82.0946 69.2572 75.6082 54.1221 75.6082 54.1221" stroke="#133DC7" stroke-width="1.5" stroke-miterlimit="10" stroke-linejoin="round"/>
<path d="M46.8244 49.2564C44.3244 35.7429 36.3514 7.43212 71.5541 6.4186C75.8109 6.28347 90.6082 4.32401 91.5541 0.472656C93.3109 3.58076 91.2839 6.0132 88.9866 7.97266C93.6487 7.09428 98.1082 4.18887 99.7298 0.472656C101.892 2.16185 100.743 9.39157 95.946 15.0673C104.797 13.3105 106.892 5.74293 107.973 2.76995C120.068 16.6889 110.676 37.8375 108.378 48.3781C102.703 47.5673 105.743 35.8781 96.1487 30.6754C88.1758 26.351 74.5947 35.27 61.3514 26.2159C60.3379 33.3781 52.9731 50.1348 46.8244 49.2564Z" fill="url(#paint3_linear)" stroke="#133DC7" stroke-width="1.5" stroke-miterlimit="10" stroke-linejoin="round"/>
<path d="M74.6621 87.0938C74.6621 87.0938 80.4729 88.5127 84.527 87.0938" stroke="#133DC7" stroke-width="1.5" stroke-miterlimit="10" stroke-linejoin="round"/>
<path d="M72.5 149.46H9.59458C4.59458 149.46 0.540527 145.406 0.540527 140.406V116.893C0.540527 111.893 4.59458 107.839 9.59458 107.839H72.5675C77.5675 107.839 81.6216 111.893 81.6216 116.893V140.406C81.554 145.406 77.5 149.46 72.5 149.46Z" fill="url(#paint4_linear)" stroke="#133DC7" stroke-width="1.5" stroke-miterlimit="10" stroke-linejoin="round"/>
<path d="M29.9325 126.555C29.9325 130.406 26.9595 132.906 22.2973 132.906H19.8649V137.028H14.1892V120.271H22.2973C26.9595 120.203 29.9325 122.703 29.9325 126.555ZM24.2568 126.555C24.2568 125.338 23.5135 124.595 21.9595 124.595H19.9325V128.514H21.9595C23.5135 128.514 24.2568 127.771 24.2568 126.555Z" fill="url(#paint5_linear)" stroke="#133DC7" stroke-width="1.5" stroke-miterlimit="10" stroke-linejoin="round"/>
<path d="M38.9866 132.771H37.4325V136.96H31.7568V120.203H39.8649C44.5271 120.203 47.5001 122.636 47.5001 126.554C47.5001 128.987 46.3514 130.811 44.3244 131.825L47.8379 137.027H41.8244L38.9866 132.771ZM39.4595 124.595H37.4325V128.514H39.4595C41.0136 128.514 41.7568 127.771 41.7568 126.554C41.7568 125.338 41.0136 124.595 39.4595 124.595Z" fill="url(#paint6_linear)" stroke="#133DC7" stroke-width="1.5" stroke-miterlimit="10" stroke-linejoin="round"/>
<path d="M48.9189 128.582C48.9189 123.514 52.9054 119.798 58.3784 119.798C63.8514 119.798 67.8379 123.514 67.8379 128.582C67.8379 133.649 63.8514 137.365 58.3784 137.365C52.9054 137.365 48.9189 133.717 48.9189 128.582ZM62.1622 128.582C62.1622 125.946 60.473 124.392 58.3784 124.392C56.2838 124.392 54.5946 125.946 54.5946 128.582C54.5946 131.217 56.2838 132.771 58.3784 132.771C60.473 132.771 62.1622 131.217 62.1622 128.582Z" fill="url(#paint7_linear)" stroke="#133DC7" stroke-width="1.5" stroke-miterlimit="10" stroke-linejoin="round"/>
<path d="M71.8919 145.811H10.2027C6.89191 145.811 4.18921 143.108 4.18921 139.797V117.432C4.18921 114.122 6.89191 111.419 10.2027 111.419H71.8243C75.1352 111.419 77.8379 114.122 77.8379 117.432V139.865C77.8379 143.176 75.2027 145.811 71.8919 145.811Z" stroke="#133DC7" stroke-width="1.5" stroke-miterlimit="10" stroke-linejoin="round"/>
<path d="M2.16211 71.6898L4.52697 74.0547L8.10806 70.4736" stroke="#133DC7" stroke-width="1.5" stroke-miterlimit="10" stroke-linejoin="round"/>
<path d="M134.73 106.553L137.095 108.918L140.676 105.337" stroke="#133DC7" stroke-width="1.5" stroke-miterlimit="10" stroke-linejoin="round"/>
<path d="M26.9595 56.9594L29.3243 59.3242L32.9054 55.7432" stroke="#133DC7" stroke-width="1.5" stroke-miterlimit="10" stroke-linejoin="round"/>
<path d="M117.432 48.7836L119.797 51.1485L123.378 47.5674" stroke="#133DC7" stroke-width="1.5" stroke-miterlimit="10" stroke-linejoin="round"/>
<path d="M137.703 76.0142L140.067 78.3115L143.649 74.7305" stroke="#133DC7" stroke-width="1.5" stroke-miterlimit="10" stroke-linejoin="round"/>
<path d="M19.8647 28.3785L22.2296 30.6758L25.8107 27.0947" stroke="#133DC7" stroke-width="1.5" stroke-miterlimit="10" stroke-linejoin="round"/>
<path d="M63.7161 69.3253C68.7538 69.3253 72.8377 65.2414 72.8377 60.2037C72.8377 55.1659 68.7538 51.082 63.7161 51.082C58.6784 51.082 54.5945 55.1659 54.5945 60.2037C54.5945 65.2414 58.6784 69.3253 63.7161 69.3253Z" stroke="#133DC7" stroke-width="1.5" stroke-miterlimit="10" stroke-linejoin="round"/>
<path d="M92.0271 69.3253C97.0649 69.3253 101.149 65.2414 101.149 60.2037C101.149 55.1659 97.0649 51.082 92.0271 51.082C86.9894 51.082 82.9055 55.1659 82.9055 60.2037C82.9055 65.2414 86.9894 69.3253 92.0271 69.3253Z" stroke="#133DC7" stroke-width="1.5" stroke-miterlimit="10" stroke-linejoin="round"/>
<path d="M72.7703 60.2022C72.7703 60.2022 76.9595 58.04 82.9054 60.2022" stroke="#133DC7" stroke-width="1.5" stroke-miterlimit="10" stroke-linejoin="round"/>
<path d="M108.581 57.3643L101.081 60.2021" stroke="#133DC7" stroke-width="1.5" stroke-miterlimit="10" stroke-linejoin="round"/>
<path d="M54.5945 60.2021L47.3647 57.3643" stroke="#133DC7" stroke-width="1.5" stroke-miterlimit="10" stroke-linejoin="round"/>
<path d="M64.7298 64.0533C65.7746 64.0533 66.6217 63.2063 66.6217 62.1614C66.6217 61.1166 65.7746 60.2695 64.7298 60.2695C63.6849 60.2695 62.8379 61.1166 62.8379 62.1614C62.8379 63.2063 63.6849 64.0533 64.7298 64.0533Z" fill="#133DC7"/>
<path d="M91.2837 64.0533C92.3286 64.0533 93.1756 63.2063 93.1756 62.1614C93.1756 61.1166 92.3286 60.2695 91.2837 60.2695C90.2389 60.2695 89.3918 61.1166 89.3918 62.1614C89.3918 63.2063 90.2389 64.0533 91.2837 64.0533Z" fill="#133DC7"/>
</g>
<defs>
<linearGradient id="paint0_linear" x1="17.7735" y1="116.841" x2="136.09" y2="116.841" gradientUnits="userSpaceOnUse">
<stop stop-color="#FBAEC8"/>
<stop offset="1" stop-color="#757AFF"/>
</linearGradient>
<linearGradient id="paint1_linear" x1="89.3594" y1="113.532" x2="102.118" y2="113.532" gradientUnits="userSpaceOnUse">
<stop stop-color="white"/>
<stop offset="1" stop-color="#E1E7FE"/>
</linearGradient>
<linearGradient id="paint2_linear" x1="39.8405" y1="59.3025" x2="115.873" y2="59.3025" gradientUnits="userSpaceOnUse">
<stop stop-color="#FEE0E1"/>
<stop offset="1" stop-color="#FCB6B4"/>
</linearGradient>
<linearGradient id="paint3_linear" x1="44.2698" y1="24.8921" x2="114.046" y2="24.8921" gradientUnits="userSpaceOnUse">
<stop stop-color="#FBAEC8"/>
<stop offset="1" stop-color="#757AFF"/>
</linearGradient>
<linearGradient id="paint4_linear" x1="0.506744" y1="128.665" x2="81.5869" y2="128.665" gradientUnits="userSpaceOnUse">
<stop stop-color="#B3B7E8"/>
<stop offset="1" stop-color="#E1E7FE"/>
</linearGradient>
<linearGradient id="paint5_linear" x1="14.2268" y1="128.61" x2="29.936" y2="128.61" gradientUnits="userSpaceOnUse">
<stop stop-color="white"/>
<stop offset="1" stop-color="#E1E7FE"/>
</linearGradient>
<linearGradient id="paint6_linear" x1="31.7797" y1="128.61" x2="47.8479" y2="128.61" gradientUnits="userSpaceOnUse">
<stop stop-color="white"/>
<stop offset="1" stop-color="#E1E7FE"/>
</linearGradient>
<linearGradient id="paint7_linear" x1="48.9487" y1="128.61" x2="67.8668" y2="128.61" gradientUnits="userSpaceOnUse">
<stop stop-color="white"/>
<stop offset="1" stop-color="#E1E7FE"/>
</linearGradient>
<clipPath id="clip0">
<rect width="143.986" height="150" fill="white"/>
</clipPath>
</defs>
</svg>
