<svg width="172" height="150" viewBox="0 0 172 150" fill="none" xmlns="http://www.w3.org/2000/svg">
<g clip-path="url(#clip0)">
<path d="M164.292 32.0801H43.3777V82.8185H164.292V32.0801Z" fill="url(#paint0_linear)" stroke="#133DC7" stroke-width="1.5" stroke-miterlimit="10" stroke-linejoin="round"/>
<path d="M112.768 82.89V32.0801" stroke="#133DC7" stroke-width="1.5" stroke-miterlimit="10" stroke-linejoin="round"/>
<path d="M108.98 82.89V32.0801" stroke="#133DC7" stroke-width="1.5" stroke-miterlimit="10" stroke-linejoin="round"/>
<path d="M104.907 82.89V32.0801" stroke="#133DC7" stroke-width="1.5" stroke-miterlimit="10" stroke-linejoin="round"/>
<path d="M101.048 82.89V32.0801" stroke="#133DC7" stroke-width="1.5" stroke-miterlimit="10" stroke-linejoin="round"/>
<path d="M96.9741 82.89V32.0801" stroke="#133DC7" stroke-width="1.5" stroke-miterlimit="10" stroke-linejoin="round"/>
<path d="M93.187 82.89V32.0801" stroke="#133DC7" stroke-width="1.5" stroke-miterlimit="10" stroke-linejoin="round"/>
<path d="M89.1138 82.89V32.0801" stroke="#133DC7" stroke-width="1.5" stroke-miterlimit="10" stroke-linejoin="round"/>
<path d="M85.2549 82.89V32.0801" stroke="#133DC7" stroke-width="1.5" stroke-miterlimit="10" stroke-linejoin="round"/>
<path d="M81.1816 82.89V32.0801" stroke="#133DC7" stroke-width="1.5" stroke-miterlimit="10" stroke-linejoin="round"/>
<path d="M77.394 82.89V32.0801" stroke="#133DC7" stroke-width="1.5" stroke-miterlimit="10" stroke-linejoin="round"/>
<path d="M73.321 82.89V32.0801" stroke="#133DC7" stroke-width="1.5" stroke-miterlimit="10" stroke-linejoin="round"/>
<path d="M69.2473 82.89V32.0801" stroke="#133DC7" stroke-width="1.5" stroke-miterlimit="10" stroke-linejoin="round"/>
<path d="M160.362 82.89V32.0801" stroke="#133DC7" stroke-width="1.5" stroke-miterlimit="10" stroke-linejoin="round"/>
<path d="M156.575 82.89V32.0801" stroke="#133DC7" stroke-width="1.5" stroke-miterlimit="10" stroke-linejoin="round"/>
<path d="M152.5 82.89V32.0801" stroke="#133DC7" stroke-width="1.5" stroke-miterlimit="10" stroke-linejoin="round"/>
<path d="M148.642 82.89V32.0801" stroke="#133DC7" stroke-width="1.5" stroke-miterlimit="10" stroke-linejoin="round"/>
<path d="M144.569 82.89V32.0801" stroke="#133DC7" stroke-width="1.5" stroke-miterlimit="10" stroke-linejoin="round"/>
<path d="M140.781 82.89V32.0801" stroke="#133DC7" stroke-width="1.5" stroke-miterlimit="10" stroke-linejoin="round"/>
<path d="M136.707 82.89V32.0801" stroke="#133DC7" stroke-width="1.5" stroke-miterlimit="10" stroke-linejoin="round"/>
<path d="M132.848 82.89V32.0801" stroke="#133DC7" stroke-width="1.5" stroke-miterlimit="10" stroke-linejoin="round"/>
<path d="M128.775 82.89V32.0801" stroke="#133DC7" stroke-width="1.5" stroke-miterlimit="10" stroke-linejoin="round"/>
<path d="M124.988 82.89V32.0801" stroke="#133DC7" stroke-width="1.5" stroke-miterlimit="10" stroke-linejoin="round"/>
<path d="M120.915 82.89V32.0801" stroke="#133DC7" stroke-width="1.5" stroke-miterlimit="10" stroke-linejoin="round"/>
<path d="M116.841 82.89V32.0801" stroke="#133DC7" stroke-width="1.5" stroke-miterlimit="10" stroke-linejoin="round"/>
<path d="M125.846 70.402L104.478 52.2505L83.111 70.402H53.3826V123.141H154.645V70.402H125.846Z" fill="url(#paint1_linear)" stroke="#133DC7" stroke-width="1.5" stroke-miterlimit="10" stroke-linejoin="round"/>
<path d="M48.3802 96.1883C74.7841 96.1883 96.1887 74.7837 96.1887 48.3798C96.1887 21.9759 74.7841 0.571289 48.3802 0.571289C21.9764 0.571289 0.571777 21.9759 0.571777 48.3798C0.571777 74.7837 21.9764 96.1883 48.3802 96.1883Z" fill="url(#paint2_linear)" stroke="#133DC7" stroke-width="1.5" stroke-miterlimit="10" stroke-linejoin="round"/>
<path d="M48.3803 90.6905C71.7452 90.6905 90.6862 71.7495 90.6862 48.3845C90.6862 25.0196 71.7452 6.07861 48.3803 6.07861C25.0154 6.07861 6.07446 25.0196 6.07446 48.3845C6.07446 71.7495 25.0154 90.6905 48.3803 90.6905Z" stroke="#133DC7" stroke-width="1.5" stroke-miterlimit="10" stroke-linejoin="round"/>
<path d="M48.7375 79.4743H47.9514C43.9495 79.4743 40.7336 76.2585 40.7336 72.2566V44.6005C40.7336 40.5986 43.9495 37.3828 47.9514 37.3828H48.7375C52.7394 37.3828 55.9553 40.5986 55.9553 44.6005V72.1851C56.0267 76.2585 52.7394 79.4743 48.7375 79.4743Z" fill="url(#paint3_linear)" stroke="#133DC7" stroke-width="1.5" stroke-miterlimit="10" stroke-linejoin="round"/>
<path d="M48.3801 32.9444C52.6032 32.9444 56.0266 29.5209 56.0266 25.2979C56.0266 21.0748 52.6032 17.6514 48.3801 17.6514C44.1571 17.6514 40.7336 21.0748 40.7336 25.2979C40.7336 29.5209 44.1571 32.9444 48.3801 32.9444Z" fill="url(#paint4_linear)" stroke="#133DC7" stroke-width="1.5" stroke-miterlimit="10" stroke-linejoin="round"/>
<path d="M167.079 123.135H40.4475V138.142H167.079V123.135Z" fill="url(#paint5_linear)" stroke="#133DC7" stroke-width="1.5" stroke-miterlimit="10" stroke-linejoin="round"/>
<path d="M83.4686 97.1191H65.2456V115.342H83.4686V97.1191Z" fill="url(#paint6_linear)" stroke="#133DC7" stroke-width="1.5" stroke-miterlimit="10" stroke-linejoin="round"/>
<path d="M112.911 97.1191H94.688V115.342H112.911V97.1191Z" fill="url(#paint7_linear)" stroke="#133DC7" stroke-width="1.5" stroke-miterlimit="10" stroke-linejoin="round"/>
<path d="M142.211 97.1191H123.988V123.06H142.211V97.1191Z" fill="url(#paint8_linear)" stroke="#133DC7" stroke-width="1.5" stroke-miterlimit="10" stroke-linejoin="round"/>
<path d="M142.425 25.0054H130.919V43.3713H142.425V25.0054Z" fill="url(#paint9_linear)" stroke="#133DC7" stroke-width="1.5" stroke-miterlimit="10" stroke-linejoin="round"/>
<path d="M146.069 17.6514H127.346V24.9406H146.069V17.6514Z" fill="url(#paint10_linear)" stroke="#133DC7" stroke-width="1.5" stroke-miterlimit="10" stroke-linejoin="round"/>
<path d="M103.764 84.7453C107.947 84.7453 111.339 81.3538 111.339 77.1702C111.339 72.9867 107.947 69.5952 103.764 69.5952C99.5799 69.5952 96.1885 72.9867 96.1885 77.1702C96.1885 81.3538 99.5799 84.7453 103.764 84.7453Z" fill="url(#paint11_linear)" stroke="#133DC7" stroke-width="1.5" stroke-miterlimit="10" stroke-linejoin="round"/>
<path d="M103.764 97.1191V115.342" stroke="#133DC7" stroke-width="1.5" stroke-miterlimit="10" stroke-linejoin="round"/>
<path d="M74.3926 97.1191V115.342" stroke="#133DC7" stroke-width="1.5" stroke-miterlimit="10" stroke-linejoin="round"/>
<path d="M126.561 112.412H128.776" stroke="#133DC7" stroke-width="1.5" stroke-miterlimit="10" stroke-linejoin="round"/>
<path d="M116.841 123.135V138.07" stroke="#133DC7" stroke-width="1.5" stroke-miterlimit="10" stroke-linejoin="round"/>
<path d="M148.642 123.135V138.07" stroke="#133DC7" stroke-width="1.5" stroke-miterlimit="10" stroke-linejoin="round"/>
<path d="M116.841 125.918H148.642" stroke="#133DC7" stroke-width="1.5" stroke-miterlimit="10" stroke-linejoin="round"/>
<path d="M116.841 129.067H148.642" stroke="#133DC7" stroke-width="1.5" stroke-miterlimit="10" stroke-linejoin="round"/>
<path d="M116.841 132.129H148.642" stroke="#133DC7" stroke-width="1.5" stroke-miterlimit="10" stroke-linejoin="round"/>
<path d="M116.841 135.205H148.642" stroke="#133DC7" stroke-width="1.5" stroke-miterlimit="10" stroke-linejoin="round"/>
<path d="M35.0881 141.855H171.724" stroke="#133DC7" stroke-width="1.5" stroke-miterlimit="10" stroke-linejoin="round"/>
<path d="M20.5815 145.649H157.289" stroke="#133DC7" stroke-width="1.5" stroke-miterlimit="10" stroke-linejoin="round"/>
<path d="M100.905 149.429H166.936" stroke="#133DC7" stroke-width="1.5" stroke-miterlimit="10" stroke-linejoin="round"/>
</g>
<defs>
<linearGradient id="paint0_linear" x1="43.352" y1="57.4984" x2="164.275" y2="57.4984" gradientUnits="userSpaceOnUse">
<stop stop-color="#FBAEC8"/>
<stop offset="1" stop-color="#757AFF"/>
</linearGradient>
<linearGradient id="paint1_linear" x1="53.3556" y1="87.6677" x2="154.669" y2="87.6677" gradientUnits="userSpaceOnUse">
<stop stop-color="#FEE0E1"/>
<stop offset="1" stop-color="#FCB6B4"/>
</linearGradient>
<linearGradient id="paint2_linear" x1="0.536046" y1="48.3543" x2="96.1734" y2="48.3543" gradientUnits="userSpaceOnUse">
<stop stop-color="#B3B7E8"/>
<stop offset="1" stop-color="#E1E7FE"/>
</linearGradient>
<linearGradient id="paint3_linear" x1="40.7148" y1="58.4187" x2="55.9946" y2="58.4187" gradientUnits="userSpaceOnUse">
<stop stop-color="white"/>
<stop offset="1" stop-color="#E1E7FE"/>
</linearGradient>
<linearGradient id="paint4_linear" x1="40.7148" y1="25.289" x2="55.9945" y2="25.289" gradientUnits="userSpaceOnUse">
<stop stop-color="white"/>
<stop offset="1" stop-color="#E1E7FE"/>
</linearGradient>
<linearGradient id="paint5_linear" x1="40.4616" y1="130.595" x2="167.1" y2="130.595" gradientUnits="userSpaceOnUse">
<stop stop-color="#FBAEC8"/>
<stop offset="1" stop-color="#757AFF"/>
</linearGradient>
<linearGradient id="paint6_linear" x1="65.277" y1="106.245" x2="83.4717" y2="106.245" gradientUnits="userSpaceOnUse">
<stop stop-color="white"/>
<stop offset="1" stop-color="#E1E7FE"/>
</linearGradient>
<linearGradient id="paint7_linear" x1="94.6839" y1="106.245" x2="112.879" y2="106.245" gradientUnits="userSpaceOnUse">
<stop stop-color="white"/>
<stop offset="1" stop-color="#E1E7FE"/>
</linearGradient>
<linearGradient id="paint8_linear" x1="123.97" y1="110.125" x2="142.165" y2="110.125" gradientUnits="userSpaceOnUse">
<stop stop-color="white"/>
<stop offset="1" stop-color="#E1E7FE"/>
</linearGradient>
<linearGradient id="paint9_linear" x1="130.942" y1="34.1624" x2="142.422" y2="34.1624" gradientUnits="userSpaceOnUse">
<stop stop-color="#FBAEC8"/>
<stop offset="1" stop-color="#757AFF"/>
</linearGradient>
<linearGradient id="paint10_linear" x1="127.326" y1="21.3319" x2="146.038" y2="21.3319" gradientUnits="userSpaceOnUse">
<stop stop-color="#FBAEC8"/>
<stop offset="1" stop-color="#757AFF"/>
</linearGradient>
<linearGradient id="paint11_linear" x1="96.1732" y1="77.1797" x2="111.389" y2="77.1797" gradientUnits="userSpaceOnUse">
<stop stop-color="white"/>
<stop offset="1" stop-color="#E1E7FE"/>
</linearGradient>
<clipPath id="clip0">
<rect width="171.725" height="150" fill="white"/>
</clipPath>
</defs>
</svg>
