<svg width="145" height="150" viewBox="0 0 145 150" fill="none" xmlns="http://www.w3.org/2000/svg">
<g clip-path="url(#clip0)">
<path d="M96.1273 13.4683H0.592041V125.728H96.1273V13.4683Z" fill="url(#paint0_linear)" stroke="#133DC7" stroke-width="1.5" stroke-miterlimit="10" stroke-linejoin="round"/>
<path d="M0.592041 32.2646H96.1273" stroke="#133DC7" stroke-width="1.5" stroke-miterlimit="10" stroke-linejoin="round"/>
<path d="M0.592041 51.1348H96.1273" stroke="#133DC7" stroke-width="1.5" stroke-miterlimit="10" stroke-linejoin="round"/>
<path d="M0.592041 69.9312H96.1273" stroke="#133DC7" stroke-width="1.5" stroke-miterlimit="10" stroke-linejoin="round"/>
<path d="M0.592041 88.8013H96.1273" stroke="#133DC7" stroke-width="1.5" stroke-miterlimit="10" stroke-linejoin="round"/>
<path d="M0.592041 107.597H96.1273" stroke="#133DC7" stroke-width="1.5" stroke-miterlimit="10" stroke-linejoin="round"/>
<path d="M12.4322 26.0484C14.0261 26.0484 15.3182 24.7563 15.3182 23.1624C15.3182 21.5685 14.0261 20.2764 12.4322 20.2764C10.8383 20.2764 9.54614 21.5685 9.54614 23.1624C9.54614 24.7563 10.8383 26.0484 12.4322 26.0484Z" fill="url(#paint1_linear)" stroke="#133DC7" stroke-width="1.5" stroke-miterlimit="10" stroke-linejoin="round"/>
<path d="M25.5303 26.0484C27.1242 26.0484 28.4164 24.7563 28.4164 23.1624C28.4164 21.5685 27.1242 20.2764 25.5303 20.2764C23.9364 20.2764 22.6443 21.5685 22.6443 23.1624C22.6443 24.7563 23.9364 26.0484 25.5303 26.0484Z" fill="url(#paint2_linear)" stroke="#133DC7" stroke-width="1.5" stroke-miterlimit="10" stroke-linejoin="round"/>
<path d="M38.7024 26.0484C40.2964 26.0484 41.5885 24.7563 41.5885 23.1624C41.5885 21.5685 40.2964 20.2764 38.7024 20.2764C37.1085 20.2764 35.8164 21.5685 35.8164 23.1624C35.8164 24.7563 37.1085 26.0484 38.7024 26.0484Z" fill="url(#paint3_linear)" stroke="#133DC7" stroke-width="1.5" stroke-miterlimit="10" stroke-linejoin="round"/>
<path d="M59.5708 23.1621H66.0829" stroke="#133DC7" stroke-width="1.5" stroke-miterlimit="10" stroke-linejoin="round"/>
<path d="M71.3369 23.1621H88.7271" stroke="#133DC7" stroke-width="1.5" stroke-miterlimit="10" stroke-linejoin="round"/>
<path d="M12.4322 44.6227C14.0261 44.6227 15.3182 43.3305 15.3182 41.7366C15.3182 40.1427 14.0261 38.8506 12.4322 38.8506C10.8383 38.8506 9.54614 40.1427 9.54614 41.7366C9.54614 43.3305 10.8383 44.6227 12.4322 44.6227Z" fill="url(#paint4_linear)" stroke="#133DC7" stroke-width="1.5" stroke-miterlimit="10" stroke-linejoin="round"/>
<path d="M25.5303 44.6227C27.1242 44.6227 28.4164 43.3305 28.4164 41.7366C28.4164 40.1427 27.1242 38.8506 25.5303 38.8506C23.9364 38.8506 22.6443 40.1427 22.6443 41.7366C22.6443 43.3305 23.9364 44.6227 25.5303 44.6227Z" fill="url(#paint5_linear)" stroke="#133DC7" stroke-width="1.5" stroke-miterlimit="10" stroke-linejoin="round"/>
<path d="M38.7024 44.6227C40.2964 44.6227 41.5885 43.3305 41.5885 41.7366C41.5885 40.1427 40.2964 38.8506 38.7024 38.8506C37.1085 38.8506 35.8164 40.1427 35.8164 41.7366C35.8164 43.3305 37.1085 44.6227 38.7024 44.6227Z" fill="url(#paint6_linear)" stroke="#133DC7" stroke-width="1.5" stroke-miterlimit="10" stroke-linejoin="round"/>
<path d="M59.5708 41.7363H66.0829" stroke="#133DC7" stroke-width="1.5" stroke-miterlimit="10" stroke-linejoin="round"/>
<path d="M71.3369 41.7363H88.7271" stroke="#133DC7" stroke-width="1.5" stroke-miterlimit="10" stroke-linejoin="round"/>
<path d="M12.4322 63.4186C14.0261 63.4186 15.3182 62.1264 15.3182 60.5325C15.3182 58.9386 14.0261 57.6465 12.4322 57.6465C10.8383 57.6465 9.54614 58.9386 9.54614 60.5325C9.54614 62.1264 10.8383 63.4186 12.4322 63.4186Z" fill="url(#paint7_linear)" stroke="#133DC7" stroke-width="1.5" stroke-miterlimit="10" stroke-linejoin="round"/>
<path d="M25.5303 63.4186C27.1242 63.4186 28.4164 62.1264 28.4164 60.5325C28.4164 58.9386 27.1242 57.6465 25.5303 57.6465C23.9364 57.6465 22.6443 58.9386 22.6443 60.5325C22.6443 62.1264 23.9364 63.4186 25.5303 63.4186Z" fill="url(#paint8_linear)" stroke="#133DC7" stroke-width="1.5" stroke-miterlimit="10" stroke-linejoin="round"/>
<path d="M38.7024 63.4186C40.2964 63.4186 41.5885 62.1264 41.5885 60.5325C41.5885 58.9386 40.2964 57.6465 38.7024 57.6465C37.1085 57.6465 35.8164 58.9386 35.8164 60.5325C35.8164 62.1264 37.1085 63.4186 38.7024 63.4186Z" fill="url(#paint9_linear)" stroke="#133DC7" stroke-width="1.5" stroke-miterlimit="10" stroke-linejoin="round"/>
<path d="M59.5708 60.5322H66.0829" stroke="#133DC7" stroke-width="1.5" stroke-miterlimit="10" stroke-linejoin="round"/>
<path d="M71.3369 60.5322H88.7271" stroke="#133DC7" stroke-width="1.5" stroke-miterlimit="10" stroke-linejoin="round"/>
<path d="M12.4322 82.2892C14.0261 82.2892 15.3182 80.997 15.3182 79.4031C15.3182 77.8092 14.0261 76.5171 12.4322 76.5171C10.8383 76.5171 9.54614 77.8092 9.54614 79.4031C9.54614 80.997 10.8383 82.2892 12.4322 82.2892Z" fill="url(#paint10_linear)" stroke="#133DC7" stroke-width="1.5" stroke-miterlimit="10" stroke-linejoin="round"/>
<path d="M25.5303 82.2892C27.1242 82.2892 28.4164 80.997 28.4164 79.4031C28.4164 77.8092 27.1242 76.5171 25.5303 76.5171C23.9364 76.5171 22.6443 77.8092 22.6443 79.4031C22.6443 80.997 23.9364 82.2892 25.5303 82.2892Z" fill="url(#paint11_linear)" stroke="#133DC7" stroke-width="1.5" stroke-miterlimit="10" stroke-linejoin="round"/>
<path d="M38.7024 82.2892C40.2964 82.2892 41.5885 80.997 41.5885 79.4031C41.5885 77.8092 40.2964 76.5171 38.7024 76.5171C37.1085 76.5171 35.8164 77.8092 35.8164 79.4031C35.8164 80.997 37.1085 82.2892 38.7024 82.2892Z" fill="url(#paint12_linear)" stroke="#133DC7" stroke-width="1.5" stroke-miterlimit="10" stroke-linejoin="round"/>
<path d="M59.5708 79.4028H66.0829" stroke="#133DC7" stroke-width="1.5" stroke-miterlimit="10" stroke-linejoin="round"/>
<path d="M71.3369 79.4028H88.7271" stroke="#133DC7" stroke-width="1.5" stroke-miterlimit="10" stroke-linejoin="round"/>
<path d="M12.4322 101.086C14.0261 101.086 15.3182 99.7934 15.3182 98.1995C15.3182 96.6056 14.0261 95.3135 12.4322 95.3135C10.8383 95.3135 9.54614 96.6056 9.54614 98.1995C9.54614 99.7934 10.8383 101.086 12.4322 101.086Z" fill="url(#paint13_linear)" stroke="#133DC7" stroke-width="1.5" stroke-miterlimit="10" stroke-linejoin="round"/>
<path d="M25.5303 101.086C27.1242 101.086 28.4164 99.7934 28.4164 98.1995C28.4164 96.6056 27.1242 95.3135 25.5303 95.3135C23.9364 95.3135 22.6443 96.6056 22.6443 98.1995C22.6443 99.7934 23.9364 101.086 25.5303 101.086Z" fill="url(#paint14_linear)" stroke="#133DC7" stroke-width="1.5" stroke-miterlimit="10" stroke-linejoin="round"/>
<path d="M38.7024 101.086C40.2964 101.086 41.5885 99.7934 41.5885 98.1995C41.5885 96.6056 40.2964 95.3135 38.7024 95.3135C37.1085 95.3135 35.8164 96.6056 35.8164 98.1995C35.8164 99.7934 37.1085 101.086 38.7024 101.086Z" fill="url(#paint15_linear)" stroke="#133DC7" stroke-width="1.5" stroke-miterlimit="10" stroke-linejoin="round"/>
<path d="M59.5708 98.1992H66.0829" stroke="#133DC7" stroke-width="1.5" stroke-miterlimit="10" stroke-linejoin="round"/>
<path d="M71.3369 98.1992H88.7271" stroke="#133DC7" stroke-width="1.5" stroke-miterlimit="10" stroke-linejoin="round"/>
<path d="M12.4322 119.881C14.0261 119.881 15.3182 118.589 15.3182 116.995C15.3182 115.402 14.0261 114.109 12.4322 114.109C10.8383 114.109 9.54614 115.402 9.54614 116.995C9.54614 118.589 10.8383 119.881 12.4322 119.881Z" fill="url(#paint16_linear)" stroke="#133DC7" stroke-width="1.5" stroke-miterlimit="10" stroke-linejoin="round"/>
<path d="M25.5303 119.881C27.1242 119.881 28.4164 118.589 28.4164 116.995C28.4164 115.402 27.1242 114.109 25.5303 114.109C23.9364 114.109 22.6443 115.402 22.6443 116.995C22.6443 118.589 23.9364 119.881 25.5303 119.881Z" fill="url(#paint17_linear)" stroke="#133DC7" stroke-width="1.5" stroke-miterlimit="10" stroke-linejoin="round"/>
<path d="M38.7024 119.881C40.2964 119.881 41.5885 118.589 41.5885 116.995C41.5885 115.402 40.2964 114.109 38.7024 114.109C37.1085 114.109 35.8164 115.402 35.8164 116.995C35.8164 118.589 37.1085 119.881 38.7024 119.881Z" fill="url(#paint18_linear)" stroke="#133DC7" stroke-width="1.5" stroke-miterlimit="10" stroke-linejoin="round"/>
<path d="M59.5708 116.995H66.0829" stroke="#133DC7" stroke-width="1.5" stroke-miterlimit="10" stroke-linejoin="round"/>
<path d="M71.3369 116.995H88.7271" stroke="#133DC7" stroke-width="1.5" stroke-miterlimit="10" stroke-linejoin="round"/>
<path d="M79.921 112.703C95.6558 112.703 108.411 99.9478 108.411 84.213C108.411 68.4782 95.6558 55.7227 79.921 55.7227C64.1862 55.7227 51.4307 68.4782 51.4307 84.213C51.4307 99.9478 64.1862 112.703 79.921 112.703Z" fill="url(#paint19_linear)" stroke="#133DC7" stroke-width="1.5" stroke-miterlimit="10" stroke-linejoin="round"/>
<path d="M79.921 46.9907C59.3487 46.9907 42.6985 63.6409 42.6985 84.2132C42.6985 104.785 59.3487 121.436 79.921 121.436C100.493 121.436 117.143 104.785 117.143 84.2132C117.143 63.6409 100.419 46.9907 79.921 46.9907ZM79.921 112.704C64.1588 112.704 51.4306 99.9754 51.4306 84.2132C51.4306 68.451 64.1588 55.7228 79.921 55.7228C95.6832 55.7228 108.411 68.451 108.411 84.2132C108.411 99.9014 95.6092 112.704 79.921 112.704Z" fill="url(#paint20_linear)" stroke="#133DC7" stroke-width="1.5" stroke-miterlimit="10" stroke-linejoin="round"/>
<path d="M104.933 110.706L113.813 119.586" stroke="#133DC7" stroke-width="1.5" stroke-miterlimit="10" stroke-linejoin="round"/>
<path d="M134.386 148.594L111.889 126.098C110.705 124.914 110.705 122.916 111.889 121.658L115.886 117.662C117.07 116.478 119.068 116.478 120.326 117.662L142.822 140.158C144.006 141.342 144.006 143.34 142.822 144.598L138.826 148.594C137.568 149.778 135.57 149.778 134.386 148.594Z" fill="url(#paint21_linear)" stroke="#133DC7" stroke-width="1.5" stroke-miterlimit="10" stroke-linejoin="round"/>
<path d="M79.9209 63.3452C91.3911 63.3452 100.789 72.6693 100.789 84.2135" stroke="#133DC7" stroke-width="1.5" stroke-miterlimit="10" stroke-linejoin="round"/>
<path d="M79.921 105.008C68.4509 105.008 59.0527 95.6838 59.0527 84.1396" stroke="#133DC7" stroke-width="1.5" stroke-miterlimit="10" stroke-linejoin="round"/>
<path d="M102.417 23.1626V0.592285H89.9112V23.1626H82.8071L96.1273 41.2928L109.447 23.1626H102.417Z" fill="url(#paint22_linear)" stroke="#133DC7" stroke-width="1.5" stroke-miterlimit="10" stroke-linejoin="round"/>
<path d="M126.024 18.6485V41.2928H113.517V18.6485H106.413L119.734 0.592285L133.054 18.6485H126.024Z" fill="url(#paint23_linear)" stroke="#133DC7" stroke-width="1.5" stroke-miterlimit="10" stroke-linejoin="round"/>
</g>
<defs>
<linearGradient id="paint0_linear" x1="0.555041" y1="69.5855" x2="96.1181" y2="69.5855" gradientUnits="userSpaceOnUse">
<stop stop-color="#FEE0E1"/>
<stop offset="1" stop-color="#FCB6B4"/>
</linearGradient>
<linearGradient id="paint1_linear" x1="9.53445" y1="23.1726" x2="15.2939" y2="23.1726" gradientUnits="userSpaceOnUse">
<stop stop-color="white"/>
<stop offset="1" stop-color="#E1E7FE"/>
</linearGradient>
<linearGradient id="paint2_linear" x1="22.6851" y1="23.1726" x2="28.4446" y2="23.1726" gradientUnits="userSpaceOnUse">
<stop stop-color="white"/>
<stop offset="1" stop-color="#E1E7FE"/>
</linearGradient>
<linearGradient id="paint3_linear" x1="35.8359" y1="23.1726" x2="41.5953" y2="23.1726" gradientUnits="userSpaceOnUse">
<stop stop-color="white"/>
<stop offset="1" stop-color="#E1E7FE"/>
</linearGradient>
<linearGradient id="paint4_linear" x1="9.53445" y1="41.7032" x2="15.2939" y2="41.7032" gradientUnits="userSpaceOnUse">
<stop stop-color="white"/>
<stop offset="1" stop-color="#E1E7FE"/>
</linearGradient>
<linearGradient id="paint5_linear" x1="22.6851" y1="41.7032" x2="28.4446" y2="41.7032" gradientUnits="userSpaceOnUse">
<stop stop-color="white"/>
<stop offset="1" stop-color="#E1E7FE"/>
</linearGradient>
<linearGradient id="paint6_linear" x1="35.8359" y1="41.7032" x2="41.5953" y2="41.7032" gradientUnits="userSpaceOnUse">
<stop stop-color="white"/>
<stop offset="1" stop-color="#E1E7FE"/>
</linearGradient>
<linearGradient id="paint7_linear" x1="9.53445" y1="60.5328" x2="15.2939" y2="60.5328" gradientUnits="userSpaceOnUse">
<stop stop-color="white"/>
<stop offset="1" stop-color="#E1E7FE"/>
</linearGradient>
<linearGradient id="paint8_linear" x1="22.6851" y1="60.5328" x2="28.4446" y2="60.5328" gradientUnits="userSpaceOnUse">
<stop stop-color="white"/>
<stop offset="1" stop-color="#E1E7FE"/>
</linearGradient>
<linearGradient id="paint9_linear" x1="35.8359" y1="60.5328" x2="41.5953" y2="60.5328" gradientUnits="userSpaceOnUse">
<stop stop-color="white"/>
<stop offset="1" stop-color="#E1E7FE"/>
</linearGradient>
<linearGradient id="paint10_linear" x1="9.53445" y1="79.4361" x2="15.2939" y2="79.4361" gradientUnits="userSpaceOnUse">
<stop stop-color="white"/>
<stop offset="1" stop-color="#E1E7FE"/>
</linearGradient>
<linearGradient id="paint11_linear" x1="22.6851" y1="79.4361" x2="28.4446" y2="79.4361" gradientUnits="userSpaceOnUse">
<stop stop-color="white"/>
<stop offset="1" stop-color="#E1E7FE"/>
</linearGradient>
<linearGradient id="paint12_linear" x1="35.8359" y1="79.4361" x2="41.5953" y2="79.4361" gradientUnits="userSpaceOnUse">
<stop stop-color="white"/>
<stop offset="1" stop-color="#E1E7FE"/>
</linearGradient>
<linearGradient id="paint13_linear" x1="9.53445" y1="98.1934" x2="15.2939" y2="98.1934" gradientUnits="userSpaceOnUse">
<stop stop-color="white"/>
<stop offset="1" stop-color="#E1E7FE"/>
</linearGradient>
<linearGradient id="paint14_linear" x1="22.6851" y1="98.1934" x2="28.4446" y2="98.1934" gradientUnits="userSpaceOnUse">
<stop stop-color="white"/>
<stop offset="1" stop-color="#E1E7FE"/>
</linearGradient>
<linearGradient id="paint15_linear" x1="35.8359" y1="98.1934" x2="41.5953" y2="98.1934" gradientUnits="userSpaceOnUse">
<stop stop-color="white"/>
<stop offset="1" stop-color="#E1E7FE"/>
</linearGradient>
<linearGradient id="paint16_linear" x1="9.53445" y1="117.023" x2="15.2939" y2="117.023" gradientUnits="userSpaceOnUse">
<stop stop-color="white"/>
<stop offset="1" stop-color="#E1E7FE"/>
</linearGradient>
<linearGradient id="paint17_linear" x1="22.6851" y1="117.023" x2="28.4446" y2="117.023" gradientUnits="userSpaceOnUse">
<stop stop-color="white"/>
<stop offset="1" stop-color="#E1E7FE"/>
</linearGradient>
<linearGradient id="paint18_linear" x1="35.8359" y1="117.023" x2="41.5953" y2="117.023" gradientUnits="userSpaceOnUse">
<stop stop-color="white"/>
<stop offset="1" stop-color="#E1E7FE"/>
</linearGradient>
<linearGradient id="paint19_linear" x1="51.3775" y1="84.1894" x2="108.398" y2="84.1894" gradientUnits="userSpaceOnUse">
<stop stop-color="#B3B7E8"/>
<stop offset="1" stop-color="#E1E7FE"/>
</linearGradient>
<linearGradient id="paint20_linear" x1="42.6569" y1="84.1896" x2="117.119" y2="84.1896" gradientUnits="userSpaceOnUse">
<stop stop-color="#FBAEC8"/>
<stop offset="1" stop-color="#757AFF"/>
</linearGradient>
<linearGradient id="paint21_linear" x1="113.845" y1="119.606" x2="140.789" y2="146.55" gradientUnits="userSpaceOnUse">
<stop stop-color="#FBAEC8"/>
<stop offset="1" stop-color="#757AFF"/>
</linearGradient>
<linearGradient id="paint22_linear" x1="82.8438" y1="20.9134" x2="109.483" y2="20.9134" gradientUnits="userSpaceOnUse">
<stop stop-color="#B3B7E8"/>
<stop offset="1" stop-color="#E1E7FE"/>
</linearGradient>
<linearGradient id="paint23_linear" x1="106.45" y1="20.9134" x2="133.089" y2="20.9134" gradientUnits="userSpaceOnUse">
<stop stop-color="#FEE0E1"/>
<stop offset="1" stop-color="#FCB6B4"/>
</linearGradient>
<clipPath id="clip0">
<rect width="144.302" height="150" fill="white"/>
</clipPath>
</defs>
</svg>
