<svg width="84" height="80" viewBox="0 0 84 80" fill="none" xmlns="http://www.w3.org/2000/svg">
<g clip-path="url(#clip0)">
<path d="M36.5949 2.95312C36.3488 2.99415 36.0616 2.99415 35.8154 3.03518L76.3898 43.6095C76.4308 43.3634 76.4308 43.0762 76.4718 42.8301L36.5949 2.95312Z" fill="url(#paint0_linear)"/>
<path d="M39.3847 2.83008C39.0976 2.83008 38.8104 2.83008 38.5232 2.83008L76.554 40.8608C76.554 40.5737 76.554 40.2865 76.554 39.9993L39.3847 2.83008Z" fill="url(#paint1_linear)"/>
<path d="M31.5488 3.73242C31.3026 3.77345 31.0975 3.8555 30.8513 3.89652L75.4872 48.5324C75.5282 48.2863 75.6103 48.0811 75.6513 47.835L31.5488 3.73242Z" fill="url(#paint2_linear)"/>
<path d="M29.2514 4.30762C29.0463 4.38967 28.8001 4.43069 28.595 4.51275L74.8719 50.7897C74.9539 50.5845 74.995 50.3384 75.077 50.1333L29.2514 4.30762Z" fill="url(#paint3_linear)"/>
<path d="M49.3948 4.10163C49.0256 3.97856 48.6153 3.8965 48.2461 3.81445L75.5692 31.1786C75.4871 30.7683 75.364 30.3991 75.282 30.0298L49.3948 4.10163Z" fill="url(#paint4_linear)"/>
<path d="M53.8258 5.61928C53.3335 5.41415 52.8822 5.25005 52.3899 5.04492L74.3386 26.9936C74.1745 26.5013 73.9694 26.05 73.7643 25.5577L53.8258 5.61928Z" fill="url(#paint5_linear)"/>
<path d="M45.6616 3.28129C45.3334 3.24026 44.9642 3.15821 44.636 3.11719L76.2257 34.7069C76.1847 34.3787 76.1437 34.0095 76.0616 33.6813L45.6616 3.28129Z" fill="url(#paint6_linear)"/>
<path d="M42.3796 2.91212C42.0514 2.87109 41.7642 2.87109 41.436 2.87109L76.513 37.948C76.513 37.6198 76.4719 37.3326 76.4719 37.0044L42.3796 2.91212Z" fill="url(#paint7_linear)"/>
<path d="M24.9848 5.86621C24.7796 5.94826 24.5745 6.03031 24.3694 6.15339L73.2309 55.0149C73.313 54.8098 73.395 54.6047 73.5181 54.3995L24.9848 5.86621Z" fill="url(#paint8_linear)"/>
<path d="M19.3231 8.94238C19.159 9.06546 18.9949 9.18854 18.7898 9.31161L70.0719 60.5937C70.1949 60.4296 70.318 60.2655 70.4411 60.0603L19.3231 8.94238Z" fill="url(#paint9_linear)"/>
<path d="M66.1333 65.3937C66.2564 65.2296 66.4205 65.1065 66.5436 64.9424L14.441 12.8398C14.2769 12.9629 14.1538 13.127 13.9897 13.2501L66.1333 65.3937Z" fill="url(#paint10_linear)"/>
<path d="M17.6 10.1328C17.4359 10.2559 17.2718 10.379 17.1077 10.502L68.841 62.2354C68.9641 62.0713 69.0871 61.9072 69.2102 61.7431L17.6 10.1328Z" fill="url(#paint11_linear)"/>
<path d="M16.0001 11.4453C15.836 11.5684 15.6719 11.6915 15.5488 11.8556L67.5693 63.8761C67.6924 63.712 67.8565 63.5479 67.9796 63.4248L16.0001 11.4453Z" fill="url(#paint12_linear)"/>
<path d="M27.036 5.04492C26.8309 5.12697 26.6258 5.20902 26.4207 5.29108L74.0925 52.9629C74.1745 52.7577 74.2566 52.5526 74.3386 52.3475L27.036 5.04492Z" fill="url(#paint13_linear)"/>
<path d="M60.0206 8.94271C59.2821 8.45041 58.5436 7.99912 57.7642 7.58887L71.7949 21.6196C71.3436 20.8402 70.8924 20.1017 70.4411 19.3632L60.0206 8.94271Z" fill="url(#paint14_linear)"/>
<path d="M21.1283 7.83496C20.9642 7.95804 20.7591 8.04009 20.595 8.16317L71.2616 58.8298C71.3847 58.6657 71.4668 58.4606 71.5898 58.2965L21.1283 7.83496Z" fill="url(#paint15_linear)"/>
<path d="M23.0155 6.80957C22.8104 6.89162 22.6463 7.0147 22.4412 7.09675L72.2873 56.9429C72.3694 56.7378 72.4924 56.5737 72.5745 56.3686L23.0155 6.80957Z" fill="url(#paint16_linear)"/>
<path d="M34.0102 3.24023C33.723 3.28126 33.4769 3.32229 33.2307 3.36331L75.9794 46.112C76.0205 45.8659 76.0615 45.6197 76.1025 45.3736L34.0102 3.24023Z" fill="url(#paint17_linear)"/>
<path d="M5.98981 24.6973C5.90776 24.9024 5.8257 25.1075 5.74365 25.3127L54.0719 73.6409C54.277 73.5588 54.4821 73.4767 54.6872 73.3947L5.98981 24.6973Z" fill="url(#paint18_linear)"/>
<path d="M7.95906 20.8818C7.83599 21.0459 7.75394 21.2511 7.63086 21.4152L57.9283 71.7126C58.0924 71.5895 58.2975 71.5075 58.4616 71.3844L7.95906 20.8818Z" fill="url(#paint19_linear)"/>
<path d="M6.93342 22.7275C6.85137 22.9327 6.72829 23.0968 6.64624 23.3019L56.0821 72.7378C56.2873 72.6557 56.4514 72.5327 56.6565 72.4506L6.93342 22.7275Z" fill="url(#paint20_linear)"/>
<path d="M5.12823 26.7891C5.04618 26.9942 4.96413 27.1993 4.88208 27.4455L51.9385 74.5019C52.1436 74.4198 52.3487 74.3378 52.5949 74.2557L5.12823 26.7891Z" fill="url(#paint21_linear)"/>
<path d="M11.6102 15.7939C11.4871 15.958 11.323 16.1222 11.2 16.2863L63.0974 68.1837C63.2615 68.0606 63.4256 67.9375 63.5897 67.7734L11.6102 15.7939Z" fill="url(#paint22_linear)"/>
<path d="M4.3897 28.9629C4.30765 29.168 4.26662 29.4142 4.18457 29.6193L49.723 75.1578C49.9282 75.0757 50.1743 75.0347 50.3794 74.9526L4.3897 28.9629Z" fill="url(#paint23_linear)"/>
<path d="M13.0052 14.2354C12.8822 14.3995 12.718 14.5225 12.595 14.6866L64.6975 66.7892C64.8616 66.6661 64.9847 66.502 65.1488 66.3789L13.0052 14.2354Z" fill="url(#paint24_linear)"/>
<path d="M9.10775 19.0762C8.98467 19.2403 8.86159 19.4454 8.77954 19.6095L59.7744 70.6044C59.9385 70.4813 60.1436 70.3582 60.3077 70.2762L9.10775 19.0762Z" fill="url(#paint25_linear)"/>
<path d="M10.3385 17.3945C10.2154 17.5586 10.0923 17.7227 9.96924 17.8868L61.4974 69.4151C61.6615 69.292 61.8257 69.1689 61.9898 69.0458L10.3385 17.3945Z" fill="url(#paint26_linear)"/>
<path d="M2.87183 41.9688C2.87183 42.297 2.91285 42.5841 2.95388 42.9123L36.4718 76.4303C36.8 76.4713 37.0872 76.4713 37.4154 76.5123L2.87183 41.9688Z" fill="url(#paint27_linear)"/>
<path d="M17.723 69.2916C18.5845 69.948 19.4871 70.5634 20.4307 71.1377L8.28711 58.9941C8.86147 59.9377 9.47685 60.8403 10.1333 61.7018L17.723 69.2916Z" fill="url(#paint28_linear)"/>
<path d="M3.97949 48.8604C4.10257 49.2706 4.18462 49.6809 4.3077 50.0501L29.3333 75.0757C29.7436 75.1988 30.1128 75.3219 30.5231 75.4039L3.97949 48.8604Z" fill="url(#paint29_linear)"/>
<path d="M3.24097 45.21C3.28199 45.5792 3.36404 45.9074 3.40507 46.2356L33.1076 75.9382C33.4358 76.0202 33.8051 76.0612 34.1333 76.1023L3.24097 45.21Z" fill="url(#paint30_linear)"/>
<path d="M5.37451 53.168C5.57964 53.6603 5.78477 54.1936 5.9899 54.6859L24.6976 73.3936C25.1899 73.5987 25.6822 73.8449 26.2155 74.009L5.37451 53.168Z" fill="url(#paint31_linear)"/>
<path d="M3.32303 33.6816C3.282 33.9278 3.24098 34.1739 3.19995 34.4201L44.9641 76.1842C45.2102 76.1432 45.4564 76.1022 45.7025 76.0611L3.32303 33.6816Z" fill="url(#paint32_linear)"/>
<path d="M3.77445 31.2197C3.73343 31.4659 3.65138 31.712 3.61035 31.9172L47.4257 75.7326C47.6719 75.6915 47.918 75.6095 48.1232 75.5685L3.77445 31.2197Z" fill="url(#paint33_linear)"/>
<path d="M2.99489 36.2246C2.95387 36.5118 2.95387 36.7579 2.91284 37.0451L42.3385 76.4708C42.6257 76.4708 42.8718 76.4297 43.159 76.3887L2.99489 36.2246Z" fill="url(#paint34_linear)"/>
<path d="M2.83081 39.0146C2.83081 39.2608 2.83081 39.4659 2.83081 39.7121C2.83081 39.7531 2.83081 39.8352 2.83081 39.8762L39.5488 76.5941C39.5898 76.5941 39.6718 76.5941 39.7129 76.5941C39.959 76.5941 40.1641 76.5941 40.4103 76.5941L2.83081 39.0146Z" fill="url(#paint35_linear)"/>
<path d="M39.7127 79.0974C61.4643 79.0974 79.0974 61.4643 79.0974 39.7127C79.0974 17.9612 61.4643 0.328125 39.7127 0.328125C17.9612 0.328125 0.328125 17.9612 0.328125 39.7127C0.328125 61.4643 17.9612 79.0974 39.7127 79.0974Z" stroke="#F7ADC8" stroke-width="1.5" stroke-miterlimit="10" stroke-linejoin="round"/>
<path d="M44.5538 60.8821V67.4462H36.2256V61.2103C30.3179 60.841 24.6154 59.2821 21.0461 57.0667L25.5179 46.9334C29.4154 49.2308 34.6256 50.7077 39.1385 50.7077C43.0769 50.7077 44.5128 49.8872 44.5128 48.4513C44.5128 43.241 21.6615 47.4667 21.6615 32.041C21.6615 25.3539 26.5026 19.7744 36.1846 18.4205V11.9385H44.5128V18.2564C48.8615 18.6667 53.1282 19.7744 56.4923 21.6616L52.3077 31.7539C48.2461 29.7026 44.3897 28.6769 40.7795 28.6769C36.7179 28.6769 35.4051 29.8667 35.4051 31.2616C35.4051 36.2257 58.2564 32.0821 58.2564 47.3026C58.2974 53.7436 53.7026 59.2821 44.5538 60.8821Z" fill="url(#paint36_linear)" stroke="#133DC7" stroke-width="1.5" stroke-miterlimit="10" stroke-linejoin="round"/>
<path d="M78.8104 79.713H55.3027V62.6053L67.0361 55.1797L78.8104 62.8925V79.713Z" fill="url(#paint37_linear)" stroke="#F7ADC8" stroke-width="1.5" stroke-miterlimit="10" stroke-linejoin="round"/>
<path d="M70.8104 66.9541H63.3027V79.6721H70.8104V66.9541Z" stroke="#F7ADC8" stroke-width="1.5" stroke-miterlimit="10" stroke-linejoin="round"/>
<path d="M83.2411 65.6823L67.036 55.1797L50.5847 65.6823" stroke="#F7ADC8" stroke-width="1.5" stroke-miterlimit="10" stroke-linejoin="round"/>
</g>
<defs>
<linearGradient id="paint0_linear" x1="35.7968" y1="23.2658" x2="76.4398" y2="23.2658" gradientUnits="userSpaceOnUse">
<stop stop-color="#FBAEC8"/>
<stop offset="1" stop-color="#757AFF"/>
</linearGradient>
<linearGradient id="paint1_linear" x1="38.5216" y1="21.8398" x2="76.5668" y2="21.8398" gradientUnits="userSpaceOnUse">
<stop stop-color="#FBAEC8"/>
<stop offset="1" stop-color="#757AFF"/>
</linearGradient>
<linearGradient id="paint2_linear" x1="30.8447" y1="26.1282" x2="75.6661" y2="26.1282" gradientUnits="userSpaceOnUse">
<stop stop-color="#FBAEC8"/>
<stop offset="1" stop-color="#757AFF"/>
</linearGradient>
<linearGradient id="paint3_linear" x1="28.5726" y1="27.5658" x2="75.0651" y2="27.5658" gradientUnits="userSpaceOnUse">
<stop stop-color="#FBAEC8"/>
<stop offset="1" stop-color="#757AFF"/>
</linearGradient>
<linearGradient id="paint4_linear" x1="48.2218" y1="17.484" x2="75.5777" y2="17.484" gradientUnits="userSpaceOnUse">
<stop stop-color="#FBAEC8"/>
<stop offset="1" stop-color="#757AFF"/>
</linearGradient>
<linearGradient id="paint5_linear" x1="52.3766" y1="16.0291" x2="74.332" y2="16.0291" gradientUnits="userSpaceOnUse">
<stop stop-color="#FBAEC8"/>
<stop offset="1" stop-color="#757AFF"/>
</linearGradient>
<linearGradient id="paint6_linear" x1="44.6524" y1="18.9387" x2="76.238" y2="18.9387" gradientUnits="userSpaceOnUse">
<stop stop-color="#FBAEC8"/>
<stop offset="1" stop-color="#757AFF"/>
</linearGradient>
<linearGradient id="paint7_linear" x1="41.453" y1="20.3933" x2="76.5282" y2="20.3933" gradientUnits="userSpaceOnUse">
<stop stop-color="#FBAEC8"/>
<stop offset="1" stop-color="#757AFF"/>
</linearGradient>
<linearGradient id="paint8_linear" x1="24.3717" y1="30.4422" x2="73.5126" y2="30.4422" gradientUnits="userSpaceOnUse">
<stop stop-color="#FBAEC8"/>
<stop offset="1" stop-color="#757AFF"/>
</linearGradient>
<linearGradient id="paint9_linear" x1="18.8044" y1="34.7635" x2="70.4355" y2="34.7635" gradientUnits="userSpaceOnUse">
<stop stop-color="#FBAEC8"/>
<stop offset="1" stop-color="#757AFF"/>
</linearGradient>
<linearGradient id="paint10_linear" x1="14.0096" y1="39.0903" x2="66.5765" y2="39.0903" gradientUnits="userSpaceOnUse">
<stop stop-color="#FBAEC8"/>
<stop offset="1" stop-color="#757AFF"/>
</linearGradient>
<linearGradient id="paint11_linear" x1="17.1233" y1="36.2055" x2="69.2336" y2="36.2055" gradientUnits="userSpaceOnUse">
<stop stop-color="#FBAEC8"/>
<stop offset="1" stop-color="#757AFF"/>
</linearGradient>
<linearGradient id="paint12_linear" x1="15.5247" y1="37.649" x2="67.9452" y2="37.649" gradientUnits="userSpaceOnUse">
<stop stop-color="#FBAEC8"/>
<stop offset="1" stop-color="#757AFF"/>
</linearGradient>
<linearGradient id="paint13_linear" x1="26.4192" y1="29.0012" x2="74.3455" y2="29.0012" gradientUnits="userSpaceOnUse">
<stop stop-color="#FBAEC8"/>
<stop offset="1" stop-color="#757AFF"/>
</linearGradient>
<linearGradient id="paint14_linear" x1="57.7845" y1="14.5748" x2="71.8335" y2="14.5748" gradientUnits="userSpaceOnUse">
<stop stop-color="#FBAEC8"/>
<stop offset="1" stop-color="#757AFF"/>
</linearGradient>
<linearGradient id="paint15_linear" x1="20.5687" y1="33.3231" x2="71.5529" y2="33.3231" gradientUnits="userSpaceOnUse">
<stop stop-color="#FBAEC8"/>
<stop offset="1" stop-color="#757AFF"/>
</linearGradient>
<linearGradient id="paint16_linear" x1="22.4246" y1="31.8811" x2="72.5813" y2="31.8811" gradientUnits="userSpaceOnUse">
<stop stop-color="#FBAEC8"/>
<stop offset="1" stop-color="#757AFF"/>
</linearGradient>
<linearGradient id="paint17_linear" x1="33.2453" y1="24.6954" x2="76.1315" y2="24.6954" gradientUnits="userSpaceOnUse">
<stop stop-color="#FBAEC8"/>
<stop offset="1" stop-color="#757AFF"/>
</linearGradient>
<linearGradient id="paint18_linear" x1="5.72572" y1="49.1836" x2="54.676" y2="49.1836" gradientUnits="userSpaceOnUse">
<stop stop-color="#FBAEC8"/>
<stop offset="1" stop-color="#757AFF"/>
</linearGradient>
<linearGradient id="paint19_linear" x1="7.65392" y1="46.3028" x2="58.5095" y2="46.3028" gradientUnits="userSpaceOnUse">
<stop stop-color="#FBAEC8"/>
<stop offset="1" stop-color="#757AFF"/>
</linearGradient>
<linearGradient id="paint20_linear" x1="6.64333" y1="47.7423" x2="56.6403" y2="47.7423" gradientUnits="userSpaceOnUse">
<stop stop-color="#FBAEC8"/>
<stop offset="1" stop-color="#757AFF"/>
</linearGradient>
<linearGradient id="paint21_linear" x1="4.91441" y1="50.6211" x2="52.6113" y2="50.6211" gradientUnits="userSpaceOnUse">
<stop stop-color="#FBAEC8"/>
<stop offset="1" stop-color="#757AFF"/>
</linearGradient>
<linearGradient id="paint22_linear" x1="11.2174" y1="41.9766" x2="63.597" y2="41.9766" gradientUnits="userSpaceOnUse">
<stop stop-color="#FBAEC8"/>
<stop offset="1" stop-color="#757AFF"/>
</linearGradient>
<linearGradient id="paint23_linear" x1="4.21062" y1="52.059" x2="50.438" y2="52.059" gradientUnits="userSpaceOnUse">
<stop stop-color="#FBAEC8"/>
<stop offset="1" stop-color="#757AFF"/>
</linearGradient>
<linearGradient id="paint24_linear" x1="12.5736" y1="40.533" x2="65.1288" y2="40.533" gradientUnits="userSpaceOnUse">
<stop stop-color="#FBAEC8"/>
<stop offset="1" stop-color="#757AFF"/>
</linearGradient>
<linearGradient id="paint25_linear" x1="8.75702" y1="44.8595" x2="60.2917" y2="44.8595" gradientUnits="userSpaceOnUse">
<stop stop-color="#FBAEC8"/>
<stop offset="1" stop-color="#757AFF"/>
</linearGradient>
<linearGradient id="paint26_linear" x1="9.94622" y1="43.4186" x2="61.9852" y2="43.4186" gradientUnits="userSpaceOnUse">
<stop stop-color="#FBAEC8"/>
<stop offset="1" stop-color="#757AFF"/>
</linearGradient>
<linearGradient id="paint27_linear" x1="2.89037" y1="59.2333" x2="37.4114" y2="59.2333" gradientUnits="userSpaceOnUse">
<stop stop-color="#FBAEC8"/>
<stop offset="1" stop-color="#757AFF"/>
</linearGradient>
<linearGradient id="paint28_linear" x1="8.26377" y1="65.0515" x2="20.4008" y2="65.0515" gradientUnits="userSpaceOnUse">
<stop stop-color="#FBAEC8"/>
<stop offset="1" stop-color="#757AFF"/>
</linearGradient>
<linearGradient id="paint29_linear" x1="3.97047" y1="62.1418" x2="30.5127" y2="62.1418" gradientUnits="userSpaceOnUse">
<stop stop-color="#FBAEC8"/>
<stop offset="1" stop-color="#757AFF"/>
</linearGradient>
<linearGradient id="paint30_linear" x1="3.23116" y1="60.688" x2="34.161" y2="60.688" gradientUnits="userSpaceOnUse">
<stop stop-color="#FBAEC8"/>
<stop offset="1" stop-color="#757AFF"/>
</linearGradient>
<linearGradient id="paint31_linear" x1="5.36032" y1="63.5965" x2="26.2141" y2="63.5965" gradientUnits="userSpaceOnUse">
<stop stop-color="#FBAEC8"/>
<stop offset="1" stop-color="#757AFF"/>
</linearGradient>
<linearGradient id="paint32_linear" x1="3.19445" y1="54.9274" x2="45.7187" y2="54.9274" gradientUnits="userSpaceOnUse">
<stop stop-color="#FBAEC8"/>
<stop offset="1" stop-color="#757AFF"/>
</linearGradient>
<linearGradient id="paint33_linear" x1="3.63423" y1="53.4937" x2="48.1463" y2="53.4937" gradientUnits="userSpaceOnUse">
<stop stop-color="#FBAEC8"/>
<stop offset="1" stop-color="#757AFF"/>
</linearGradient>
<linearGradient id="paint34_linear" x1="2.91309" y1="56.3567" x2="43.1407" y2="56.3567" gradientUnits="userSpaceOnUse">
<stop stop-color="#FBAEC8"/>
<stop offset="1" stop-color="#757AFF"/>
</linearGradient>
<linearGradient id="paint35_linear" x1="2.81797" y1="57.7828" x2="40.3845" y2="57.7828" gradientUnits="userSpaceOnUse">
<stop stop-color="#FBAEC8"/>
<stop offset="1" stop-color="#757AFF"/>
</linearGradient>
<linearGradient id="paint36_linear" x1="21.073" y1="39.6923" x2="58.3116" y2="39.6923" gradientUnits="userSpaceOnUse">
<stop stop-color="#FEE0E1"/>
<stop offset="1" stop-color="#FCB6B4"/>
</linearGradient>
<linearGradient id="paint37_linear" x1="55.3011" y1="67.4297" x2="78.8101" y2="67.4297" gradientUnits="userSpaceOnUse">
<stop stop-color="#FBAEC8"/>
<stop offset="1" stop-color="#757AFF"/>
</linearGradient>
<clipPath id="clip0">
<rect width="83.4051" height="80" fill="white"/>
</clipPath>
</defs>
</svg>
