<svg width="122" height="121" viewBox="0 0 122 121" fill="none" xmlns="http://www.w3.org/2000/svg">
<g clip-path="url(#clip0)">
<path fill-rule="evenodd" clip-rule="evenodd" d="M45.6182 35.5H75.6182C81.141 35.5 85.6182 39.9772 85.6182 45.5V75.5C85.6182 81.0229 81.141 85.5 75.6182 85.5H45.6182C40.0953 85.5 35.6182 81.0229 35.6182 75.5V45.5C35.6182 39.9772 40.0953 35.5 45.6182 35.5ZM70.0048 58.7342L64.8003 53.5297H64.7074V73.697H62.384V46.2807L70.0048 53.5297V58.7342ZM60.7111 71.3736H57.7371L58.0159 49.3476L51.4174 55.9461V49.7193L60.7111 40.4257V71.3736ZM41.8449 81.039C41.8449 81.039 60.2464 71.0019 79.5773 81.039C70.4695 73.697 54.2985 71.1877 41.8449 81.039ZM49.1869 61.8011L56.0643 54.9238V74.2547C53.7408 74.6264 51.4174 75.184 49.1869 76.1134V61.8011ZM71.7706 76.0205C70.0048 75.277 68.146 74.8123 66.1944 74.4405V57.526L71.7706 63.1022V76.0205Z" fill="#CB009B"/>
</g>
<defs>
<clipPath id="clip0">
<rect width="121" height="121" fill="white" transform="translate(0.118164)"/>
</clipPath>
</defs>
</svg>
