<svg width="367" height="260" viewBox="0 0 367 260" fill="none" xmlns="http://www.w3.org/2000/svg">
<g clip-path="url(#clip0)">
<path fill-rule="evenodd" clip-rule="evenodd" d="M143.306 80H223.306C228.829 80 233.306 84.4772 233.306 90V170C233.306 175.523 228.829 180 223.306 180H143.306C137.783 180 133.306 175.523 133.306 170V90C133.306 84.4772 137.783 80 143.306 80ZM202.079 126.468L191.67 116.059H191.484V156.394H186.837V101.561L202.079 116.059V126.468ZM183.491 151.747H177.544L178.101 107.695L164.904 120.892V108.439L183.491 89.8513V151.747ZM145.759 171.078C145.759 171.078 182.562 151.004 221.224 171.078C203.008 156.394 170.666 151.375 145.759 171.078ZM160.443 132.602L174.198 118.848V157.509C169.551 158.253 164.904 159.368 160.443 161.227V132.602ZM205.61 161.041C202.079 159.554 198.361 158.625 194.458 157.881V124.052L205.61 135.204V161.041Z" fill="#CB009B"/>
</g>
<defs>
<clipPath id="clip0">
<rect width="366.612" height="260" fill="white"/>
</clipPath>
</defs>
</svg>
