<svg width="284" height="56" viewBox="0 0 284 56" fill="none" xmlns="http://www.w3.org/2000/svg">
<rect x="221" y="35" width="2" height="2" fill="#374246"/>
<path d="M49 0.660156H5C2.23858 0.660156 0 2.89874 0 5.66016V49.6602C0 52.4216 2.23858 54.6602 5 54.6602H49C51.7614 54.6602 54 52.4216 54 49.6602V5.66016C54 2.89874 51.7614 0.660156 49 0.660156Z" fill="#CB009B"/>
<path d="M31.5184 20.1319L37.1392 25.7528V20.1319L28.9087 12.3029V41.9126H31.418V20.1319H31.5184ZM23.8901 39.4033H27.102V5.97949L17.0648 16.0167V22.7416L24.1912 15.6152L23.8901 39.4033ZM6.72656 49.842C6.72656 49.842 26.6002 39.0018 47.4775 49.842C37.641 41.9126 20.1764 39.2026 6.72656 49.842ZM22.0834 21.6375L14.6559 29.065V44.5223C17.0648 43.5186 19.5741 42.9163 22.0834 42.5148V21.6375ZM33.024 42.7156C35.1318 43.1171 37.1392 43.6189 39.0463 44.4219V30.4702L33.024 24.4479V42.7156Z" fill="white"/>
<path d="M77.9885 36.9943H67.1484V16.0166H77.9885V18.3252H69.6577V25.2508H77.4867V27.5594H69.6577V34.7862H77.9885V36.9943Z" fill="#374246"/>
<path d="M81.1992 32.2771H83.4074C83.4074 33.0801 83.6081 33.7827 84.11 34.3849C84.6118 34.9871 85.214 35.2882 86.017 35.2882C86.82 35.2882 87.4222 35.0875 87.9241 34.686C88.4259 34.2845 88.6267 33.7827 88.6267 32.9797C88.6267 31.976 88.0245 31.173 86.9204 30.5708C85.8163 30.0689 84.8126 29.6674 83.7085 29.1656C82.504 28.463 82.0022 27.3589 82.0022 25.9537C82.0022 24.7492 82.4036 23.7455 83.307 22.9425C84.11 22.1395 85.2141 21.6377 86.4185 21.6377C87.7233 21.6377 88.7271 22.0392 89.4297 22.7418C90.1323 23.5447 90.5338 24.5485 90.5338 25.8533H88.2252C88.2252 24.4481 87.623 23.7455 86.3181 23.7455C85.7159 23.7455 85.2141 23.9462 84.9129 24.3477C84.5114 24.7492 84.3107 25.2511 84.3107 25.7529C84.3107 26.3552 84.5114 26.7566 84.9129 27.0578C85.3144 27.3589 86.1174 27.7604 87.2215 28.3626C88.3256 28.8644 89.1286 29.3663 89.6304 29.6674C90.4334 30.2697 90.8349 30.9723 91.0356 31.7752C91.0356 32.0763 91.136 32.3775 91.136 32.7789C91.136 34.1842 90.6341 35.1879 89.7308 36.0912C88.8274 36.8942 87.623 37.2957 86.3181 37.2957C84.9129 37.2957 83.7085 36.7938 82.9055 35.8905C82.1025 34.9871 81.1992 33.7827 81.1992 32.2771Z" fill="#374246"/>
<path d="M99.5698 24.1469H97.2613V36.9945H95.0531V24.1469H92.9453V22.0391H95.0531V17.9238H97.2613V22.0391H99.5698V24.1469Z" fill="#374246"/>
<path d="M116.732 36.9948H114.524V34.7867C113.119 36.493 111.312 37.2959 109.104 37.2959C106.896 37.2959 105.089 36.5933 103.584 35.0878C102.078 33.5822 101.375 31.7755 101.375 29.5673C101.375 27.3591 102.078 25.5525 103.584 24.0469C105.089 22.5413 106.896 21.7383 109.104 21.7383C111.413 21.7383 113.219 22.6417 114.524 24.4484V22.1398H116.732V36.9948ZM109.204 23.8461C107.699 23.8461 106.394 24.4484 105.39 25.5525C104.387 26.6565 103.784 28.0617 103.784 29.5673C103.784 31.0729 104.286 32.4781 105.39 33.5822C106.394 34.6863 107.699 35.2885 109.305 35.2885C110.81 35.2885 112.015 34.6863 113.119 33.5822C114.223 32.4781 114.725 31.0729 114.725 29.5673C114.725 28.0617 114.223 26.7569 113.219 25.5525C112.216 24.348 110.71 23.8461 109.204 23.8461Z" fill="#374246"/>
<path d="M126.57 24.1469H124.261V36.9945H122.053V24.1469H119.945V22.0391H122.053V17.9238H124.261V22.0391H126.57V24.1469Z" fill="#374246"/>
<path d="M143.63 30.2701H130.682C130.782 31.876 131.385 33.0805 132.288 33.9838C133.292 34.7868 134.496 35.2887 136.102 35.2887C138.411 35.2887 140.017 34.4857 140.92 32.7794H143.429C141.723 35.8909 139.314 37.4969 136.102 37.4969C133.793 37.4969 131.886 36.7943 130.481 35.2887C128.976 33.7831 128.273 31.9764 128.273 29.5675C128.273 27.3593 128.976 25.4522 130.481 24.047C131.987 22.6418 133.793 21.8389 136.002 21.8389C138.511 21.8389 140.418 22.6418 141.723 24.3482C143.028 25.653 143.63 27.7608 143.63 30.2701ZM130.682 28.2627H141.422C141.121 26.6567 140.518 25.5526 139.715 24.85C138.812 24.1474 137.608 23.8463 136.002 23.8463C134.596 23.8463 133.492 24.2478 132.489 25.0508C131.585 25.8537 130.983 26.9578 130.682 28.2627Z" fill="#374246"/>
<path d="M160.093 30.7713C160.093 34.9869 157.584 36.9943 152.565 36.9943H147.848V16.0166H152.063C156.68 16.0166 158.989 17.9237 158.989 21.6375C158.989 23.6449 158.085 24.9497 156.379 25.7527C158.788 26.4553 160.093 28.1616 160.093 30.7713ZM150.256 18.3252V25.0501H152.264C154.974 25.0501 156.379 23.8456 156.379 21.5371C156.379 19.3289 154.874 18.3252 151.963 18.3252H150.256ZM150.256 27.1579V34.7862H152.766C155.978 34.7862 157.584 33.5817 157.584 31.0724C157.584 29.5668 157.182 28.5631 156.379 27.9609C155.677 27.459 154.572 27.1579 152.966 27.1579H150.256Z" fill="#374246"/>
<path d="M166.415 36.9952H164.207V14.6123H166.415V36.9952Z" fill="#374246"/>
<path d="M177.859 21.6377C179.967 21.6377 181.874 22.4407 183.379 23.9462C184.885 25.4518 185.688 27.2585 185.688 29.4667C185.688 31.6749 184.985 33.4815 183.48 35.0875C181.974 36.6934 180.167 37.396 177.959 37.396C175.851 37.396 173.944 36.5931 172.439 35.0875C170.933 33.5819 170.23 31.6749 170.23 29.5671C170.23 27.4592 170.933 25.5522 172.439 24.0466C173.944 22.4407 175.751 21.6377 177.859 21.6377ZM183.379 29.5671C183.379 27.9611 182.877 26.5559 181.874 25.4518C180.87 24.3477 179.565 23.8459 177.859 23.8459C176.253 23.8459 174.948 24.3477 173.944 25.4518C172.941 26.5559 172.439 27.8607 172.439 29.5671C172.439 31.173 172.941 32.4778 173.944 33.5819C174.948 34.686 176.253 35.1879 177.859 35.1879C179.465 35.1879 180.77 34.686 181.773 33.5819C182.877 32.4778 183.379 31.173 183.379 29.5671Z" fill="#374246"/>
<path d="M250.629 21.6377C252.737 21.6377 254.644 22.4407 256.149 23.9462C257.655 25.4518 258.458 27.2585 258.458 29.4667C258.458 31.6749 257.755 33.4815 256.25 35.0875C254.744 36.6934 252.937 37.396 250.729 37.396C248.621 37.396 246.714 36.5931 245.209 35.0875C243.703 33.5819 243 31.6749 243 29.5671C243 27.4592 243.703 25.5522 245.209 24.0466C246.714 22.4407 248.521 21.6377 250.629 21.6377ZM256.149 29.5671C256.149 27.9611 255.647 26.5559 254.644 25.4518C253.64 24.3477 252.335 23.8459 250.629 23.8459C249.023 23.8459 247.718 24.3477 246.714 25.4518C245.711 26.5559 245.209 27.8607 245.209 29.5671C245.209 31.173 245.711 32.4778 246.714 33.5819C247.718 34.686 249.023 35.1879 250.629 35.1879C252.235 35.1879 253.54 34.686 254.543 33.5819C255.647 32.4778 256.149 31.173 256.149 29.5671Z" fill="#374246"/>
<path d="M203.251 32.0763C202.749 33.6823 201.846 34.9871 200.541 35.8905C199.336 36.7938 197.831 37.2957 196.124 37.2957C193.916 37.2957 192.11 36.4927 190.704 34.9871C189.299 33.4815 188.496 31.5745 188.496 29.4667C188.496 27.2585 189.199 25.4518 190.704 23.9462C192.21 22.4407 194.017 21.6377 196.124 21.6377C197.831 21.6377 199.236 22.0392 200.44 22.9425C201.645 23.8459 202.548 25.0503 203.15 26.6563H200.742C199.838 24.7492 198.333 23.7455 196.024 23.7455C194.418 23.7455 193.214 24.2473 192.21 25.3514C191.307 26.4555 190.805 27.7604 190.805 29.3663C190.805 30.9723 191.307 32.2771 192.21 33.3812C193.214 34.4853 194.518 35.0875 196.024 35.0875C197.128 35.0875 198.031 34.7864 198.935 34.2845C199.738 33.6823 200.44 32.9797 200.742 31.976H203.251V32.0763Z" fill="#374246"/>
<path d="M239.755 32.0763C239.253 33.6823 238.35 34.9871 237.045 35.8905C235.84 36.7938 234.335 37.2957 232.628 37.2957C230.42 37.2957 228.614 36.4927 227.208 34.9871C225.803 33.4815 225 31.5745 225 29.4667C225 27.2585 225.703 25.4518 227.208 23.9462C228.714 22.4407 230.521 21.6377 232.628 21.6377C234.335 21.6377 235.74 22.0392 236.944 22.9425C238.149 23.8459 239.052 25.0503 239.654 26.6563H237.246C236.342 24.7492 234.837 23.7455 232.528 23.7455C230.922 23.7455 229.718 24.2473 228.714 25.3514C227.811 26.4555 227.309 27.7604 227.309 29.3663C227.309 30.9723 227.811 32.2771 228.714 33.3812C229.718 34.4853 231.022 35.0875 232.528 35.0875C233.632 35.0875 234.535 34.7864 235.439 34.2845C236.242 33.6823 236.944 32.9797 237.246 31.976H239.755V32.0763Z" fill="#374246"/>
<path d="M218.309 36.9952H215.498L208.974 29.1662V36.9952H206.766V14.6123H208.974V28.9654L214.896 22.0398H217.606L211.383 29.0658L218.309 36.9952Z" fill="#374246"/>
<path d="M277.391 21.996C278.734 21.996 279.85 22.4713 280.739 23.422C281.628 24.352 282.072 25.6437 282.072 27.297V37H279.964V28.227C279.964 26.6977 279.675 25.6023 279.096 24.941C278.517 24.259 277.763 23.918 276.833 23.918C275.696 23.918 274.808 24.3623 274.167 25.251C273.547 26.119 273.185 27.3073 273.082 28.816V37H270.974V28.227C270.974 26.6977 270.685 25.6023 270.106 24.941C269.527 24.259 268.773 23.918 267.843 23.918C266.582 23.918 265.632 24.445 264.991 25.499C264.371 26.553 264.061 27.9687 264.061 29.746V37H261.953V22.492H264.061V24.755C264.536 23.8663 265.136 23.1843 265.859 22.709C266.603 22.2337 267.45 21.996 268.401 21.996C269.455 21.996 270.375 22.2853 271.16 22.864C271.945 23.422 272.493 24.228 272.803 25.282C273.258 24.2487 273.878 23.4427 274.663 22.864C275.448 22.2853 276.358 21.996 277.391 21.996Z" fill="#374246"/>
<path d="M161.382 44.804C162.063 44.804 162.682 44.9697 163.237 45.301C163.797 45.6323 164.243 46.078 164.574 46.638C164.905 47.1933 165.071 47.8117 165.071 48.493C165.071 49.0017 164.975 49.48 164.784 49.928C164.593 50.3713 164.327 50.7633 163.986 51.104C163.65 51.44 163.258 51.7037 162.81 51.895C162.367 52.0863 161.891 52.182 161.382 52.182C160.841 52.182 160.369 52.056 159.968 51.804C159.571 51.5473 159.254 51.2137 159.016 50.803V52H157.84V41.5H159.016V46.183C159.254 45.7723 159.571 45.441 159.968 45.189C160.369 44.9323 160.841 44.804 161.382 44.804ZM161.368 51.034C161.83 51.034 162.25 50.9197 162.628 50.691C163.006 50.4623 163.307 50.1567 163.531 49.774C163.755 49.3867 163.867 48.9597 163.867 48.493C163.867 48.017 163.753 47.5877 163.524 47.205C163.295 46.8177 162.992 46.512 162.614 46.288C162.236 46.0593 161.821 45.945 161.368 45.945C160.911 45.945 160.512 46.0593 160.171 46.288C159.835 46.5167 159.574 46.8247 159.387 47.212C159.205 47.5993 159.114 48.0263 159.114 48.493C159.114 48.9643 159.205 49.3937 159.387 49.781C159.574 50.1637 159.837 50.4693 160.178 50.698C160.519 50.922 160.915 51.034 161.368 51.034ZM171.207 45H172.453L168.624 55.5H167.378L168.645 52L166.132 45H167.42L169.233 50.383L171.207 45ZM178.452 52V42.2H181.889C182.416 42.2 182.89 42.3283 183.31 42.585C183.734 42.8417 184.07 43.1893 184.318 43.628C184.565 44.062 184.689 44.5473 184.689 45.084C184.689 45.5553 184.595 45.9847 184.409 46.372C184.222 46.7593 183.965 47.0837 183.639 47.345C183.317 47.6017 182.95 47.779 182.54 47.877L184.92 52H183.562L181.231 47.975H179.621V52H178.452ZM179.621 46.799H181.777C182.094 46.799 182.383 46.722 182.645 46.568C182.911 46.4093 183.121 46.197 183.275 45.931C183.433 45.6603 183.513 45.357 183.513 45.021C183.513 44.6803 183.433 44.377 183.275 44.111C183.121 43.8403 182.911 43.628 182.645 43.474C182.383 43.3153 182.094 43.236 181.777 43.236H179.621V46.799ZM189.82 52.182C189.176 52.182 188.588 52.0163 188.056 51.685C187.529 51.3537 187.106 50.9103 186.789 50.355C186.476 49.795 186.32 49.1767 186.32 48.5C186.32 47.9867 186.411 47.5083 186.593 47.065C186.775 46.617 187.025 46.225 187.342 45.889C187.664 45.5483 188.037 45.2823 188.462 45.091C188.887 44.8997 189.339 44.804 189.82 44.804C190.347 44.804 190.83 44.9113 191.269 45.126C191.712 45.336 192.09 45.63 192.403 46.008C192.72 46.386 192.956 46.8247 193.11 47.324C193.269 47.8233 193.327 48.3577 193.285 48.927H187.573C187.629 49.3237 187.76 49.6783 187.965 49.991C188.17 50.299 188.432 50.544 188.749 50.726C189.071 50.908 189.428 51.0013 189.82 51.006C190.24 51.006 190.62 50.8987 190.961 50.684C191.302 50.4647 191.577 50.166 191.787 49.788L192.984 50.068C192.704 50.6887 192.282 51.1973 191.717 51.594C191.152 51.986 190.52 52.182 189.82 52.182ZM187.538 48.003H192.102C192.065 47.611 191.939 47.254 191.724 46.932C191.509 46.6053 191.236 46.344 190.905 46.148C190.574 45.952 190.212 45.854 189.82 45.854C189.428 45.854 189.069 45.9497 188.742 46.141C188.415 46.3323 188.145 46.5913 187.93 46.918C187.72 47.24 187.589 47.6017 187.538 48.003ZM201.324 48.276V52H200.148V48.304C200.148 47.87 200.057 47.4757 199.875 47.121C199.693 46.7617 199.446 46.477 199.133 46.267C198.821 46.0523 198.468 45.945 198.076 45.945C197.689 45.945 197.344 46.0523 197.04 46.267C196.742 46.477 196.506 46.7617 196.333 47.121C196.161 47.4757 196.074 47.87 196.074 48.304V52H194.898V45H196.074V46.078C196.326 45.6813 196.637 45.371 197.005 45.147C197.379 44.9183 197.794 44.804 198.251 44.804C198.858 44.804 199.39 44.9627 199.847 45.28C200.309 45.5973 200.669 46.0197 200.925 46.547C201.187 47.0697 201.32 47.646 201.324 48.276ZM208.919 45H210.095V52H208.912L208.87 50.817C208.65 51.223 208.347 51.552 207.96 51.804C207.577 52.056 207.122 52.182 206.595 52.182C206.077 52.182 205.594 52.0863 205.146 51.895C204.698 51.699 204.301 51.4307 203.956 51.09C203.615 50.7447 203.349 50.348 203.158 49.9C202.966 49.452 202.871 48.969 202.871 48.451C202.871 47.9517 202.964 47.4803 203.151 47.037C203.337 46.5937 203.596 46.2063 203.928 45.875C204.264 45.539 204.651 45.2777 205.09 45.091C205.528 44.8997 205.997 44.804 206.497 44.804C207.052 44.804 207.537 44.9347 207.953 45.196C208.373 45.4527 208.709 45.7863 208.961 46.197L208.919 45ZM206.623 51.041C207.089 51.041 207.491 50.9243 207.827 50.691C208.163 50.4577 208.417 50.145 208.59 49.753C208.767 49.361 208.846 48.927 208.828 48.451C208.809 47.9843 208.699 47.562 208.499 47.184C208.298 46.806 208.027 46.5073 207.687 46.288C207.346 46.064 206.949 45.952 206.497 45.952C206.035 45.952 205.615 46.0687 205.237 46.302C204.859 46.5353 204.562 46.848 204.348 47.24C204.138 47.632 204.042 48.0683 204.061 48.549C204.084 49.011 204.215 49.431 204.453 49.809C204.691 50.187 204.999 50.488 205.377 50.712C205.759 50.9313 206.175 51.041 206.623 51.041ZM218.618 48.276V52H217.442V48.304C217.442 47.87 217.351 47.4757 217.169 47.121C216.987 46.7617 216.74 46.477 216.427 46.267C216.115 46.0523 215.762 45.945 215.37 45.945C214.983 45.945 214.638 46.0523 214.334 46.267C214.036 46.477 213.8 46.7617 213.627 47.121C213.455 47.4757 213.368 47.87 213.368 48.304V52H212.192V45H213.368V46.078C213.62 45.6813 213.931 45.371 214.299 45.147C214.673 44.9183 215.088 44.804 215.545 44.804C216.152 44.804 216.684 44.9627 217.141 45.28C217.603 45.5973 217.963 46.0197 218.219 46.547C218.481 47.0697 218.614 47.646 218.618 48.276ZM226.614 46.176L222.316 50.824H226.614V52H220.636V50.824L224.941 46.176H220.636V45H226.614V46.176ZM234.388 45H235.564V52H234.381L234.339 50.817C234.119 51.223 233.816 51.552 233.429 51.804C233.046 52.056 232.591 52.182 232.064 52.182C231.546 52.182 231.063 52.0863 230.615 51.895C230.167 51.699 229.77 51.4307 229.425 51.09C229.084 50.7447 228.818 50.348 228.627 49.9C228.435 49.452 228.34 48.969 228.34 48.451C228.34 47.9517 228.433 47.4803 228.62 47.037C228.806 46.5937 229.065 46.2063 229.397 45.875C229.733 45.539 230.12 45.2777 230.559 45.091C230.997 44.8997 231.466 44.804 231.966 44.804C232.521 44.804 233.006 44.9347 233.422 45.196C233.842 45.4527 234.178 45.7863 234.43 46.197L234.388 45ZM232.092 51.041C232.558 51.041 232.96 50.9243 233.296 50.691C233.632 50.4577 233.886 50.145 234.059 49.753C234.236 49.361 234.315 48.927 234.297 48.451C234.278 47.9843 234.168 47.562 233.968 47.184C233.767 46.806 233.496 46.5073 233.156 46.288C232.815 46.064 232.418 45.952 231.966 45.952C231.504 45.952 231.084 46.0687 230.706 46.302C230.328 46.5353 230.031 46.848 229.817 47.24C229.607 47.632 229.511 48.0683 229.53 48.549C229.553 49.011 229.684 49.431 229.922 49.809C230.16 50.187 230.468 50.488 230.846 50.712C231.228 50.9313 231.644 51.041 232.092 51.041ZM241.844 52V42.2H245.281C245.808 42.2 246.282 42.3283 246.702 42.585C247.126 42.8417 247.462 43.1893 247.71 43.628C247.957 44.062 248.081 44.5473 248.081 45.084C248.081 45.5553 247.987 45.9847 247.801 46.372C247.614 46.7593 247.357 47.0837 247.031 47.345C246.709 47.6017 246.342 47.779 245.932 47.877L248.312 52H246.954L244.623 47.975H243.013V52H241.844ZM243.013 46.799H245.169C245.486 46.799 245.775 46.722 246.037 46.568C246.303 46.4093 246.513 46.197 246.667 45.931C246.825 45.6603 246.905 45.357 246.905 45.021C246.905 44.6803 246.825 44.377 246.667 44.111C246.513 43.8403 246.303 43.628 246.037 43.474C245.775 43.3153 245.486 43.236 245.169 43.236H243.013V46.799ZM253.212 52.182C252.568 52.182 251.98 52.0163 251.448 51.685C250.921 51.3537 250.499 50.9103 250.181 50.355C249.869 49.795 249.712 49.1767 249.712 48.5C249.712 47.9867 249.803 47.5083 249.985 47.065C250.167 46.617 250.417 46.225 250.734 45.889C251.056 45.5483 251.43 45.2823 251.854 45.091C252.279 44.8997 252.732 44.804 253.212 44.804C253.74 44.804 254.223 44.9113 254.661 45.126C255.105 45.336 255.483 45.63 255.795 46.008C256.113 46.386 256.348 46.8247 256.502 47.324C256.661 47.8233 256.719 48.3577 256.677 48.927H250.965C251.021 49.3237 251.152 49.6783 251.357 49.991C251.563 50.299 251.824 50.544 252.141 50.726C252.463 50.908 252.82 51.0013 253.212 51.006C253.632 51.006 254.013 50.8987 254.353 50.684C254.694 50.4647 254.969 50.166 255.179 49.788L256.376 50.068C256.096 50.6887 255.674 51.1973 255.109 51.594C254.545 51.986 253.912 52.182 253.212 52.182ZM250.93 48.003H255.494C255.457 47.611 255.331 47.254 255.116 46.932C254.902 46.6053 254.629 46.344 254.297 46.148C253.966 45.952 253.604 45.854 253.212 45.854C252.82 45.854 252.461 45.9497 252.134 46.141C251.808 46.3323 251.537 46.5913 251.322 46.918C251.112 47.24 250.982 47.6017 250.93 48.003ZM264.095 45H265.271V52H264.088L264.046 50.817C263.826 51.223 263.523 51.552 263.136 51.804C262.753 52.056 262.298 52.182 261.771 52.182C261.253 52.182 260.77 52.0863 260.322 51.895C259.874 51.699 259.477 51.4307 259.132 51.09C258.791 50.7447 258.525 50.348 258.334 49.9C258.142 49.452 258.047 48.969 258.047 48.451C258.047 47.9517 258.14 47.4803 258.327 47.037C258.513 46.5937 258.772 46.2063 259.104 45.875C259.44 45.539 259.827 45.2777 260.266 45.091C260.704 44.8997 261.173 44.804 261.673 44.804C262.228 44.804 262.713 44.9347 263.129 45.196C263.549 45.4527 263.885 45.7863 264.137 46.197L264.095 45ZM261.799 51.041C262.265 51.041 262.667 50.9243 263.003 50.691C263.339 50.4577 263.593 50.145 263.766 49.753C263.943 49.361 264.022 48.927 264.004 48.451C263.985 47.9843 263.875 47.562 263.675 47.184C263.474 46.806 263.203 46.5073 262.863 46.288C262.522 46.064 262.125 45.952 261.673 45.952C261.211 45.952 260.791 46.0687 260.413 46.302C260.035 46.5353 259.738 46.848 259.524 47.24C259.314 47.632 259.218 48.0683 259.237 48.549C259.26 49.011 259.391 49.431 259.629 49.809C259.867 50.187 260.175 50.488 260.553 50.712C260.935 50.9313 261.351 51.041 261.799 51.041ZM267.627 52V41.5H268.796V52H267.627ZM274.784 46.176H273.195L273.188 52H272.012L272.019 46.176H270.815V45H272.019L272.012 42.802H273.188L273.195 45H274.784V46.176ZM281.23 45H282.476L278.647 55.5H277.401L278.668 52L276.155 45H277.443L279.256 50.383L281.23 45Z" fill="#374246"/>
</svg>
