<svg width="219" height="54" viewBox="0 0 219 54" fill="none" xmlns="http://www.w3.org/2000/svg">
<g clip-path="url(#clip0)">
<path d="M49 0H5C2.23858 0 0 2.23858 0 5V49C0 51.7614 2.23858 54 5 54H49C51.7614 54 54 51.7614 54 49V5C54 2.23858 51.7614 0 49 0Z" fill="#CB009B"/>
<path d="M31.5167 19.4722L37.1375 25.0931V19.4722L28.907 11.6432V41.2529H31.4163V19.4722H31.5167ZM23.8884 38.7436H27.1003V5.31982L17.0631 15.357V22.0819L24.1895 14.9555L23.8884 38.7436ZM6.72485 49.1823C6.72485 49.1823 26.5985 38.3421 47.4758 49.1823C37.6393 41.2529 20.1747 38.5429 6.72485 49.1823ZM22.0817 20.9778L14.6542 28.4053V43.8626C17.0631 42.8589 19.5724 42.2566 22.0817 41.8551V20.9778ZM33.0223 42.0559C35.1301 42.4574 37.1375 42.9592 39.0446 43.7622V29.8105L33.0223 23.7882V42.0559Z" fill="white"/>
<path d="M77.9888 36.3346H67.1487V15.3569H77.9888V17.6655H69.658V24.5911H77.487V26.8997H69.658V34.1265H77.9888V36.3346Z" fill="#374246"/>
<path d="M81.2007 31.6172H83.4089C83.4089 32.4202 83.6096 33.1228 84.1115 33.725C84.6133 34.3272 85.2155 34.6283 86.0185 34.6283C86.8215 34.6283 87.4237 34.4276 87.9256 34.0261C88.4274 33.6246 88.6282 33.1228 88.6282 32.3198C88.6282 31.3161 88.026 30.5131 86.9219 29.9109C85.8178 29.409 84.8141 29.0075 83.71 28.5057C82.5055 27.8031 82.0037 26.699 82.0037 25.2938C82.0037 24.0893 82.4051 23.0856 83.3085 22.2826C84.1115 21.4796 85.2156 20.9778 86.42 20.9778C87.7248 20.9778 88.7286 21.3793 89.4312 22.0819C90.1338 22.8848 90.5353 23.8886 90.5353 25.1934H88.2267C88.2267 23.7882 87.6245 23.0856 86.3196 23.0856C85.7174 23.0856 85.2156 23.2863 84.9144 23.6878C84.5129 24.0893 84.3122 24.5912 84.3122 25.093C84.3122 25.6953 84.5129 26.0967 84.9144 26.3979C85.3159 26.699 86.1189 27.1005 87.223 27.7027C88.3271 28.2045 89.1301 28.7064 89.6319 29.0075C90.4349 29.6098 90.8364 30.3124 91.0371 31.1153C91.0371 31.4164 91.1375 31.7176 91.1375 32.119C91.1375 33.5243 90.6356 34.528 89.7323 35.4313C88.8289 36.2343 87.6245 36.6358 86.3196 36.6358C84.9144 36.6358 83.71 36.1339 82.907 35.2306C82.104 34.3272 81.2007 33.1228 81.2007 31.6172Z" fill="#374246"/>
<path d="M99.5687 23.487H97.2602V36.3346H95.052V23.487H92.9442V21.3792H95.052V17.2639H97.2602V21.3792H99.5687V23.487Z" fill="#374246"/>
<path d="M116.732 36.3346H114.524V34.1265C113.119 35.8328 111.312 36.6357 109.104 36.6357C106.896 36.6357 105.089 35.9331 103.584 34.4276C102.078 32.922 101.375 31.1153 101.375 28.9071C101.375 26.6989 102.078 24.8923 103.584 23.3867C105.089 21.8811 106.896 21.0781 109.104 21.0781C111.413 21.0781 113.219 21.9815 114.524 23.7882V21.4796H116.732V36.3346ZM109.204 23.1859C107.699 23.1859 106.394 23.7882 105.39 24.8923C104.387 25.9963 103.784 27.4015 103.784 28.9071C103.784 30.4127 104.286 31.8179 105.39 32.922C106.394 34.0261 107.699 34.6283 109.305 34.6283C110.81 34.6283 112.015 34.0261 113.119 32.922C114.223 31.8179 114.725 30.4127 114.725 28.9071C114.725 27.4015 114.223 26.0967 113.219 24.8923C112.216 23.6878 110.71 23.1859 109.204 23.1859Z" fill="#374246"/>
<path d="M126.569 23.487H124.26V36.3346H122.052V23.487H119.944V21.3792H122.052V17.2639H124.26V21.3792H126.569V23.487Z" fill="#374246"/>
<path d="M143.632 29.6097H130.684C130.784 31.2156 131.387 32.4201 132.29 33.3234C133.294 34.1264 134.498 34.6283 136.104 34.6283C138.413 34.6283 140.019 33.8253 140.922 32.119H143.431C141.725 35.2305 139.316 36.8365 136.104 36.8365C133.795 36.8365 131.888 36.1339 130.483 34.6283C128.978 33.1227 128.275 31.316 128.275 28.9071C128.275 26.6989 128.978 24.7918 130.483 23.3866C131.989 21.9814 133.795 21.1785 136.004 21.1785C138.513 21.1785 140.42 21.9814 141.725 23.6878C143.03 24.9926 143.632 27.1004 143.632 29.6097ZM130.684 27.6023H141.424C141.123 25.9963 140.52 24.8922 139.717 24.1896C138.814 23.487 137.61 23.1859 136.004 23.1859C134.598 23.1859 133.494 23.5874 132.491 24.3904C131.587 25.1933 130.985 26.2974 130.684 27.6023Z" fill="#374246"/>
<path d="M160.093 30.1116C160.093 34.3272 157.584 36.3346 152.565 36.3346H147.848V15.3569H152.063C156.68 15.3569 158.989 17.264 158.989 20.9778C158.989 22.9852 158.085 24.29 156.379 25.093C158.788 25.7956 160.093 27.5019 160.093 30.1116ZM150.256 17.6655V24.3904H152.264C154.974 24.3904 156.379 23.1859 156.379 20.8774C156.379 18.6692 154.874 17.6655 151.963 17.6655H150.256ZM150.256 26.4982V34.1265H152.766C155.978 34.1265 157.584 32.922 157.584 30.4127C157.584 28.9071 157.182 27.9034 156.379 27.3012C155.677 26.7993 154.572 26.4982 152.966 26.4982H150.256Z" fill="#374246"/>
<path d="M166.416 36.3346H164.208V13.9517H166.416V36.3346Z" fill="#374246"/>
<path d="M177.859 20.9778C179.967 20.9778 181.874 21.7808 183.379 23.2863C184.885 24.7919 185.688 26.5986 185.688 28.8068C185.688 31.015 184.985 32.8216 183.48 34.4276C181.974 36.0335 180.167 36.7361 177.959 36.7361C175.851 36.7361 173.944 35.9332 172.439 34.4276C170.933 32.922 170.23 31.015 170.23 28.9072C170.23 26.7993 170.933 24.8923 172.439 23.3867C173.944 21.7808 175.751 20.9778 177.859 20.9778ZM183.379 28.9072C183.379 27.3012 182.877 25.896 181.874 24.7919C180.87 23.6878 179.565 23.186 177.859 23.186C176.253 23.186 174.948 23.6878 173.944 24.7919C172.941 25.896 172.439 27.2008 172.439 28.9072C172.439 30.5131 172.941 31.8179 173.944 32.922C174.948 34.0261 176.253 34.528 177.859 34.528C179.465 34.528 180.77 34.0261 181.773 32.922C182.877 31.8179 183.379 30.5131 183.379 28.9072Z" fill="#374246"/>
<path d="M203.253 31.4164C202.751 33.0224 201.848 34.3272 200.543 35.2306C199.338 36.1339 197.833 36.6358 196.126 36.6358C193.918 36.6358 192.112 35.8328 190.706 34.3272C189.301 32.8216 188.498 30.9146 188.498 28.8068C188.498 26.5986 189.201 24.7919 190.706 23.2863C192.212 21.7808 194.019 20.9778 196.126 20.9778C197.833 20.9778 199.238 21.3793 200.442 22.2826C201.647 23.186 202.55 24.3904 203.152 25.9964H200.744C199.84 24.0893 198.335 23.0856 196.026 23.0856C194.42 23.0856 193.216 23.5874 192.212 24.6915C191.309 25.7956 190.807 27.1005 190.807 28.7064C190.807 30.3124 191.309 31.6172 192.212 32.7213C193.216 33.8254 194.52 34.4276 196.026 34.4276C197.13 34.4276 198.033 34.1265 198.937 33.6246C199.74 33.0224 200.442 32.3198 200.744 31.3161H203.253V31.4164Z" fill="#374246"/>
<path d="M218.309 36.3346H215.498L208.974 28.5056V36.3346H206.766V13.9517H208.974V28.3048L214.896 21.3792H217.606L211.383 28.4052L218.309 36.3346Z" fill="#374246"/>
</g>
<defs>
<clipPath id="clip0">
<rect width="218.309" height="54" fill="white"/>
</clipPath>
</defs>
</svg>
