<svg width="80" height="80" viewBox="0 0 80 80" fill="none" xmlns="http://www.w3.org/2000/svg">
<g clip-path="url(#clip0)">
<path d="M39.9576 79.3212C61.6976 79.3212 79.3213 61.6975 79.3213 39.9575C79.3213 18.2175 61.6976 0.59375 39.9576 0.59375C18.2176 0.59375 0.593872 18.2175 0.593872 39.9575C0.593872 61.6975 18.2176 79.3212 39.9576 79.3212Z" fill="url(#paint0_linear)" stroke="#133DC7" stroke-width="1.5" stroke-miterlimit="10" stroke-linejoin="round"/>
<path d="M11.4528 67.1051C18.6638 74.6555 28.7592 79.3214 39.9575 79.3214C51.071 79.3214 61.0816 74.7403 68.2926 67.2748C66.3414 58.7912 59.9787 48.3564 40.0424 48.3564C20.2757 48.3564 13.6585 58.6216 11.4528 67.1051Z" fill="url(#paint1_linear)" stroke="#133DC7" stroke-width="1.5" stroke-miterlimit="10" stroke-linejoin="round"/>
<path d="M39.9575 51.5794C50.3121 51.5794 58.7062 43.1853 58.7062 32.8307C58.7062 22.4761 50.3121 14.082 39.9575 14.082C29.6029 14.082 21.2089 22.4761 21.2089 32.8307C21.2089 43.1853 29.6029 51.5794 39.9575 51.5794Z" fill="url(#paint2_linear)" stroke="#133DC7" stroke-width="1.5" stroke-miterlimit="10" stroke-linejoin="round"/>
<path d="M33.4253 40.2969C33.4253 40.2969 39.6183 45.896 47.3383 40.2969" stroke="#133DC7" stroke-width="1.5" stroke-miterlimit="10" stroke-linejoin="round"/>
</g>
<defs>
<linearGradient id="paint0_linear" x1="0.63629" y1="39.9828" x2="79.3295" y2="39.9828" gradientUnits="userSpaceOnUse">
<stop stop-color="#B3B7E8"/>
<stop offset="1" stop-color="#E1E7FE"/>
</linearGradient>
<linearGradient id="paint1_linear" x1="11.4755" y1="63.8275" x2="68.2876" y2="63.8275" gradientUnits="userSpaceOnUse">
<stop stop-color="#FBAEC8"/>
<stop offset="1" stop-color="#757AFF"/>
</linearGradient>
<linearGradient id="paint2_linear" x1="21.2623" y1="32.84" x2="58.7034" y2="32.84" gradientUnits="userSpaceOnUse">
<stop stop-color="#FEE0E1"/>
<stop offset="1" stop-color="#FCB6B4"/>
</linearGradient>
<clipPath id="clip0">
<rect width="80" height="80" fill="white"/>
</clipPath>
</defs>
</svg>
