<svg width="41" height="49" viewBox="0 0 41 49" fill="none" xmlns="http://www.w3.org/2000/svg">
<g clip-path="url(#clip0)">
<path fill-rule="evenodd" clip-rule="evenodd" d="M33.6199 35.6817C37.8929 32.0138 40.5996 26.573 40.5996 20.5C40.5996 9.4543 31.6453 0.5 20.5996 0.5C9.55391 0.5 0.599609 9.4543 0.599609 20.5C0.599609 26.573 3.30637 32.0138 7.57928 35.6817L20.5996 48.7021L33.6199 35.6817Z" fill="#4AB2D8"/>
<g clip-path="url(#clip1)">
<path d="M21.5335 12.3328L20.0938 16.4394H21.659V19.8642C22.1823 19.5501 22.9636 19.3724 23.9512 19.7784C25.4931 20.4121 25.6916 21.7118 25.5811 22.3105L24.4283 22.0978L24.4266 22.1074C24.4269 22.1053 24.4571 21.8908 24.3612 21.6374C24.2355 21.305 23.9476 21.0444 23.5056 20.8627C22.4559 20.4312 22.0113 21.0855 22.0069 21.0921L21.659 20.8639V23.2621C21.659 23.5277 21.6464 23.7922 21.622 24.055C22.1572 24.4081 22.7741 24.6049 23.4194 24.6252C23.4735 24.627 23.5273 24.6278 23.5812 24.6278C24.8771 24.6278 26.0986 24.1295 27.1229 23.1806C27.8872 22.4721 28.4783 21.5634 28.832 20.553L30.5999 15.5112L21.5335 12.3328ZM23.8172 17.5587L22.3294 17.0371L22.7172 15.9308L24.205 16.4524L23.8172 17.5587ZM27.0409 18.6888L25.5531 18.1672L25.9409 17.0609L27.4287 17.5825L27.0409 18.6888Z" fill="white"/>
<path d="M10.5996 17.6116V23.2551C10.5996 24.4449 10.8826 25.6089 11.418 26.6214C12.1494 28.0045 13.2144 28.9248 14.5833 29.3567C15.2112 29.5547 15.8749 29.5547 16.5027 29.3567C17.8717 28.9249 18.9367 28.0046 19.6681 26.6214C20.2035 25.6089 20.4865 24.4472 20.4865 23.2619V17.6116H10.5996ZM12.2701 21.5501V20.3777H14.3372V21.5501H12.2701ZM18.0187 26.4288C17.6156 26.8978 16.8562 27.4569 15.5286 27.4569C14.1979 27.4569 13.4457 26.8954 13.049 26.4242C12.6163 25.9104 12.5064 25.3912 12.4954 25.3337L13.6464 25.1115L13.645 25.1043C13.6716 25.2251 13.9507 26.2845 15.5286 26.2845C17.1146 26.2845 17.4142 25.2166 17.4432 25.0948L17.4416 25.1018L18.5888 25.3433C18.5767 25.4006 18.4583 25.9174 18.0187 26.4288ZM18.816 21.5501H16.7488V20.3777H18.816V21.5501Z" fill="white"/>
</g>
</g>
<defs>
<clipPath id="clip0">
<rect width="40" height="48.2021" fill="white" transform="translate(0.599609 0.5)"/>
</clipPath>
<clipPath id="clip1">
<rect width="20" height="20" fill="white" transform="translate(10.5996 10.9189)"/>
</clipPath>
</defs>
</svg>
