<svg width="41" height="49" viewBox="0 0 41 49" fill="none" xmlns="http://www.w3.org/2000/svg">
<g clip-path="url(#clip0)">
<path fill-rule="evenodd" clip-rule="evenodd" d="M33.4197 35.7085C37.6927 32.0405 40.3994 26.5997 40.3994 20.5267C40.3994 9.48104 31.4451 0.526733 20.3994 0.526733C9.35372 0.526733 0.399414 9.48104 0.399414 20.5267C0.399414 26.5997 3.10617 32.0405 7.37908 35.7085L20.3994 48.7288L33.4197 35.7085Z" fill="#757AFF"/>
<g clip-path="url(#clip1)">
<path d="M26.3402 19.0314C26.1449 19.0314 25.9523 19.0455 25.7645 19.0724L26.9023 22.9248L25.7785 23.2568L24.6406 19.4053C23.2488 20.0494 22.2812 21.4592 22.2812 23.0908C22.2812 25.3291 24.1023 27.1498 26.3402 27.1498C28.5785 27.1498 30.3996 25.3291 30.3996 23.0908C30.3996 20.8525 28.5785 19.0314 26.3402 19.0314Z" fill="white"/>
<path d="M24.2373 13.9037H21.9412V15.0756H23.3615L23.8713 16.8005L17.9005 17.8551L17.0954 16.4201H17.9319V15.2482H15.0117V16.4201H15.7516L16.9973 18.6403L16.2929 19.4704C15.7418 19.1896 15.1185 19.0314 14.4588 19.0314C12.2205 19.0314 10.3994 20.8525 10.3994 23.0908C10.3994 25.3291 12.2205 27.1498 14.4588 27.1498C16.417 27.1498 18.0557 25.756 18.4354 23.9084L17.8432 23.874L17.2471 23.8396L14.4248 23.6756L14.4928 22.5056L17.315 22.6697L17.9104 22.7041L18.5025 22.7385C18.415 21.7232 17.9518 20.8135 17.2533 20.1498L18.2419 18.9849L21.6764 18.3782V18.3783L20.3686 22.847L18.5025 22.7385C18.5127 22.8545 18.5178 22.972 18.5178 23.0908C18.5178 23.3709 18.4893 23.6443 18.4354 23.9084L21.2311 24.0709L22.9642 18.1508L24.2053 17.9315L24.6404 19.4052C24.9908 19.2424 25.3685 19.1287 25.7642 19.0724L24.2373 13.9037Z" fill="white"/>
</g>
</g>
<defs>
<clipPath id="clip0">
<rect width="40" height="48.2021" fill="white" transform="translate(0.399414 0.526733)"/>
</clipPath>
<clipPath id="clip1">
<rect width="20" height="20" fill="white" transform="translate(10.3994 10.5267)"/>
</clipPath>
</defs>
</svg>
