<svg width="41" height="49" viewBox="0 0 41 49" fill="none" xmlns="http://www.w3.org/2000/svg">
<g clip-path="url(#clip0)">
<path fill-rule="evenodd" clip-rule="evenodd" d="M33.7205 35.6817C37.9934 32.0138 40.7002 26.573 40.7002 20.5C40.7002 9.4543 31.7459 0.5 20.7002 0.5C9.6545 0.5 0.700195 9.4543 0.700195 20.5C0.700195 26.573 3.40695 32.0138 7.67986 35.6817L20.7002 48.7021L33.7205 35.6817Z" fill="#9B441F"/>
<g clip-path="url(#clip1)">
<path d="M27.9946 16.8928H27.4689V15.2998H13.9316V19.5984C13.9316 20.8931 14.2986 22.1517 14.9927 23.238C15.3052 23.7272 15.6777 24.1708 16.0986 24.5613H18.1462H23.2543H25.3019C25.7228 24.1708 26.0953 23.7271 26.4079 23.238C26.599 22.9389 26.7643 22.6264 26.905 22.3039H27.9946C29.4866 22.3039 30.7003 21.0902 30.7003 19.5983C30.7002 18.1065 29.4865 16.8928 27.9946 16.8928ZM27.9946 21.1158H27.2966C27.41 20.6213 27.4688 20.1128 27.4688 19.5983V18.081H27.9946C28.8313 18.081 29.512 18.7617 29.512 19.5983C29.5121 20.4351 28.8313 21.1158 27.9946 21.1158Z" fill="white"/>
<path d="M23.5311 25.7495H17.8693H10.7002V25.9476C10.7002 27.376 11.8623 28.5381 13.2906 28.5381H28.1097C29.5381 28.5381 30.7002 27.376 30.7002 25.9476V25.7495H23.5311Z" fill="white"/>
</g>
</g>
<defs>
<clipPath id="clip0">
<rect width="40" height="48.2021" fill="white" transform="translate(0.700195 0.5)"/>
</clipPath>
<clipPath id="clip1">
<rect width="20" height="20" fill="white" transform="translate(10.7002 11.9189)"/>
</clipPath>
</defs>
</svg>
