<svg width="41" height="49" viewBox="0 0 41 49" fill="none" xmlns="http://www.w3.org/2000/svg">
<g clip-path="url(#clip0)">
<path fill-rule="evenodd" clip-rule="evenodd" d="M33.1199 35.7086C37.3929 32.0406 40.0996 26.5998 40.0996 20.5269C40.0996 9.48116 31.1453 0.526855 20.0996 0.526855C9.05391 0.526855 0.0996094 9.48116 0.0996094 20.5269C0.0996094 26.5998 2.80637 32.0406 7.07928 35.7086L20.0996 48.7289L33.1199 35.7086Z" fill="#757AFF"/>
<g clip-path="url(#clip1)">
<path d="M19.1191 16.8255H25.3239L24.2003 14.5782C23.7093 13.5962 22.7223 12.9862 21.6244 12.9862H19.1191V16.8255Z" fill="white"/>
<path d="M17.9428 16.8256V12.9863H15.6093C14.4156 12.9863 13.3319 13.7373 12.9128 14.855L12.1738 16.8256H17.9428Z" fill="white"/>
<path d="M15.5868 26.9052C16.7765 26.9052 17.7409 25.9407 17.7409 24.751C17.7409 23.5613 16.7765 22.5969 15.5868 22.5969C14.3971 22.5969 13.4326 23.5613 13.4326 24.751C13.4326 25.9407 14.3971 26.9052 15.5868 26.9052Z" fill="white"/>
<path d="M24.6122 26.9052C25.8019 26.9052 26.7663 25.9407 26.7663 24.751C26.7663 23.5613 25.8019 22.5969 24.6122 22.5969C23.4225 22.5969 22.458 23.5613 22.458 24.751C22.458 25.9407 23.4225 26.9052 24.6122 26.9052Z" fill="white"/>
<path d="M27.7467 21.8098V20.6334H30.0118C29.7514 19.5631 28.9312 18.6793 27.8411 18.3679L26.5607 18.002H11.4979L11.1574 18.1722C10.5049 18.4985 10.0996 19.1544 10.0996 19.8838V24.751H12.2565C12.2565 22.9145 13.7506 21.4203 15.5871 21.4203C17.2228 21.4203 18.5859 22.6059 18.8646 24.1627H21.3346C21.6133 22.6059 22.9764 21.4203 24.6121 21.4203C26.4486 21.4203 27.9427 22.9145 27.9427 24.751H30.0996V21.8098H27.7467V21.8098Z" fill="white"/>
</g>
</g>
<defs>
<clipPath id="clip0">
<rect width="40" height="48.2021" fill="white" transform="translate(0.0996094 0.526855)"/>
</clipPath>
<clipPath id="clip1">
<rect width="20" height="20" fill="white" transform="translate(10.0996 9.9458)"/>
</clipPath>
</defs>
</svg>
