<svg width="41" height="49" viewBox="0 0 41 49" fill="none" xmlns="http://www.w3.org/2000/svg">
<g clip-path="url(#clip0)">
<path fill-rule="evenodd" clip-rule="evenodd" d="M33.7205 35.6817C37.9934 32.0138 40.7002 26.573 40.7002 20.5C40.7002 9.4543 31.7459 0.5 20.7002 0.5C9.6545 0.5 0.700195 9.4543 0.700195 20.5C0.700195 26.573 3.40695 32.0138 7.67986 35.6817L20.7002 48.7021L33.7205 35.6817Z" fill="#E8D000"/>
<g clip-path="url(#clip1)">
<path d="M25.9871 23.2064L20.6426 25.3977C20.5174 25.4416 20.3921 25.4416 20.2668 25.3977L14.9224 23.2064C14.5884 23.0749 14.2126 23.3379 14.2126 23.6885V27.2384C14.2126 27.7205 16.9683 29.123 20.5591 29.123C24.1499 29.123 26.6969 27.8082 26.6969 27.2384V23.6885C26.6552 23.2941 26.3211 23.0311 25.9871 23.2064ZM30.2042 23.6447V19.4374V19.3935C30.2042 19.1744 30.1207 18.9114 29.8702 18.78L20.6009 14.748C20.4756 14.7041 20.3086 14.7041 20.1416 14.748L11.0393 18.8238C10.58 19.0429 10.58 19.7441 11.0393 19.9633L20.1416 23.9515C20.2668 23.9953 20.4339 23.9953 20.6009 23.9515L28.5341 20.4892V23.6447C28.2418 23.9076 28.033 24.3021 28.033 24.7403C28.033 25.5292 28.6176 26.1428 29.3691 26.1428C30.1207 26.1428 30.7053 25.5292 30.7053 24.7403C30.7053 24.3021 30.4965 23.9076 30.2042 23.6447Z" fill="white"/>
</g>
</g>
<defs>
<clipPath id="clip0">
<rect width="40" height="48.2021" fill="white" transform="translate(0.700195 0.5)"/>
</clipPath>
<clipPath id="clip1">
<rect width="20" height="20" fill="white" transform="translate(10.7002 11.9189)"/>
</clipPath>
</defs>
</svg>
