<svg width="41" height="49" viewBox="0 0 41 49" fill="none" xmlns="http://www.w3.org/2000/svg">
<g clip-path="url(#clip0)">
<path fill-rule="evenodd" clip-rule="evenodd" d="M33.5203 35.6817C37.7932 32.0138 40.5 26.573 40.5 20.5C40.5 9.4543 31.5457 0.5 20.5 0.5C9.4543 0.5 0.5 9.4543 0.5 20.5C0.5 26.573 3.20676 32.0138 7.47967 35.6817L20.5 48.7021L33.5203 35.6817Z" fill="#374246"/>
<g clip-path="url(#clip1)">
<path d="M21.0649 17.0434L17.0439 21.0644L19.1715 23.192L23.1925 19.171L21.0649 17.0434Z" fill="white"/>
<path d="M25.5698 20.2653L19.9637 14.6592C19.7273 14.4228 19.734 14.0514 19.9637 13.8217L21.247 12.5384C21.4834 12.302 21.8549 12.3088 22.0845 12.5384L27.6906 18.1445C27.927 18.3809 27.9202 18.7523 27.6906 18.982L26.4073 20.2653C26.1844 20.5017 25.8062 20.5017 25.5698 20.2653Z" fill="white"/>
<path d="M27.3732 16.5301L23.7056 12.8625C23.557 12.7139 23.5503 12.464 23.7056 12.3086L24.5499 11.4644C24.6985 11.3158 24.9484 11.309 25.1038 11.4644L28.7781 15.1387C28.9267 15.2873 28.9335 15.5372 28.7781 15.6925L27.9338 16.5368C27.7717 16.6854 27.5286 16.6854 27.3732 16.5301Z" fill="white"/>
<path d="M20.2657 25.5695L14.6596 19.9634C14.4232 19.727 14.0518 19.7338 13.8221 19.9634L12.5388 21.2467C12.3024 21.4831 12.3024 21.8614 12.532 22.091L18.1381 27.6971C18.3745 27.9335 18.746 27.9267 18.9824 27.6903L20.2657 26.407C20.5021 26.1841 20.5021 25.8059 20.2657 25.5695Z" fill="white"/>
<path d="M16.5302 27.3729L12.8626 23.7054C12.7141 23.5568 12.4641 23.55 12.3088 23.7054L11.4713 24.5429C11.3227 24.6915 11.3159 24.9414 11.4713 25.0968L15.1456 28.7711C15.2942 28.9197 15.5373 28.9197 15.6927 28.7643L16.537 27.92C16.6856 27.7714 16.6856 27.5283 16.5302 27.3729Z" fill="white"/>
</g>
</g>
<defs>
<clipPath id="clip0">
<rect width="40" height="48.2021" fill="white" transform="translate(0.5 0.5)"/>
</clipPath>
<clipPath id="clip1">
<rect width="20" height="9.47368" fill="white" transform="translate(9.7002 24.0611) rotate(-45)"/>
</clipPath>
</defs>
</svg>
