<svg width="41" height="49" viewBox="0 0 41 49" fill="none" xmlns="http://www.w3.org/2000/svg">
<g clip-path="url(#clip0)">
<path fill-rule="evenodd" clip-rule="evenodd" d="M33.7205 35.6817C37.9934 32.0138 40.7002 26.573 40.7002 20.5C40.7002 9.4543 31.7459 0.5 20.7002 0.5C9.6545 0.5 0.700195 9.4543 0.700195 20.5C0.700195 26.573 3.40695 32.0138 7.67986 35.6817L20.7002 48.7021L33.7205 35.6817Z" fill="#90BF0B"/>
<path d="M25.8573 27.1255C24.5773 27.1255 23.522 28.1584 23.522 29.4608C23.522 30.7407 24.5549 31.7961 25.8573 31.7961C27.1372 31.7961 28.1926 30.7632 28.1926 29.4608C28.1701 28.1809 27.1372 27.1255 25.8573 27.1255Z" fill="white"/>
<path d="M29.9663 15.9881C29.9214 15.9881 29.8541 15.9657 29.7867 15.9657H15.6402L15.4157 14.4612C15.281 13.4732 14.4277 12.7322 13.4172 12.7322H11.5984C11.1044 12.7322 10.7002 13.1364 10.7002 13.6304C10.7002 14.1244 11.1044 14.5286 11.5984 14.5286H13.4172C13.5295 14.5286 13.6193 14.6184 13.6418 14.7306L15.034 24.2065C15.2136 25.3966 16.2465 26.2948 17.4591 26.2948H26.8002C27.9679 26.2948 28.9783 25.464 29.2253 24.3188L30.6849 17.021C30.7747 16.5495 30.4603 16.0779 29.9663 15.9881Z" fill="white"/>
<path d="M20.1311 29.3485C20.0862 28.1135 19.0532 27.1255 17.8182 27.1255C16.5159 27.1929 15.5279 28.2707 15.5728 29.5506C15.6177 30.7856 16.6281 31.7736 17.8631 31.7736H17.9081C19.188 31.7062 20.1984 30.6284 20.1311 29.3485Z" fill="white"/>
</g>
<defs>
<clipPath id="clip0">
<rect width="40" height="48.2021" fill="white" transform="translate(0.700195 0.5)"/>
</clipPath>
</defs>
</svg>
