<svg width="41" height="49" viewBox="0 0 41 49" fill="none" xmlns="http://www.w3.org/2000/svg">
<g clip-path="url(#clip0)">
<path fill-rule="evenodd" clip-rule="evenodd" d="M33.8201 35.6817C38.093 32.0138 40.7998 26.573 40.7998 20.5C40.7998 9.4543 31.8455 0.5 20.7998 0.5C9.75411 0.5 0.799805 9.4543 0.799805 20.5C0.799805 26.573 3.50656 32.0138 7.77947 35.6817L20.7998 48.7021L33.8201 35.6817Z" fill="#3ACAC1"/>
<g clip-path="url(#clip1)">
<path d="M27.166 12.0422C26.9191 11.8466 26.5605 11.8883 26.365 12.1352L23.0264 16.3514H24.481L27.259 12.8432C27.4545 12.5962 27.4129 12.2376 27.166 12.0422Z" fill="white"/>
<path d="M28.8032 16.3514H24.4816L22.7041 18.5962C22.8045 18.7567 22.8835 18.9317 22.9377 19.1173H27.0193L29.0672 16.9673C29.2882 16.7353 29.1237 16.3514 28.8032 16.3514Z" fill="white"/>
<path d="M20.926 20.6262C21.4358 20.6262 21.849 20.213 21.849 19.7032C21.849 19.1934 21.4358 18.7802 20.926 18.7802C20.4162 18.7802 20.0029 19.1934 20.0029 19.7032C20.0029 20.213 20.4162 20.6262 20.926 20.6262Z" fill="white"/>
<path d="M25.9029 20.289H22.9375C22.6834 21.1598 21.8784 21.798 20.9266 21.798C19.9748 21.798 19.1698 21.1598 18.9157 20.289H15.6973L20.2141 25.031V28.7244L17.393 30.8662C17.1926 31.0183 17.1117 31.2814 17.192 31.5198C17.2722 31.7583 17.4957 31.9188 17.7473 31.9188H24.0565C24.3114 31.9188 24.537 31.7541 24.6146 31.5113C24.6922 31.2685 24.604 31.0035 24.3964 30.8556L21.386 28.7121V25.031L25.9029 20.289Z" fill="white"/>
<path d="M12.5329 16.9673L14.5808 19.1173H18.9155C19.1697 18.2465 19.9747 17.6083 20.9264 17.6083C21.2609 17.6083 21.5771 17.6875 21.8579 17.8275L23.0267 16.3514H12.7969C12.4764 16.3514 12.3119 16.7353 12.5329 16.9673Z" fill="white"/>
</g>
</g>
<defs>
<clipPath id="clip0">
<rect width="40" height="48.2021" fill="white" transform="translate(0.799805 0.5)"/>
</clipPath>
<clipPath id="clip1">
<rect width="20" height="20" fill="white" transform="translate(10.7998 11.9189)"/>
</clipPath>
</defs>
</svg>
