<svg width="41" height="49" viewBox="0 0 41 49" fill="none" xmlns="http://www.w3.org/2000/svg">
<g clip-path="url(#clip0)">
<path fill-rule="evenodd" clip-rule="evenodd" d="M33.7205 35.6817C37.9934 32.0138 40.7002 26.573 40.7002 20.5C40.7002 9.4543 31.7459 0.5 20.7002 0.5C9.6545 0.5 0.700195 9.4543 0.700195 20.5C0.700195 26.573 3.40695 32.0138 7.67986 35.6817L20.7002 48.7021L33.7205 35.6817Z" fill="#F15A7F"/>
<g clip-path="url(#clip1)">
<path d="M19.4502 14.6689C19.4502 12.5977 18.0514 10.9189 16.3252 10.9189C14.5989 10.9189 13.2002 12.5977 13.2002 14.6689C13.2002 16.4577 14.2452 17.9477 15.6414 18.3227L14.4627 28.8327C14.4539 28.9014 14.4502 28.9727 14.4502 29.0439C14.4502 30.0789 15.2902 30.9189 16.3252 30.9189C17.3602 30.9189 18.2002 30.0789 18.2002 29.0439C18.2002 28.9839 18.1977 28.9239 18.1914 28.8652L17.1889 18.2552C18.4914 17.8039 19.4502 16.3777 19.4502 14.6689Z" fill="white"/>
<path d="M27.5752 10.9189C27.2302 10.9189 26.9502 11.1989 26.9502 11.5439V14.6689C26.9502 15.0139 26.6702 15.2939 26.3252 15.2939C25.9802 15.2939 25.7002 15.0139 25.7002 14.6689V11.5439C25.7002 11.1989 25.4202 10.9189 25.0752 10.9189C24.7302 10.9189 24.4502 11.1989 24.4502 11.5439V14.6689C24.4502 15.0139 24.1702 15.2939 23.8252 15.2939C23.4802 15.2939 23.2002 15.0139 23.2002 14.6689V11.5439C23.2002 11.1989 22.9202 10.9189 22.5752 10.9189C22.2302 10.9189 21.9502 11.1989 21.9502 11.5439V15.2939C21.9502 16.7802 22.9952 18.0239 24.3889 18.3377L23.2114 28.8327C23.2039 28.9014 23.2002 28.9727 23.2002 29.0439C23.2002 30.0789 24.0402 30.9189 25.0752 30.9189C26.1102 30.9189 26.9502 30.0789 26.9502 29.0439C26.9502 28.9839 26.9477 28.9239 26.9414 28.8652L25.9414 18.2814C27.2414 17.9027 28.2002 16.7139 28.2002 15.2939V11.5439C28.2002 11.1989 27.9202 10.9189 27.5752 10.9189Z" fill="white"/>
</g>
</g>
<defs>
<clipPath id="clip0">
<rect width="40" height="48.2021" fill="white" transform="translate(0.700195 0.5)"/>
</clipPath>
<clipPath id="clip1">
<rect width="20" height="20" fill="white" transform="translate(10.7002 10.9189)"/>
</clipPath>
</defs>
</svg>
