<svg width="41" height="49" viewBox="0 0 41 49" fill="none" xmlns="http://www.w3.org/2000/svg">
<g clip-path="url(#clip0)">
<path fill-rule="evenodd" clip-rule="evenodd" d="M33.7205 35.6817C37.9934 32.0138 40.7002 26.573 40.7002 20.5C40.7002 9.4543 31.7459 0.5 20.7002 0.5C9.6545 0.5 0.700195 9.4543 0.700195 20.5C0.700195 26.573 3.40695 32.0138 7.67986 35.6817L20.7002 48.7021L33.7205 35.6817Z" fill="#633ABA"/>
<g clip-path="url(#clip1)">
<path d="M27.0232 13.9242C27.0232 13.5842 26.7362 13.3079 26.3856 13.3079H15.0147C14.664 13.3079 14.3771 13.5842 14.3771 13.9242L13.8457 28.3025C13.8457 28.6426 14.1326 28.9189 14.4833 28.9189H26.9169C27.2676 28.9189 27.5545 28.6426 27.5545 28.3025L27.0232 13.9242ZM20.7001 20.0135C18.8085 20.0135 17.2676 18.4726 17.2676 16.581C17.2676 16.3153 17.4801 16.1028 17.7458 16.1028C18.0115 16.1028 18.224 16.3153 18.224 16.581C18.224 17.9519 19.3399 19.0571 20.7001 19.0571C22.0604 19.0571 23.1762 17.9412 23.1762 16.581C23.1762 16.3153 23.3887 16.1028 23.6544 16.1028C23.9201 16.1028 24.1326 16.3153 24.1326 16.581C24.1326 18.4726 22.5917 20.0135 20.7001 20.0135Z" fill="white"/>
<path d="M23.6544 12.8297C23.3887 12.8297 23.1762 12.6171 23.1762 12.3515C23.1762 10.9912 22.071 9.87537 20.7001 9.87537C19.3292 9.87537 18.224 10.9912 18.224 12.3515C18.224 12.6171 18.0115 12.8297 17.7458 12.8297C17.4801 12.8297 17.2676 12.6171 17.2676 12.3515C17.2676 10.4599 18.8085 8.91895 20.7001 8.91895C22.5917 8.91895 24.1326 10.4599 24.1326 12.3515C24.1326 12.6171 23.9201 12.8297 23.6544 12.8297Z" fill="white"/>
</g>
</g>
<defs>
<clipPath id="clip0">
<rect width="40" height="48.2021" fill="white" transform="translate(0.700195 0.5)"/>
</clipPath>
<clipPath id="clip1">
<rect width="13.7088" height="20" fill="white" transform="translate(13.8457 8.91895)"/>
</clipPath>
</defs>
</svg>
