<svg width="40" height="49" viewBox="0 0 40 49" fill="none" xmlns="http://www.w3.org/2000/svg">
<g clip-path="url(#clip0)">
<path fill-rule="evenodd" clip-rule="evenodd" d="M33.0194 35.7086C37.2923 32.0406 39.999 26.5998 39.999 20.5269C39.999 9.48116 31.0447 0.526855 19.999 0.526855C8.95333 0.526855 -0.000976562 9.48116 -0.000976562 20.5269C-0.000976562 26.5998 2.70578 32.0406 6.97869 35.7086L19.999 48.7289L33.0194 35.7086Z" fill="#757AFF"/>
<g clip-path="url(#clip1)">
<path d="M23.7359 10.5269H16.2621C14.3413 10.5269 12.793 12.0752 12.793 13.996V24.3103C12.793 24.9506 13.3052 25.4628 13.9455 25.4628H26.0526C26.6929 25.4628 27.2051 24.9506 27.2051 24.3103V13.996C27.2051 12.0752 25.6451 10.5269 23.7359 10.5269ZM14.7837 17.3953V14.1357C14.7837 13.2044 15.5403 12.4477 16.4717 12.4477H23.5147C24.4461 12.4477 25.2027 13.2044 25.2027 14.1357V17.3953C25.2027 17.7795 24.8884 18.0938 24.5043 18.0938H15.4821C15.098 18.0938 14.7837 17.7795 14.7837 17.3953ZM16.3785 23.3092C15.6218 23.3092 15.0048 22.6922 15.0048 21.9355C15.0048 21.1788 15.6218 20.5618 16.3785 20.5618C17.1352 20.5618 17.7406 21.1788 17.7406 21.9355C17.7406 22.6922 17.1236 23.3092 16.3785 23.3092ZM24.0619 23.3092C23.3052 23.3092 22.6882 22.6922 22.6882 21.9355C22.6882 21.1788 23.3052 20.5618 24.0619 20.5618C24.8186 20.5618 25.4356 21.1788 25.4356 21.9355C25.4356 22.6922 24.8069 23.3092 24.0619 23.3092ZM22.3622 26.2195L22.7231 27.1508H17.3681L17.7289 26.2195H16.0526L14.3646 30.5269H16.0526L16.8325 28.5478H23.2819L24.0619 30.5269H25.7499L24.0619 26.2195H22.3622Z" fill="white"/>
</g>
</g>
<defs>
<clipPath id="clip0">
<rect width="40" height="48.2021" fill="white" transform="translate(-0.000976562 0.526855)"/>
</clipPath>
<clipPath id="clip1">
<rect width="14.4121" height="20" fill="white" transform="translate(12.793 10.5269)"/>
</clipPath>
</defs>
</svg>
