<svg width="41" height="49" viewBox="0 0 41 49" fill="none" xmlns="http://www.w3.org/2000/svg">
<g clip-path="url(#clip0)">
<path fill-rule="evenodd" clip-rule="evenodd" d="M33.8201 35.7086C38.093 32.0406 40.7998 26.5998 40.7998 20.5269C40.7998 9.48116 31.8455 0.526855 20.7998 0.526855C9.75411 0.526855 0.799805 9.48116 0.799805 20.5269C0.799805 26.5998 3.50656 32.0406 7.77947 35.7086L20.7998 48.7289L33.8201 35.7086Z" fill="#757AFF"/>
<g clip-path="url(#clip1)">
<path d="M14.975 27.7971L29.3143 17.6375L24.5846 11.0159C24.5398 10.9532 24.4581 10.9291 24.3865 10.9578L17.8312 13.5799C17.7677 13.6053 17.7262 13.6668 17.7262 13.7351V15.5586L20.3795 18.2723C20.6377 18.5364 20.633 18.9598 20.3689 19.218C20.2388 19.3451 20.07 19.4086 19.9014 19.4086C19.7277 19.4086 19.5542 19.3414 19.4232 19.2074L17.7262 17.4718V18.57C17.7262 18.7107 17.7063 18.8513 17.6688 18.9871L19.8142 21.3821C20.0607 21.6572 20.0374 22.08 19.7623 22.3264C19.6347 22.4407 19.4752 22.497 19.3163 22.497C19.1328 22.497 18.95 22.4219 18.818 22.2744L17.0473 20.2977L16.5419 21.3083L18.0547 23.1925C18.2859 23.4805 18.2399 23.9014 17.9518 24.1326C17.8284 24.2317 17.6805 24.2799 17.5336 24.2799C17.3378 24.2799 17.1438 24.1944 17.0117 24.0299L15.8836 22.6248L15.4172 23.5577C15.2467 23.8989 14.9534 24.1532 14.5916 24.2738L12.3175 25.0318C11.6317 25.2604 11.1709 25.8998 11.1709 26.6227V27.7971H14.975V27.7971Z" fill="white"/>
<path d="M29.9751 18.5626L15.4846 28.8292C15.3885 28.8973 15.2737 28.9339 15.1559 28.9339H11.1709V29.3019C11.1709 30.2083 11.9083 30.9457 12.8147 30.9457H15.9541C16.4006 30.9457 16.8274 30.807 17.1885 30.5444L29.5796 21.5327C30.493 20.8684 30.702 19.5803 30.0455 18.6612L29.9751 18.5626Z" fill="white"/>
</g>
</g>
<defs>
<clipPath id="clip0">
<rect width="40" height="48.2021" fill="white" transform="translate(0.799805 0.526855)"/>
</clipPath>
<clipPath id="clip1">
<rect width="20" height="20" fill="white" transform="translate(10.7998 10.9458)"/>
</clipPath>
</defs>
</svg>
