<svg width="41" height="49" viewBox="0 0 41 49" fill="none" xmlns="http://www.w3.org/2000/svg">
<g clip-path="url(#clip0)">
<path d="M15.9453 20.0422H17.0439V21.1407H15.9453V20.0422Z" fill="white"/>
<path d="M20.3398 24.4363H21.4384V27.7687H20.3398V24.4363Z" fill="white"/>
<path d="M24.7339 24.4363H25.8325V25.5349H24.7339V24.4363Z" fill="white"/>
<path d="M15.9453 24.4363H17.0439V25.5349H15.9453V24.4363Z" fill="white"/>
<path d="M20.3398 20.0422H21.4384V21.1407H20.3398V20.0422Z" fill="white"/>
<path d="M24.7339 20.0422H25.8325V21.1407H24.7339V20.0422Z" fill="white"/>
<path d="M12.6494 27.2194C12.6494 27.5228 12.8952 27.7687 13.1987 27.7687H19.2408V23.887C19.2408 23.5837 19.4868 23.3379 19.7901 23.3379H21.9873C22.2907 23.3379 22.5366 23.5837 22.5366 23.887V27.7687H28.5787C28.8822 27.7687 29.128 27.5228 29.128 27.2194V17.8403H12.6494V27.2194ZM23.6352 19.4928C23.6352 19.1895 23.8812 18.9435 24.1845 18.9435H26.3817C26.6849 18.9435 26.931 19.1895 26.931 19.4928V21.69C26.931 21.9934 26.6849 22.2393 26.3817 22.2393H24.1845C23.8812 22.2393 23.6352 21.9934 23.6352 21.69V19.4928ZM23.6352 23.887C23.6352 23.5837 23.8812 23.3379 24.1845 23.3379H26.3817C26.6849 23.3379 26.931 23.5837 26.931 23.887V26.0842C26.931 26.3875 26.6849 26.6336 26.3817 26.6336H24.1845C23.8812 26.6336 23.6352 26.3875 23.6352 26.0842V23.887ZM19.2408 19.4928C19.2408 19.1895 19.4868 18.9435 19.7901 18.9435H21.9873C22.2907 18.9435 22.5366 19.1895 22.5366 19.4928V21.69C22.5366 21.9934 22.2907 22.2393 21.9873 22.2393H19.7901C19.4868 22.2393 19.2408 21.9934 19.2408 21.69V19.4928ZM14.8464 19.4928C14.8464 19.1895 15.0925 18.9435 15.3958 18.9435H17.593C17.8963 18.9435 18.1422 19.1895 18.1422 19.4928V21.69C18.1422 21.9934 17.8963 22.2393 17.593 22.2393H15.3958C15.0925 22.2393 14.8464 21.9934 14.8464 21.69V19.4928ZM14.8464 23.887C14.8464 23.5837 15.0925 23.3379 15.3958 23.3379H17.593C17.8963 23.3379 18.1422 23.5837 18.1422 23.887V26.0842C18.1422 26.3875 17.8963 26.6336 17.593 26.6336H15.3958C15.0925 26.6336 14.8464 26.3875 14.8464 26.0842V23.887Z" fill="white"/>
<path d="M30.1832 15.9093C29.8745 15.4074 27.4715 11.5143 27.4715 11.5143C27.3714 11.3522 27.1946 11.2534 27.004 11.2534H14.7733C14.5826 11.2534 14.4053 11.3526 14.3055 11.5153C14.0434 11.9417 11.8725 15.4597 11.5961 15.9093C11.4918 16.0788 11.4874 16.2914 11.5845 16.465C11.6816 16.6388 11.8651 16.7464 12.064 16.7464H29.7152C29.9143 16.7464 30.0977 16.6389 30.1948 16.465C30.2919 16.2914 30.2874 16.0788 30.1832 15.9093Z" fill="white"/>
</g>
<defs>
<clipPath id="clip0">
<rect width="20" height="20" fill="white" transform="translate(10.8994 9.58105)"/>
</clipPath>
</defs>
</svg>
