<svg width="41" height="49" viewBox="0 0 41 49" fill="none" xmlns="http://www.w3.org/2000/svg">
<g clip-path="url(#clip0)">
<path fill-rule="evenodd" clip-rule="evenodd" d="M33.6199 35.911C37.8929 32.243 40.5996 26.8022 40.5996 20.7292C40.5996 9.68355 31.6453 0.729248 20.5996 0.729248C9.55391 0.729248 0.599609 9.68355 0.599609 20.7292C0.599609 26.8022 3.30637 32.243 7.57928 35.911L20.5996 48.9313L33.6199 35.911Z" fill="#448114"/>
<path d="M15.6453 20.7714H16.7439V21.8699H15.6453V20.7714Z" fill="white"/>
<path d="M20.0398 25.1655H21.1383V28.498H20.0398V25.1655Z" fill="white"/>
<path d="M24.4341 25.1655H25.5327V26.2642H24.4341V25.1655Z" fill="white"/>
<path d="M15.6453 25.1655H16.7439V26.2642H15.6453V25.1655Z" fill="white"/>
<path d="M20.0398 20.7714H21.1383V21.8699H20.0398V20.7714Z" fill="white"/>
<path d="M24.4341 20.7714H25.5327V21.8699H24.4341V20.7714Z" fill="white"/>
<path d="M12.3496 27.9487C12.3496 28.2521 12.5954 28.498 12.8989 28.498H18.941V24.6163C18.941 24.313 19.187 24.0672 19.4903 24.0672H21.6875C21.9909 24.0672 22.2368 24.313 22.2368 24.6163V28.498H28.2789C28.5824 28.498 28.8282 28.2521 28.8282 27.9487V18.5696H12.3496V27.9487ZM23.3354 20.2222C23.3354 19.9188 23.5814 19.6728 23.8847 19.6728H26.0819C26.3851 19.6728 26.6312 19.9188 26.6312 20.2222V22.4193C26.6312 22.7227 26.3851 22.9686 26.0819 22.9686H23.8847C23.5814 22.9686 23.3354 22.7227 23.3354 22.4193V20.2222ZM23.3354 24.6163C23.3354 24.313 23.5814 24.0672 23.8847 24.0672H26.0819C26.3851 24.0672 26.6312 24.313 26.6312 24.6163V26.8136C26.6312 27.1168 26.3851 27.3629 26.0819 27.3629H23.8847C23.5814 27.3629 23.3354 27.1168 23.3354 26.8136V24.6163ZM18.941 20.2222C18.941 19.9188 19.187 19.6728 19.4903 19.6728H21.6875C21.9909 19.6728 22.2368 19.9188 22.2368 20.2222V22.4193C22.2368 22.7227 21.9909 22.9686 21.6875 22.9686H19.4903C19.187 22.9686 18.941 22.7227 18.941 22.4193V20.2222ZM14.5466 20.2222C14.5466 19.9188 14.7927 19.6728 15.0959 19.6728H17.2932C17.5965 19.6728 17.8424 19.9188 17.8424 20.2222V22.4193C17.8424 22.7227 17.5965 22.9686 17.2932 22.9686H15.0959C14.7927 22.9686 14.5466 22.7227 14.5466 22.4193V20.2222ZM14.5466 24.6163C14.5466 24.313 14.7927 24.0672 15.0959 24.0672H17.2932C17.5965 24.0672 17.8424 24.313 17.8424 24.6163V26.8136C17.8424 27.1168 17.5965 27.3629 17.2932 27.3629H15.0959C14.7927 27.3629 14.5466 27.1168 14.5466 26.8136V24.6163Z" fill="white"/>
<path d="M29.8834 16.6386C29.5747 16.1366 27.1717 12.2436 27.1717 12.2436C27.0716 12.0814 26.8948 11.9827 26.7042 11.9827H14.4735C14.2828 11.9827 14.1055 12.0819 14.0057 12.2445C13.7436 12.6709 11.5727 16.1889 11.2963 16.6386C11.192 16.808 11.1876 17.0207 11.2847 17.1943C11.3818 17.368 11.5653 17.4757 11.7642 17.4757H29.4154C29.6145 17.4757 29.7979 17.3681 29.8949 17.1943C29.9921 17.0207 29.9876 16.808 29.8834 16.6386V16.6386Z" fill="white"/>
</g>
<defs>
<clipPath id="clip0">
<rect width="40" height="48.2021" fill="white" transform="translate(0.599609 0.729248)"/>
</clipPath>
</defs>
</svg>
