<svg width="400" height="296" viewBox="0 0 400 296" fill="none" xmlns="http://www.w3.org/2000/svg">
<g>
    <g class="svg-tree svg-animate">
        <path d="M334.124 216.511H318.258V184.349L301.186 175.554L305.411 165.552L318.344 172.105L318.431 165.552L306.359 147.617L315.154 141.668L322.742 155.895L335.762 134.77L346.885 147.79L334.124 170.553V179.607L358.957 166.501L357.318 178.4L334.124 190.989V216.511Z" fill="url(#paint0_linear)" stroke="#133DC7" stroke-miterlimit="10" stroke-linejoin="round"/>
        <path d="M252.123 156.498C252.123 150.808 254.969 145.807 259.28 142.789C258.159 140.116 257.555 137.27 257.555 134.252C257.555 126.492 261.522 119.594 267.644 115.628C268.592 104.246 278.163 95.2784 289.804 95.2784C290.925 95.2784 292.045 95.3646 293.166 95.5371C297.133 89.2426 304.031 85.0176 312.05 85.0176C317.654 85.0176 322.742 87.087 326.708 90.536C330.071 88.4666 334.123 87.1732 338.349 87.1732C347.057 87.1732 354.645 92.2605 358.267 99.5897C359.991 99.1586 361.716 98.8999 363.526 98.8999C374.649 98.8999 383.789 107.091 385.514 117.697C393.447 118.99 399.569 125.888 399.569 134.166C399.569 139.34 397.154 143.996 393.447 147.1C393.791 148.652 393.964 150.204 393.964 151.842C393.964 160.12 389.48 167.277 382.841 171.071C382.668 180.124 375.253 187.367 366.199 187.367C356.973 187.367 349.472 179.866 349.472 170.639C349.472 167.449 350.42 164.431 351.972 161.931C351.886 161.758 351.8 161.586 351.713 161.413C342.574 159.344 335.589 151.756 334.468 142.358C332.658 143.047 330.761 143.392 328.777 143.392C325.415 143.392 322.311 142.444 319.724 140.719C316.965 146.841 311.619 151.411 305.065 153.136C306.79 156.326 307.825 159.948 307.825 163.828C307.825 176.158 297.823 186.074 285.579 186.074C276.439 186.074 268.506 180.555 265.143 172.623C257.641 171.071 252.123 164.431 252.123 156.498Z" fill="url(#paint1_linear)" stroke="#133DC7" stroke-miterlimit="10" stroke-linejoin="round"/>
        <path d="M292.132 164.346C293.253 164.346 293.253 162.621 292.132 162.621C291.011 162.621 291.011 164.346 292.132 164.346Z" fill="#133DC7"/>
        <path d="M298.684 162.189C299.805 162.189 299.805 160.465 298.684 160.465C297.564 160.465 297.564 162.189 298.684 162.189Z" fill="#133DC7"/>
        <path d="M299.116 167.967C300.237 167.967 300.237 166.242 299.116 166.242C297.995 166.242 297.995 167.967 299.116 167.967Z" fill="#133DC7"/>
        <path d="M288.683 171.934C289.803 171.934 289.803 170.209 288.683 170.209C287.562 170.209 287.562 171.934 288.683 171.934Z" fill="#133DC7"/>
        <path d="M291.269 182.107C292.39 182.107 292.39 180.383 291.269 180.383C290.148 180.383 290.148 182.107 291.269 182.107Z" fill="#133DC7"/>
        <path d="M284.544 180.728C285.665 180.728 285.665 179.004 284.544 179.004C283.423 179.004 283.423 180.728 284.544 180.728Z" fill="#133DC7"/>
        <path d="M284.285 161.414C285.406 161.414 285.406 159.689 284.285 159.689C283.164 159.689 283.164 161.414 284.285 161.414Z" fill="#133DC7"/>
        <path d="M262.125 159C263.246 159 263.246 157.275 262.125 157.275C261.09 157.275 261.004 159 262.125 159Z" fill="#133DC7"/>
        <path d="M271.523 143.392C272.644 143.392 272.644 141.668 271.523 141.668C270.402 141.668 270.402 143.392 271.523 143.392Z" fill="#133DC7"/>
        <path d="M273.507 152.963C274.628 152.963 274.628 151.238 273.507 151.238C272.386 151.238 272.386 152.963 273.507 152.963Z" fill="#133DC7"/>
        <path d="M288.079 146.238C289.2 146.238 289.2 144.514 288.079 144.514C286.958 144.514 286.958 146.238 288.079 146.238Z" fill="#133DC7"/>
        <path d="M293.253 152.016C294.374 152.016 294.374 150.291 293.253 150.291C292.218 150.291 292.218 152.016 293.253 152.016Z" fill="#133DC7"/>
        <path d="M298.684 149.17C299.805 149.17 299.805 147.445 298.684 147.445C297.564 147.445 297.564 149.17 298.684 149.17Z" fill="#133DC7"/>
        <path d="M301.444 146.842C302.565 146.842 302.565 145.117 301.444 145.117C300.323 145.117 300.323 146.842 301.444 146.842Z" fill="#133DC7"/>
        <path d="M296.874 145.635C297.995 145.635 297.995 143.91 296.874 143.91C295.753 143.91 295.753 145.635 296.874 145.635Z" fill="#133DC7"/>
        <path d="M294.287 140.633C295.408 140.633 295.408 138.908 294.287 138.908C293.166 138.908 293.166 140.633 294.287 140.633Z" fill="#133DC7"/>
        <path d="M307.221 135.029C308.342 135.029 308.342 133.305 307.221 133.305C306.187 133.305 306.187 135.029 307.221 135.029Z" fill="#133DC7"/>
        <path d="M293.856 123.475C294.977 123.475 294.977 121.75 293.856 121.75C292.821 121.75 292.821 123.475 293.856 123.475Z" fill="#133DC7"/>
        <path d="M284.285 127.613C285.406 127.613 285.406 125.889 284.285 125.889C283.164 125.889 283.164 127.613 284.285 127.613Z" fill="#133DC7"/>
        <path d="M280.75 121.836C281.871 121.836 281.871 120.111 280.75 120.111C279.629 120.111 279.629 121.836 280.75 121.836Z" fill="#133DC7"/>
        <path d="M326.19 131.666C327.311 131.666 327.311 129.941 326.19 129.941C325.069 129.941 325.069 131.666 326.19 131.666Z" fill="#133DC7"/>
        <path d="M323.001 133.045C324.122 133.045 324.122 131.32 323.001 131.32C321.88 131.32 321.88 133.045 323.001 133.045Z" fill="#133DC7"/>
        <path d="M314.206 126.838C315.327 126.838 315.327 125.113 314.206 125.113C313.171 125.113 313.171 126.838 314.206 126.838Z" fill="#133DC7"/>
        <path d="M344.988 142.185C346.109 142.185 346.109 140.461 344.988 140.461C343.867 140.461 343.867 142.185 344.988 142.185Z" fill="#133DC7"/>
        <path d="M347.143 138.047C348.264 138.047 348.264 136.322 347.143 136.322C346.109 136.322 346.109 138.047 347.143 138.047Z" fill="#133DC7"/>
        <path d="M339.384 137.012C340.505 137.012 340.505 135.287 339.384 135.287C338.263 135.287 338.263 137.012 339.384 137.012Z" fill="#133DC7"/>
        <path d="M352.144 155.809C353.265 155.809 353.265 154.084 352.144 154.084C351.023 154.084 351.023 155.809 352.144 155.809Z" fill="#133DC7"/>
        <path d="M367.752 150.031C368.873 150.031 368.873 148.307 367.752 148.307C366.631 148.307 366.631 150.031 367.752 150.031Z" fill="#133DC7"/>
        <path d="M367.32 158.74C368.441 158.74 368.441 157.016 367.32 157.016C366.199 157.016 366.199 158.74 367.32 158.74Z" fill="#133DC7"/>
        <path d="M378.529 161.154C379.65 161.154 379.65 159.43 378.529 159.43C377.408 159.43 377.408 161.154 378.529 161.154Z" fill="#133DC7"/>
        <path d="M370.941 180.728C372.062 180.728 372.062 179.004 370.941 179.004C369.82 179.004 369.82 180.728 370.941 180.728Z" fill="#133DC7"/>
        <path d="M280.146 168.398C281.267 168.398 281.267 166.674 280.146 166.674C279.025 166.674 279.025 168.398 280.146 168.398Z" fill="#133DC7"/>
        <path d="M284.285 168.398C285.406 168.398 285.406 166.674 284.285 166.674C283.164 166.674 283.164 168.398 284.285 168.398Z" fill="#133DC7"/>
        <path d="M284.889 166.588C286.009 166.588 286.009 164.863 284.889 164.863C283.768 164.863 283.768 166.588 284.889 166.588Z" fill="#133DC7"/>
        <path d="M284.113 150.809C285.234 150.809 285.234 149.084 284.113 149.084C282.992 149.084 282.992 150.809 284.113 150.809Z" fill="#133DC7"/>
        <path d="M278.508 138.391C279.629 138.391 279.629 136.666 278.508 136.666C277.387 136.666 277.387 138.391 278.508 138.391Z" fill="#133DC7"/>
        <path d="M303.082 97.5194C304.203 97.5194 304.203 95.7949 303.082 95.7949C301.961 95.7949 301.961 97.5194 303.082 97.5194Z" fill="#133DC7"/>
        <path d="M320.068 108.127C321.189 108.127 321.189 106.402 320.068 106.402C318.947 106.402 318.947 108.127 320.068 108.127Z" fill="#133DC7"/>
        <path d="M331.45 104.504C332.571 104.504 332.571 102.779 331.45 102.779C330.329 102.779 330.329 104.504 331.45 104.504Z" fill="#133DC7"/>
        <path d="M302.048 128.475C303.169 128.475 303.169 126.75 302.048 126.75C300.927 126.75 300.927 128.475 302.048 128.475Z" fill="#133DC7"/>
    </g>

    <path d="M281.44 140.117H75.4473V213.064H281.44V140.117Z" fill="url(#paint2_linear)" stroke="#133DC7" stroke-miterlimit="10" stroke-linejoin="round"/>
<path d="M281.44 213.064H75.4473V224.188H281.44V213.064Z" fill="url(#paint3_linear)" stroke="#133DC7" stroke-miterlimit="10" stroke-linejoin="round"/>
<path d="M281.44 62.6855H75.4473V135.632H281.44V62.6855Z" fill="url(#paint4_linear)" stroke="#133DC7" stroke-miterlimit="10" stroke-linejoin="round"/>
<path d="M281.526 84.8455L304.807 73.8949L293.512 62.6855L281.526 67.9453V84.8455Z" fill="url(#paint5_linear)" stroke="#133DC7" stroke-miterlimit="10" stroke-linejoin="round"/>
<path d="M266.954 69.584H211.08V128.821H266.954V69.584Z" fill="url(#paint6_linear)" stroke="#133DC7" stroke-miterlimit="10" stroke-linejoin="round"/>
<path d="M262.471 73.8945H215.65V120.715H262.471V73.8945Z" fill="url(#paint7_linear)" stroke="#133DC7" stroke-miterlimit="10" stroke-linejoin="round"/>
<path d="M231.171 85.8809V120.716" stroke="#133DC7" stroke-miterlimit="10" stroke-linejoin="round"/>
<path d="M247.381 85.8809V120.716" stroke="#133DC7" stroke-miterlimit="10" stroke-linejoin="round"/>
<path d="M215.65 85.8809H262.471" stroke="#133DC7" stroke-miterlimit="10" stroke-linejoin="round"/>
<path d="M75.4474 135.633L56.3916 140.117H301.531L281.526 135.633H75.4474Z" fill="url(#paint8_linear)" stroke="#133DC7" stroke-miterlimit="10" stroke-linejoin="round"/>
<path d="M281.526 62.6855V67.9453L293.512 62.6855H281.526Z" fill="url(#paint9_linear)" stroke="#133DC7" stroke-miterlimit="10" stroke-linejoin="round"/>
<path d="M91.7441 140.117H85.6221V191.852H91.7441V140.117Z" fill="url(#paint10_linear)" stroke="#133DC7" stroke-miterlimit="10" stroke-linejoin="round"/>
<path d="M157.965 140.117H151.843V191.852H157.965V140.117Z" fill="url(#paint11_linear)" stroke="#133DC7" stroke-miterlimit="10" stroke-linejoin="round"/>
<path d="M147.704 148.309H95.8828V210.046H147.704V148.309Z" fill="url(#paint12_linear)" stroke="#133DC7" stroke-miterlimit="10" stroke-linejoin="round"/>
<path d="M108.472 153.74H101.401V210.045H108.472V153.74Z" fill="url(#paint13_linear)" stroke="#133DC7" stroke-miterlimit="10" stroke-linejoin="round"/>
<path d="M142.1 153.74H135.029V210.045H142.1V153.74Z" fill="url(#paint14_linear)" stroke="#133DC7" stroke-miterlimit="10" stroke-linejoin="round"/>
<path d="M135.029 153.74H108.472V210.045H135.029V153.74Z" stroke="#133DC7" stroke-miterlimit="10" stroke-linejoin="round"/>
<path d="M272.042 149.516H205.993V204.01H272.042V149.516Z" fill="url(#paint15_linear)" stroke="#133DC7" stroke-miterlimit="10" stroke-linejoin="round"/>
<path d="M266.696 153.482H211.339V196.595H266.696V153.482Z" fill="url(#paint16_linear)" stroke="#133DC7" stroke-miterlimit="10" stroke-linejoin="round"/>
<path d="M229.791 164.605V196.681" stroke="#133DC7" stroke-miterlimit="10" stroke-linejoin="round"/>
<path d="M248.848 164.605V196.681" stroke="#133DC7" stroke-miterlimit="10" stroke-linejoin="round"/>
<path d="M211.339 164.605H266.696" stroke="#133DC7" stroke-miterlimit="10" stroke-linejoin="round"/>
<path d="M218.755 153.482V164.605" stroke="#133DC7" stroke-miterlimit="10" stroke-linejoin="round"/>
<path d="M226.773 153.482V164.605" stroke="#133DC7" stroke-miterlimit="10" stroke-linejoin="round"/>
<path d="M234.792 153.482V164.605" stroke="#133DC7" stroke-miterlimit="10" stroke-linejoin="round"/>
<path d="M242.812 153.482V164.605" stroke="#133DC7" stroke-miterlimit="10" stroke-linejoin="round"/>
<path d="M250.83 153.482V164.605" stroke="#133DC7" stroke-miterlimit="10" stroke-linejoin="round"/>
<path d="M258.85 153.482V164.605" stroke="#133DC7" stroke-miterlimit="10" stroke-linejoin="round"/>
<path d="M95.8828 191.938H81.5693V224.272H95.8828V191.938Z" fill="url(#paint17_linear)" stroke="#133DC7" stroke-miterlimit="10" stroke-linejoin="round"/>
<path d="M162.104 191.938H147.791V224.272H162.104V191.938Z" fill="url(#paint18_linear)" stroke="#133DC7" stroke-miterlimit="10" stroke-linejoin="round"/>
<path d="M147.79 209.959H95.71V213.494H147.79V209.959Z" fill="url(#paint19_linear)" stroke="#133DC7" stroke-miterlimit="10" stroke-linejoin="round"/>
<path d="M147.79 213.58H95.71V217.115H147.79V213.58Z" fill="url(#paint20_linear)" stroke="#133DC7" stroke-miterlimit="10" stroke-linejoin="round"/>
<path d="M147.79 217.115H95.71V220.65H147.79V217.115Z" fill="url(#paint21_linear)" stroke="#133DC7" stroke-miterlimit="10" stroke-linejoin="round"/>
<path d="M147.79 220.65H95.71V224.186H147.79V220.65Z" fill="url(#paint22_linear)" stroke="#133DC7" stroke-miterlimit="10" stroke-linejoin="round"/>
<path d="M107.782 48.2012V56.9099" stroke="#133DC7" stroke-miterlimit="10" stroke-linejoin="round"/>
<path d="M163.139 48.2012V56.9099" stroke="#133DC7" stroke-miterlimit="10" stroke-linejoin="round"/>
<path d="M160.293 50.0977H166.07" stroke="#133DC7" stroke-miterlimit="10" stroke-linejoin="round"/>
<path d="M160.293 52.3398H166.07" stroke="#133DC7" stroke-miterlimit="10" stroke-linejoin="round"/>
<path d="M57.5986 56.9102H292.822V62.6873H75.4473V74.5002L57.5986 56.9102Z" fill="url(#paint23_linear)" stroke="#133DC7" stroke-miterlimit="10" stroke-linejoin="round"/>
<path d="M178.745 74.4993L242.035 11.2098L304.807 73.8957V63.8936L241.259 0.431641L178.831 62.8589L178.745 74.4993Z" fill="url(#paint24_linear)" stroke="#133DC7" stroke-miterlimit="10" stroke-linejoin="round"/>
<path d="M191.766 149.43H169.175V185.041H191.766V149.43Z" fill="url(#paint25_linear)" stroke="#133DC7" stroke-miterlimit="10" stroke-linejoin="round"/>
<path d="M188.576 152.447H172.279V182.109H188.576V152.447Z" fill="url(#paint26_linear)" stroke="#133DC7" stroke-miterlimit="10" stroke-linejoin="round"/>
<path d="M108.04 69.584H85.4492V105.195H108.04V69.584Z" fill="url(#paint27_linear)" stroke="#133DC7" stroke-miterlimit="10" stroke-linejoin="round"/>
<path d="M104.936 72.5156H88.6396V102.177H104.936V72.5156Z" fill="url(#paint28_linear)" stroke="#133DC7" stroke-miterlimit="10" stroke-linejoin="round"/>
<path d="M104.936 84.5879H88.6396" stroke="#133DC7" stroke-miterlimit="10" stroke-linejoin="round"/>
<path d="M156.499 69.584H133.908V105.195H156.499V69.584Z" fill="url(#paint29_linear)" stroke="#133DC7" stroke-miterlimit="10" stroke-linejoin="round"/>
<path d="M153.395 72.5156H137.099V102.177H153.395V72.5156Z" fill="url(#paint30_linear)" stroke="#133DC7" stroke-miterlimit="10" stroke-linejoin="round"/>
<path d="M153.395 84.5879H137.099" stroke="#133DC7" stroke-miterlimit="10" stroke-linejoin="round"/>
<path d="M196.336 56.9085H287.735L242.035 11.209L196.336 56.9085Z" fill="url(#paint31_linear)" stroke="#133DC7" stroke-miterlimit="10" stroke-linejoin="round"/>
<path d="M121.32 101.057L155.81 135.633H86.7432L121.32 101.057Z" fill="url(#paint32_linear)" stroke="#133DC7" stroke-miterlimit="10" stroke-linejoin="round"/>
<path d="M66.1348 156.154V143.134L121.147 88.8984L176.417 143.565V156.154L121.319 101.056L66.1348 156.154Z" fill="url(#paint33_linear)" stroke="#133DC7" stroke-miterlimit="10" stroke-linejoin="round"/>
<path d="M201.854 51.4766H282.388" stroke="#133DC7" stroke-miterlimit="10" stroke-linejoin="round"/>
<path d="M206.94 46.4766H277.3" stroke="#133DC7" stroke-miterlimit="10" stroke-linejoin="round"/>
<path d="M211.855 41.4746H272.386" stroke="#133DC7" stroke-miterlimit="10" stroke-linejoin="round"/>
<path d="M216.598 36.3867H267.643" stroke="#133DC7" stroke-miterlimit="10" stroke-linejoin="round"/>
<path d="M221.944 31.3867H262.298" stroke="#133DC7" stroke-miterlimit="10" stroke-linejoin="round"/>
<path d="M226.772 26.3848H257.469" stroke="#133DC7" stroke-miterlimit="10" stroke-linejoin="round"/>
<path d="M231.86 21.3848H252.382" stroke="#133DC7" stroke-miterlimit="10" stroke-linejoin="round"/>
<path d="M237.12 16.2969H247.122" stroke="#133DC7" stroke-miterlimit="10" stroke-linejoin="round"/>
<path d="M90.8818 131.408H151.153" stroke="#133DC7" stroke-miterlimit="10" stroke-linejoin="round"/>
<path d="M95.1064 127.01H146.842" stroke="#133DC7" stroke-miterlimit="10" stroke-linejoin="round"/>
<path d="M99.1592 122.699H142.876" stroke="#133DC7" stroke-miterlimit="10" stroke-linejoin="round"/>
<path d="M103.729 118.301H138.306" stroke="#133DC7" stroke-miterlimit="10" stroke-linejoin="round"/>
<path d="M107.868 113.99H134.167" stroke="#133DC7" stroke-miterlimit="10" stroke-linejoin="round"/>
<path d="M112.18 109.68H129.77" stroke="#133DC7" stroke-miterlimit="10" stroke-linejoin="round"/>
<path d="M116.663 105.281H125.286" stroke="#133DC7" stroke-miterlimit="10" stroke-linejoin="round"/>
<path d="M75.1885 247.381H172.968" stroke="#133DC7" stroke-miterlimit="10" stroke-linejoin="round"/>
<path d="M58.8916 230.912H156.758" stroke="#133DC7" stroke-miterlimit="10" stroke-linejoin="round"/>
<path d="M151.153 241.432H248.933" stroke="#133DC7" stroke-miterlimit="10" stroke-linejoin="round"/>
<path d="M179.607 247.381H195.904" stroke="#133DC7" stroke-miterlimit="10" stroke-linejoin="round"/>
<path d="M93.2959 239.189H109.506" stroke="#133DC7" stroke-miterlimit="10" stroke-linejoin="round"/>

    <g class="svg-tree svg-animate">
        <path d="M344.384 241.432C347.23 238.328 348.954 234.189 348.954 229.705C348.954 220.048 341.108 212.115 331.364 212.115C328.519 212.115 325.932 212.805 323.604 213.926C319.379 206.511 311.36 201.596 302.306 201.596C293.77 201.596 286.355 205.907 281.871 212.46C278.422 209.96 274.111 208.494 269.541 208.494C257.814 208.494 248.329 217.979 248.329 229.705C248.329 234.016 249.622 238.069 251.864 241.432H344.384Z" fill="url(#paint34_linear)" stroke="#133DC7" stroke-miterlimit="10" stroke-linejoin="round"/>
        <path d="M325.501 228.584C325.501 228.584 327.14 221.686 323.604 214.012Z" fill="url(#paint35_linear)"/>
        <path d="M325.501 228.584C325.501 228.584 327.14 221.686 323.604 214.012" stroke="#133DC7" stroke-width="0.75" stroke-miterlimit="10" stroke-linejoin="round"/>
        <path d="M332.744 235.569C333.089 235.052 333.606 234.793 334.21 234.707Z" fill="url(#paint36_linear)"/>
        <path d="M333.262 235.914C333.262 235.914 333.348 235.828 333.262 235.914C333.348 235.828 333.434 235.742 333.607 235.569C333.521 235.569 333.521 235.656 333.434 235.656C333.607 235.569 333.779 235.397 333.952 235.397C333.865 235.397 333.865 235.483 333.779 235.483C333.952 235.397 334.124 235.397 334.297 235.311C334.469 235.311 334.641 235.138 334.641 235.052C334.728 234.88 334.728 234.707 334.728 234.535C334.641 234.362 334.555 234.19 334.469 234.19C334.383 234.19 334.383 234.104 334.297 234.104C334.21 234.104 334.038 234.104 333.952 234.104C333.607 234.19 333.262 234.276 333.003 234.448C332.658 234.621 332.4 234.966 332.141 235.224C332.055 235.311 332.055 235.569 332.055 235.742C332.055 235.914 332.227 236.087 332.313 236.087C332.486 236.173 332.658 236.173 332.831 236.173C332.917 236.173 332.917 236.087 333.003 236.087C333.176 236.087 333.176 236 333.262 235.914Z" fill="#133DC7"/>
        <path d="M325.501 233.758C326.018 233.844 326.536 233.671 326.794 233.24Z" fill="url(#paint37_linear)"/>
        <path d="M325.329 234.361C325.501 234.361 325.674 234.447 325.846 234.447C325.933 234.447 326.105 234.447 326.191 234.361C326.277 234.361 326.45 234.275 326.536 234.275C326.709 234.189 326.881 234.103 326.967 234.016C327.14 233.93 327.226 233.758 327.312 233.585C327.398 233.413 327.398 233.24 327.398 233.068C327.398 232.895 327.226 232.723 327.14 232.723C326.967 232.637 326.795 232.637 326.622 232.637C326.45 232.723 326.364 232.809 326.277 232.895L326.191 232.982C326.191 232.895 326.277 232.895 326.277 232.809C326.191 232.895 326.191 232.982 326.105 232.982C326.191 232.982 326.191 232.895 326.277 232.895C326.191 232.982 326.105 232.982 326.019 233.068C326.105 233.068 326.105 232.982 326.191 232.982C326.105 232.982 326.019 233.068 325.846 233.068C325.933 233.068 325.933 233.068 326.019 233.068C325.933 233.068 325.846 233.068 325.76 233.068C325.846 233.068 325.846 233.068 325.933 233.068H325.846C325.674 233.068 325.501 233.068 325.329 233.154C325.157 233.24 325.07 233.413 325.07 233.499C325.07 233.671 325.07 233.844 325.157 234.016C324.984 234.275 325.157 234.361 325.329 234.361Z" fill="#133DC7"/>
        <path d="M319.293 231.256C318.603 231.17 317.913 231.256 317.31 231.429Z" fill="url(#paint38_linear)"/>
        <path d="M319.293 230.567C318.603 230.481 317.827 230.567 317.137 230.739C316.792 230.826 316.534 231.171 316.706 231.516C316.792 231.86 317.137 232.033 317.482 231.947C317.741 231.86 318 231.86 318.172 231.774C318.086 231.774 318.086 231.774 318 231.774C318.431 231.688 318.862 231.688 319.293 231.774C319.465 231.774 319.638 231.688 319.724 231.602C319.81 231.516 319.897 231.343 319.897 231.171C319.897 230.998 319.81 230.826 319.724 230.739C319.638 230.653 319.552 230.653 319.293 230.567Z" fill="#133DC7"/>
        <path d="M316.62 236.948C317.138 236.948 317.569 236.948 318.086 236.948C318.259 236.948 318.431 236.861 318.517 236.775C318.604 236.689 318.69 236.517 318.69 236.344C318.69 235.999 318.431 235.654 318 235.654C317.483 235.654 317.052 235.654 316.534 235.654C316.362 235.654 316.189 235.741 316.103 235.827C316.017 235.913 315.931 236.085 315.931 236.258C316.017 236.689 316.276 236.948 316.62 236.948Z" fill="#133DC7"/>
        <path d="M331.623 226.687C332.054 226.256 332.399 225.652 332.485 225.049Z" fill="url(#paint39_linear)"/>
        <path d="M332.14 227.204C332.658 226.687 333.089 225.997 333.175 225.307C333.175 225.135 333.175 224.962 333.089 224.79C333.002 224.617 332.83 224.531 332.744 224.531C332.571 224.531 332.399 224.531 332.226 224.617C332.054 224.704 331.968 224.876 331.968 224.962C331.968 225.135 331.882 225.307 331.795 225.48C331.795 225.394 331.882 225.394 331.882 225.307C331.795 225.566 331.623 225.825 331.45 226.083C331.45 225.997 331.537 225.997 331.537 225.911C331.45 225.997 331.364 226.17 331.278 226.256C331.019 226.514 331.019 226.946 331.278 227.204C331.45 227.463 331.882 227.463 332.14 227.204Z" fill="#133DC7"/>
        <path d="M345.247 234.361C345.074 234.792 344.902 235.224 344.729 235.655Z" fill="url(#paint40_linear)"/>
        <path d="M344.644 234.016C344.471 234.448 344.299 234.879 344.126 235.31C344.04 235.396 344.04 235.482 344.04 235.569C344.04 235.655 344.04 235.741 344.04 235.827C344.04 236 344.212 236.172 344.299 236.172C344.471 236.258 344.644 236.258 344.816 236.258C344.989 236.172 345.161 236.086 345.161 236C345.333 235.569 345.506 235.137 345.678 234.706C345.765 234.62 345.765 234.534 345.765 234.448C345.765 234.361 345.765 234.275 345.765 234.189C345.765 234.016 345.592 233.844 345.506 233.844C345.333 233.758 345.161 233.758 344.989 233.758C344.902 233.758 344.73 233.844 344.644 234.016Z" fill="#133DC7"/>
        <path d="M339.987 237.982C339.125 238.414 338.262 238.845 337.486 239.276Z" fill="url(#paint41_linear)"/>
        <path d="M339.642 237.379C338.78 237.81 337.918 238.241 337.142 238.673C336.797 238.845 336.711 239.276 336.883 239.535C337.056 239.88 337.487 239.966 337.745 239.794C338.608 239.362 339.47 238.931 340.246 238.5C340.591 238.328 340.677 237.897 340.505 237.638C340.332 237.293 339.987 237.207 339.642 237.379Z" fill="#133DC7"/>
        <path d="M340.677 230.568C340.591 230.827 340.591 231.086 340.505 231.258Z" fill="url(#paint42_linear)"/>
        <path d="M340.074 230.396C339.988 230.655 339.988 230.913 339.901 231.086C339.901 231.172 339.901 231.258 339.901 231.344C339.901 231.431 339.901 231.517 339.988 231.603C339.988 231.689 340.074 231.776 340.16 231.776C340.246 231.862 340.332 231.862 340.419 231.862C340.505 231.862 340.505 231.862 340.591 231.862C340.677 231.862 340.85 231.862 340.936 231.776C341.109 231.689 341.195 231.517 341.195 231.431C341.281 231.172 341.281 230.913 341.367 230.741C341.367 230.655 341.367 230.568 341.367 230.482C341.367 230.396 341.367 230.31 341.281 230.224C341.281 230.137 341.195 230.051 341.109 230.051C341.022 229.965 340.936 229.965 340.85 229.965C340.764 229.965 340.764 229.965 340.677 229.965C340.591 229.965 340.419 229.965 340.332 230.051C340.246 230.051 340.16 230.224 340.074 230.396Z" fill="#133DC7"/>
        <path d="M342.574 224.36C342.574 224.446 342.574 224.618 342.574 224.705C342.574 224.791 342.574 224.877 342.66 224.963C342.66 225.05 342.747 225.136 342.833 225.136C342.919 225.222 342.919 225.222 343.005 225.308C343.092 225.308 343.178 225.394 343.264 225.394C343.35 225.394 343.35 225.394 343.436 225.394C343.523 225.394 343.609 225.308 343.695 225.222C343.695 225.136 343.781 225.136 343.781 225.05C343.868 224.963 343.868 224.877 343.868 224.705C343.868 224.618 343.868 224.446 343.868 224.36C343.868 224.274 343.868 224.187 343.781 224.101C343.781 224.015 343.695 223.929 343.609 223.929C343.523 223.842 343.523 223.842 343.436 223.756C343.35 223.756 343.264 223.67 343.178 223.67C343.092 223.67 343.092 223.67 343.005 223.67C342.919 223.67 342.833 223.756 342.747 223.842C342.747 223.929 342.66 223.929 342.66 224.015C342.574 224.187 342.574 224.274 342.574 224.36Z" fill="#133DC7"/>
        <path d="M318.775 223.668C318.516 223.754 318.258 223.927 318.258 224.272Z" fill="url(#paint43_linear)"/>
        <path d="M318.603 222.979H318.517C318.431 222.979 318.344 223.065 318.258 223.065C318.172 223.151 318.086 223.151 318.086 223.237L317.999 223.324C317.913 223.41 317.913 223.496 317.827 223.496C317.827 223.496 317.827 223.582 317.741 223.582C317.655 223.669 317.655 223.841 317.568 223.927C317.568 224.014 317.568 224.1 317.568 224.186C317.568 224.272 317.568 224.358 317.655 224.445C317.655 224.531 317.741 224.617 317.827 224.617C317.913 224.703 317.999 224.703 318.086 224.703C318.172 224.703 318.172 224.703 318.258 224.703C318.344 224.703 318.517 224.703 318.603 224.617C318.689 224.617 318.689 224.531 318.776 224.531C318.862 224.445 318.948 224.358 318.948 224.272C318.948 224.186 318.948 224.186 318.948 224.1C318.948 224.186 318.862 224.186 318.862 224.272C318.862 224.186 318.948 224.186 318.948 224.1C318.948 224.186 318.862 224.186 318.862 224.272C318.862 224.186 318.948 224.186 319.034 224.1C318.948 224.1 318.948 224.186 318.862 224.186C318.948 224.186 318.948 224.1 319.034 224.1C318.948 224.1 318.948 224.186 318.862 224.186H318.948C319.034 224.186 319.12 224.1 319.207 224.1C319.293 224.014 319.293 224.014 319.379 223.927C319.465 223.841 319.465 223.755 319.465 223.669C319.465 223.582 319.465 223.496 319.465 223.41C319.465 223.324 319.379 223.324 319.379 223.237C319.293 223.151 319.207 223.065 319.12 222.979C319.034 222.979 319.034 222.893 318.948 222.893C318.862 222.979 318.689 222.979 318.603 222.979Z" fill="#133DC7"/>
        <path d="M319.379 216.771C319.638 217.03 319.896 217.375 320.155 217.634Z" fill="url(#paint44_linear)"/>
        <path d="M318.862 217.203C319.121 217.462 319.379 217.807 319.638 218.065C319.724 218.151 319.724 218.151 319.81 218.238C319.897 218.238 319.983 218.324 320.069 218.324C320.155 218.324 320.242 218.324 320.328 218.238C320.414 218.238 320.5 218.151 320.5 218.065C320.586 217.979 320.673 217.807 320.673 217.634C320.673 217.548 320.673 217.548 320.673 217.462C320.673 217.375 320.586 217.289 320.5 217.203C320.242 216.944 319.983 216.599 319.724 216.341C319.638 216.254 319.638 216.254 319.552 216.168C319.465 216.168 319.379 216.082 319.293 216.082C319.207 216.082 319.121 216.082 319.034 216.168C318.948 216.168 318.862 216.254 318.862 216.341C318.776 216.427 318.689 216.599 318.689 216.772C318.689 216.858 318.689 216.858 318.689 216.944C318.776 217.031 318.776 217.117 318.862 217.203Z" fill="#133DC7"/>
        <path d="M281.612 226.514C281.612 226.686 281.612 226.859 281.612 227.031C281.612 227.118 281.612 227.204 281.699 227.29C281.699 227.376 281.785 227.462 281.871 227.462C281.957 227.549 281.957 227.549 282.043 227.635C282.13 227.635 282.216 227.721 282.302 227.721C282.388 227.721 282.388 227.721 282.475 227.721C282.561 227.721 282.647 227.635 282.733 227.549C282.733 227.463 282.819 227.463 282.819 227.376C282.906 227.29 282.906 227.204 282.906 227.031C282.906 226.859 282.906 226.686 282.906 226.514C282.906 226.428 282.906 226.342 282.819 226.255C282.819 226.169 282.733 226.083 282.647 226.083C282.561 225.997 282.561 225.997 282.475 225.91C282.388 225.91 282.302 225.824 282.216 225.824C282.13 225.824 282.13 225.824 282.043 225.824C281.957 225.824 281.871 225.91 281.785 225.997C281.785 226.083 281.699 226.083 281.699 226.169C281.612 226.342 281.612 226.428 281.612 226.514Z" fill="#133DC7"/>
        <path d="M276.784 232.723C276.439 233.154 276.094 233.585 275.663 234.016Z" fill="url(#paint45_linear)"/>
        <path d="M276.353 232.206C276.008 232.637 275.663 233.068 275.232 233.499C275.146 233.671 275.06 233.758 275.06 233.93C275.06 234.103 275.146 234.275 275.232 234.361C275.318 234.448 275.491 234.534 275.663 234.534C275.836 234.534 276.008 234.448 276.094 234.361C276.439 233.93 276.784 233.499 277.215 233.068C277.301 232.895 277.388 232.809 277.388 232.637C277.388 232.464 277.301 232.292 277.215 232.206C277.129 232.119 276.957 232.033 276.784 232.033C276.698 232.033 276.439 232.119 276.353 232.206Z" fill="#133DC7"/>
        <path d="M276.611 228.412C276.353 228.498 276.008 228.498 275.749 228.585Z" fill="url(#paint46_linear)"/>
        <path d="M276.439 227.723C276.181 227.809 275.836 227.809 275.577 227.895C275.491 227.895 275.404 227.981 275.318 227.981C275.232 228.068 275.232 228.068 275.146 228.154C275.06 228.24 275.06 228.326 275.06 228.412C275.06 228.499 275.06 228.585 275.06 228.671C275.146 228.844 275.232 229.016 275.318 229.016C275.404 229.016 275.404 229.102 275.491 229.102C275.577 229.102 275.749 229.102 275.836 229.102C276.094 229.016 276.439 229.016 276.698 228.93C276.784 228.93 276.87 228.844 276.957 228.844C277.043 228.757 277.043 228.757 277.129 228.671C277.215 228.585 277.215 228.499 277.215 228.412C277.215 228.326 277.215 228.24 277.215 228.154C277.129 227.981 277.043 227.809 276.957 227.809C276.87 227.809 276.87 227.723 276.784 227.723C276.698 227.723 276.612 227.723 276.439 227.723Z" fill="#133DC7"/>
        <path d="M279.629 218.926C279.629 219.443 279.629 220.047 279.629 220.564C279.629 220.909 279.888 221.254 280.319 221.254C280.664 221.254 281.009 220.996 281.009 220.564C281.009 220.047 281.009 219.443 281.009 218.926C281.009 218.581 280.75 218.236 280.319 218.236C279.888 218.323 279.629 218.581 279.629 218.926Z" fill="#133DC7"/>
        <path d="M275.404 224.1C275.663 224.1 275.922 224.1 276.094 224.1C276.18 224.1 276.267 224.1 276.353 224.014C276.439 224.014 276.525 223.928 276.525 223.841C276.612 223.755 276.612 223.755 276.698 223.669C276.698 223.583 276.784 223.496 276.784 223.41C276.784 223.238 276.698 223.065 276.612 222.979C276.525 222.893 276.353 222.807 276.18 222.807C275.922 222.807 275.663 222.807 275.491 222.807C275.404 222.807 275.318 222.807 275.232 222.893C275.146 222.893 275.059 222.979 275.059 223.065C274.973 223.152 274.973 223.152 274.887 223.238C274.887 223.324 274.801 223.41 274.801 223.496C274.801 223.669 274.887 223.841 274.973 223.928C275.059 224.014 275.232 224.1 275.404 224.1Z" fill="#133DC7"/>
        <path d="M267.386 232.119C267.472 232.205 267.472 232.378 267.558 232.464Z" fill="url(#paint47_linear)"/>
        <path d="M266.868 232.464C266.955 232.55 266.955 232.723 267.041 232.809C267.041 232.895 267.127 232.981 267.213 232.981C267.3 233.068 267.386 233.068 267.472 233.068C267.558 233.068 267.644 233.068 267.731 233.068C267.817 233.068 267.903 233.068 267.989 232.981C268.076 232.981 268.076 232.895 268.162 232.895C268.248 232.809 268.334 232.723 268.334 232.637C268.334 232.55 268.334 232.55 268.334 232.464C268.334 232.378 268.334 232.205 268.248 232.119C268.162 232.033 268.162 231.861 268.076 231.774C268.076 231.688 267.989 231.602 267.903 231.602C267.817 231.516 267.731 231.516 267.644 231.516C267.558 231.516 267.472 231.516 267.386 231.516C267.3 231.516 267.213 231.516 267.127 231.602C267.041 231.602 267.041 231.688 266.955 231.688C266.868 231.774 266.782 231.861 266.782 231.947C266.782 232.033 266.782 232.033 266.782 232.119C266.782 232.292 266.782 232.378 266.868 232.464Z" fill="#133DC7"/>
        <path d="M308.859 232.637C309.118 232.895 309.463 233.154 309.722 233.327Z" fill="url(#paint48_linear)"/>
        <path d="M308.428 233.154C308.687 233.413 309.032 233.671 309.291 233.844C309.377 233.93 309.377 233.93 309.463 234.016C309.549 234.016 309.635 234.103 309.722 234.103C309.808 234.103 309.894 234.103 309.98 234.016C310.067 234.016 310.153 233.93 310.153 233.844C310.239 233.758 310.325 233.585 310.325 233.413C310.325 233.327 310.325 233.327 310.325 233.24C310.325 233.154 310.239 233.068 310.153 232.982C309.894 232.723 309.549 232.464 309.291 232.292C309.204 232.206 309.204 232.206 309.118 232.119C309.032 232.119 308.946 232.033 308.859 232.033C308.773 232.033 308.687 232.033 308.601 232.119C308.515 232.119 308.428 232.206 308.428 232.292C308.342 232.378 308.256 232.551 308.256 232.723C308.256 232.809 308.256 232.809 308.256 232.895C308.256 232.982 308.342 233.068 308.428 233.154Z" fill="#133DC7"/>
        <path d="M311.361 227.032C312.223 227.032 312.223 225.738 311.361 225.738C310.585 225.738 310.499 227.032 311.361 227.032Z" fill="#133DC7"/>
        <path d="M295.84 237.033C295.84 237.378 295.926 237.723 296.185 237.895Z" fill="url(#paint49_linear)"/>
        <path d="M295.15 237.034C295.15 237.206 295.15 237.292 295.15 237.465C295.15 237.551 295.15 237.637 295.237 237.723C295.323 237.81 295.323 237.982 295.409 238.068C295.495 238.154 295.582 238.327 295.668 238.413C295.754 238.499 295.926 238.586 296.099 238.586C296.185 238.586 296.271 238.586 296.358 238.499C296.444 238.499 296.53 238.413 296.53 238.327C296.616 238.241 296.702 238.068 296.702 237.896C296.702 237.723 296.616 237.551 296.53 237.465C296.444 237.465 296.444 237.378 296.444 237.292C296.444 237.378 296.53 237.378 296.53 237.465C296.444 237.378 296.444 237.292 296.358 237.206C296.358 237.292 296.444 237.292 296.444 237.378C296.444 237.292 296.358 237.206 296.358 237.034C296.358 237.12 296.358 237.12 296.358 237.206C296.358 237.12 296.358 237.034 296.358 237.034C296.358 236.947 296.358 236.861 296.271 236.775C296.271 236.689 296.185 236.602 296.099 236.602C296.013 236.516 296.013 236.516 295.926 236.43C295.84 236.43 295.754 236.344 295.668 236.344C295.495 236.344 295.323 236.43 295.237 236.516C295.237 236.602 295.15 236.602 295.15 236.689C295.237 236.775 295.15 236.947 295.15 237.034Z" fill="#133DC7"/>
        <path d="M303.428 238.501C304.031 238.587 304.635 238.587 305.238 238.328Z" fill="url(#paint50_linear)"/>
        <path d="M303.256 239.104C303.945 239.191 304.721 239.191 305.411 238.932C305.584 238.846 305.67 238.759 305.756 238.673C305.842 238.501 305.842 238.328 305.842 238.156C305.756 237.811 305.411 237.552 305.066 237.725C304.808 237.811 304.635 237.811 304.377 237.897C304.463 237.897 304.463 237.897 304.549 237.897C304.204 237.897 303.859 237.983 303.514 237.897C303.601 237.897 303.601 237.897 303.687 237.897C303.601 237.897 303.601 237.897 303.514 237.897C303.342 237.897 303.169 237.897 302.997 237.983C302.824 238.07 302.738 238.242 302.738 238.328C302.738 238.501 302.738 238.673 302.825 238.846C302.911 238.932 303.083 239.104 303.256 239.104Z" fill="#133DC7"/>
        <path d="M327.829 238.846C328.088 238.501 328.346 238.329 328.778 238.156Z" fill="url(#paint51_linear)"/>
        <path d="M328.347 239.191C328.347 239.191 328.433 239.104 328.347 239.191L328.26 239.277C328.347 239.104 328.519 239.018 328.605 238.932C328.519 238.932 328.519 239.018 328.433 239.018C328.605 238.932 328.778 238.846 328.95 238.76C328.864 238.76 328.864 238.846 328.778 238.846C328.778 238.846 328.778 238.846 328.864 238.846C328.95 238.846 329.036 238.76 329.123 238.76C329.209 238.673 329.209 238.673 329.295 238.587C329.381 238.501 329.381 238.415 329.381 238.328C329.381 238.242 329.381 238.156 329.381 238.07C329.295 237.897 329.209 237.725 329.123 237.725C329.036 237.725 329.036 237.639 328.95 237.639C328.864 237.639 328.691 237.639 328.605 237.639C328.347 237.725 328.174 237.811 327.915 237.984C327.829 238.07 327.657 238.156 327.57 238.242C327.484 238.328 327.398 238.501 327.312 238.587C327.226 238.673 327.226 238.76 327.226 238.846C327.226 238.932 327.226 239.018 327.226 239.104C327.226 239.277 327.398 239.449 327.484 239.449C327.657 239.536 327.829 239.536 328.002 239.536C328.088 239.536 328.088 239.449 328.174 239.449C328.26 239.363 328.347 239.277 328.347 239.191Z" fill="#133DC7"/>
        <path d="M336.365 228.325C336.451 228.239 336.624 228.239 336.71 228.152Z" fill="url(#paint52_linear)"/>
        <path d="M336.71 228.929C336.796 228.842 336.969 228.842 337.055 228.756C337.141 228.756 337.228 228.67 337.228 228.584C337.314 228.498 337.314 228.411 337.314 228.325C337.314 228.239 337.314 228.153 337.314 228.066C337.314 227.98 337.314 227.894 337.228 227.808C337.228 227.722 337.141 227.722 337.141 227.635C337.055 227.549 336.969 227.463 336.883 227.463C336.796 227.463 336.796 227.463 336.71 227.463C336.624 227.463 336.452 227.463 336.365 227.549C336.279 227.635 336.107 227.635 336.02 227.722C335.934 227.722 335.848 227.808 335.848 227.894C335.762 227.98 335.762 228.066 335.762 228.153C335.762 228.239 335.762 228.325 335.762 228.411C335.762 228.498 335.762 228.584 335.848 228.67C335.848 228.756 335.934 228.756 335.934 228.842C336.02 228.929 336.107 229.015 336.193 229.015C336.279 229.015 336.279 229.015 336.365 229.015C336.452 229.015 336.538 228.929 336.71 228.929Z" fill="#133DC7"/>
        <path d="M268.852 237.811C269.11 237.725 269.369 237.725 269.541 237.639Z" fill="url(#paint53_linear)"/>
        <path d="M269.024 238.415C269.283 238.329 269.541 238.329 269.714 238.242C269.8 238.242 269.886 238.156 269.973 238.156C270.059 238.07 270.059 238.07 270.145 237.984C270.231 237.897 270.231 237.811 270.231 237.725C270.231 237.639 270.231 237.553 270.231 237.466C270.145 237.294 270.059 237.121 269.973 237.121C269.886 237.121 269.886 237.035 269.8 237.035C269.714 237.035 269.541 237.035 269.455 237.035C269.197 237.121 268.938 237.121 268.765 237.208C268.679 237.208 268.593 237.294 268.507 237.294C268.42 237.38 268.421 237.38 268.334 237.466C268.248 237.553 268.248 237.639 268.248 237.725C268.248 237.811 268.248 237.897 268.248 237.984C268.334 238.156 268.42 238.329 268.507 238.329C268.593 238.329 268.593 238.415 268.679 238.415C268.765 238.501 268.938 238.501 269.024 238.415Z" fill="#133DC7"/>
        <path d="M257.47 233.586C257.728 233.672 257.987 233.845 258.16 233.931Z" fill="url(#paint54_linear)"/>
        <path d="M257.125 234.103C257.384 234.19 257.642 234.362 257.815 234.448C257.901 234.534 257.987 234.534 258.073 234.534C258.16 234.534 258.246 234.534 258.332 234.534C258.418 234.534 258.505 234.448 258.591 234.448C258.677 234.362 258.677 234.362 258.763 234.276C258.849 234.103 258.849 233.931 258.849 233.758C258.763 233.586 258.677 233.414 258.591 233.414C258.332 233.327 258.073 233.155 257.901 233.069C257.815 232.982 257.728 232.982 257.642 232.982C257.556 232.982 257.47 232.982 257.384 232.982C257.297 232.982 257.211 233.069 257.125 233.069C257.039 233.155 257.039 233.155 256.952 233.241C256.866 233.414 256.866 233.586 256.866 233.758C256.866 233.931 257.039 234.017 257.125 234.103Z" fill="#133DC7"/>
    </g>

    <g class="svg-tree svg-animate">
        <path d="M259.539 252.123C260.401 249.795 260.918 247.208 260.918 244.535C260.918 232.895 251.434 223.41 239.793 223.41C228.153 223.41 218.668 232.895 218.668 244.535C218.668 247.208 219.185 249.709 220.048 252.123H259.539Z" fill="url(#paint55_linear)" stroke="#133DC7" stroke-miterlimit="10" stroke-linejoin="round"/>
        <path d="M243.328 244.622C243.932 244.622 244.536 244.622 245.139 244.622C245.484 244.622 245.829 244.363 245.829 243.932C245.829 243.587 245.57 243.242 245.139 243.242C244.536 243.242 243.932 243.242 243.328 243.242C242.984 243.242 242.639 243.501 242.639 243.932C242.725 244.363 242.984 244.622 243.328 244.622Z" fill="#133DC7"/>
        <path d="M249.105 237.982C249.364 238.672 249.623 239.362 249.882 240.052Z" fill="url(#paint56_linear)"/>
        <path d="M248.502 238.155C248.761 238.845 249.019 239.535 249.278 240.224C249.364 240.397 249.45 240.483 249.537 240.569C249.709 240.655 249.882 240.656 250.054 240.656C250.226 240.569 250.399 240.483 250.399 240.397C250.485 240.224 250.485 240.052 250.485 239.879C250.226 239.19 249.968 238.5 249.709 237.81C249.623 237.638 249.537 237.551 249.45 237.465C249.278 237.379 249.106 237.379 248.933 237.379C248.761 237.465 248.588 237.551 248.588 237.638C248.416 237.81 248.416 237.983 248.502 238.155Z" fill="#133DC7"/>
        <path d="M253.504 244.449C254.366 244.708 255.401 244.449 256.091 243.932Z" fill="url(#paint57_linear)"/>
        <path d="M253.331 245.139C254.366 245.398 255.573 245.226 256.435 244.622C256.694 244.45 256.866 244.018 256.694 243.76C256.521 243.501 256.09 243.329 255.832 243.501C255.745 243.587 255.659 243.587 255.573 243.674C255.487 243.674 255.487 243.76 255.4 243.76H255.314H255.4L255.228 243.846C255.142 243.846 255.142 243.846 255.056 243.932C254.969 243.932 254.883 244.018 254.711 244.018H254.538C254.624 244.018 254.624 244.018 254.624 244.018H254.538C254.452 244.018 254.366 244.018 254.193 244.018C254.107 244.018 254.107 244.018 254.021 244.018H253.848C253.935 244.018 253.935 244.018 253.935 244.018H253.848C253.762 244.018 253.762 244.018 253.676 244.018C253.331 243.932 252.986 244.105 252.9 244.45C252.814 244.622 252.986 245.053 253.331 245.139Z" fill="#133DC7"/>
        <path d="M254.28 235.223C255.142 235.223 255.142 233.93 254.28 233.93C253.417 233.93 253.417 235.223 254.28 235.223Z" fill="#133DC7"/>
        <path d="M229.446 245.227C228.843 245.571 228.239 245.916 227.636 246.348Z" fill="url(#paint58_linear)"/>
        <path d="M229.102 244.709C228.498 245.053 227.895 245.398 227.291 245.829C227.032 246.002 226.86 246.433 227.032 246.692C227.205 246.95 227.636 247.123 227.895 246.95C228.498 246.605 229.102 246.261 229.705 245.829C229.964 245.657 230.136 245.226 229.964 244.967C229.878 244.622 229.447 244.45 229.102 244.709Z" fill="#133DC7"/>
    </g>

    <g class="svg-magnifier svg-animate">
        <path d="M24.4875 50.7865C-8.36436 84.7593 -7.41588 138.909 26.557 171.761C60.5298 204.613 114.679 203.664 147.531 169.691C180.383 135.719 179.435 81.5689 145.462 48.717C111.489 15.8651 57.3395 16.8136 24.4875 50.7865ZM139.254 161.759C110.799 191.162 63.8926 192.024 34.4035 163.569C4.91436 135.115 4.22456 88.2083 32.679 58.7192C61.1334 29.2301 108.04 28.454 137.529 56.9085C167.018 85.3629 167.708 132.356 139.254 161.759Z" fill="url(#paint59_linear)" stroke="#133DC7" stroke-miterlimit="10" stroke-linejoin="round"/>
        <path opacity="0.4" d="M85.9664 184.437C126.92 184.437 160.12 151.237 160.12 110.283C160.12 69.3288 126.92 36.1289 85.9664 36.1289C45.0123 36.1289 11.8125 69.3288 11.8125 110.283C11.8125 151.237 45.0123 184.437 85.9664 184.437Z" fill="url(#paint60_linear)" stroke="#133DC7" stroke-miterlimit="10" stroke-linejoin="round"/>
        <path d="M85.9662 177.366C123.015 177.366 153.05 147.332 153.05 110.283C153.05 73.2335 123.015 43.1992 85.9662 43.1992C48.9171 43.1992 18.8828 73.2335 18.8828 110.283C18.8828 147.332 48.9171 177.366 85.9662 177.366Z" stroke="#133DC7" stroke-miterlimit="10" stroke-linejoin="round"/>
        <path d="M275.232 282.646L264.712 293.597C262.643 295.753 259.194 295.839 257.038 293.769L167.019 206.682L185.126 187.971L275.145 275.058C277.215 277.042 277.301 280.491 275.232 282.646Z" fill="url(#paint61_linear)" stroke="#133DC7" stroke-miterlimit="10" stroke-linejoin="round"/>
        <path d="M179.263 193.834L172.623 200.732L144.169 173.14L150.808 166.328L179.263 193.834Z" fill="url(#paint62_linear)" stroke="#133DC7" stroke-miterlimit="10" stroke-linejoin="round"/>
        <path d="M85.9668 193.316C131.826 193.316 169.002 156.14 169.002 110.281C169.002 64.4222 131.826 27.2461 85.9668 27.2461C40.1077 27.2461 2.93164 64.4222 2.93164 110.281C2.93164 156.14 40.1077 193.316 85.9668 193.316Z" stroke="#133DC7" stroke-miterlimit="10" stroke-linejoin="round"/>
    </g>


</g>
<defs>
<linearGradient id="paint0_linear" x1="301.175" y1="175.662" x2="358.977" y2="175.662" gradientUnits="userSpaceOnUse">
<stop stop-color="white"/>
<stop offset="1" stop-color="#E1E7FE"/>
</linearGradient>
<linearGradient id="paint1_linear" x1="252.138" y1="136.212" x2="399.604" y2="136.212" gradientUnits="userSpaceOnUse">
<stop stop-color="white"/>
<stop offset="1" stop-color="#E1E7FE"/>
</linearGradient>
<linearGradient id="paint2_linear" x1="75.4544" y1="176.607" x2="281.485" y2="176.607" gradientUnits="userSpaceOnUse">
<stop stop-color="#98BFF2"/>
<stop offset="1" stop-color="#899AF4"/>
</linearGradient>
<linearGradient id="paint3_linear" x1="75.4544" y1="218.646" x2="281.485" y2="218.646" gradientUnits="userSpaceOnUse">
<stop stop-color="#FEE0E1"/>
<stop offset="1" stop-color="#899AF4"/>
</linearGradient>
<linearGradient id="paint4_linear" x1="75.4544" y1="99.1638" x2="281.485" y2="99.1638" gradientUnits="userSpaceOnUse">
<stop stop-color="#FEE0E1"/>
<stop offset="1" stop-color="#FCB6B4"/>
</linearGradient>
<linearGradient id="paint5_linear" x1="304.766" y1="73.7869" x2="281.485" y2="73.7869" gradientUnits="userSpaceOnUse">
<stop stop-color="#FEE0E1"/>
<stop offset="1" stop-color="#899AF4"/>
</linearGradient>
<linearGradient id="paint6_linear" x1="211.099" y1="99.1642" x2="267.01" y2="99.1642" gradientUnits="userSpaceOnUse">
<stop stop-color="#FBAEC8"/>
<stop offset="1" stop-color="#757AFF"/>
</linearGradient>
<linearGradient id="paint7_linear" x1="215.623" y1="97.3024" x2="262.487" y2="97.3024" gradientUnits="userSpaceOnUse">
<stop stop-color="white"/>
<stop offset="1" stop-color="#E1E7FE"/>
</linearGradient>
<linearGradient id="paint8_linear" x1="56.3957" y1="137.885" x2="301.509" y2="137.885" gradientUnits="userSpaceOnUse">
<stop stop-color="#FBAEC8"/>
<stop offset="1" stop-color="#757AFF"/>
</linearGradient>
<linearGradient id="paint9_linear" x1="281.485" y1="65.3053" x2="293.548" y2="65.3053" gradientUnits="userSpaceOnUse">
<stop stop-color="#FBAEC8"/>
<stop offset="1" stop-color="#757AFF"/>
</linearGradient>
<linearGradient id="paint10_linear" x1="85.6172" y1="166.022" x2="91.7693" y2="166.022" gradientUnits="userSpaceOnUse">
<stop stop-color="white"/>
<stop offset="1" stop-color="#E1E7FE"/>
</linearGradient>
<linearGradient id="paint11_linear" x1="151.841" y1="166.022" x2="157.993" y2="166.022" gradientUnits="userSpaceOnUse">
<stop stop-color="white"/>
<stop offset="1" stop-color="#E1E7FE"/>
</linearGradient>
<linearGradient id="paint12_linear" x1="95.8859" y1="179.141" x2="147.725" y2="179.141" gradientUnits="userSpaceOnUse">
<stop stop-color="#FBAEC8"/>
<stop offset="1" stop-color="#757AFF"/>
</linearGradient>
<linearGradient id="paint13_linear" x1="101.404" y1="181.854" x2="108.461" y2="181.854" gradientUnits="userSpaceOnUse">
<stop stop-color="white"/>
<stop offset="1" stop-color="#E1E7FE"/>
</linearGradient>
<linearGradient id="paint14_linear" x1="135.059" y1="181.854" x2="142.116" y2="181.854" gradientUnits="userSpaceOnUse">
<stop stop-color="white"/>
<stop offset="1" stop-color="#E1E7FE"/>
</linearGradient>
<linearGradient id="paint15_linear" x1="206.034" y1="176.788" x2="272.077" y2="176.788" gradientUnits="userSpaceOnUse">
<stop stop-color="#FBAEC8"/>
<stop offset="1" stop-color="#757AFF"/>
</linearGradient>
<linearGradient id="paint16_linear" x1="211.376" y1="175.075" x2="266.733" y2="175.075" gradientUnits="userSpaceOnUse">
<stop stop-color="white"/>
<stop offset="1" stop-color="#E1E7FE"/>
</linearGradient>
<linearGradient id="paint17_linear" x1="81.6065" y1="208.06" x2="95.8859" y2="208.06" gradientUnits="userSpaceOnUse">
<stop stop-color="#FEE0E1"/>
<stop offset="1" stop-color="#899AF4"/>
</linearGradient>
<linearGradient id="paint18_linear" x1="147.778" y1="208.06" x2="162.058" y2="208.06" gradientUnits="userSpaceOnUse">
<stop stop-color="#FEE0E1"/>
<stop offset="1" stop-color="#899AF4"/>
</linearGradient>
<linearGradient id="paint19_linear" x1="95.7196" y1="211.769" x2="147.777" y2="211.769" gradientUnits="userSpaceOnUse">
<stop stop-color="#FEE0E1"/>
<stop offset="1" stop-color="#899AF4"/>
</linearGradient>
<linearGradient id="paint20_linear" x1="95.7196" y1="215.327" x2="147.777" y2="215.327" gradientUnits="userSpaceOnUse">
<stop stop-color="#FEE0E1"/>
<stop offset="1" stop-color="#899AF4"/>
</linearGradient>
<linearGradient id="paint21_linear" x1="95.7196" y1="218.886" x2="147.777" y2="218.886" gradientUnits="userSpaceOnUse">
<stop stop-color="#FEE0E1"/>
<stop offset="1" stop-color="#899AF4"/>
</linearGradient>
<linearGradient id="paint22_linear" x1="95.7196" y1="222.444" x2="147.777" y2="222.444" gradientUnits="userSpaceOnUse">
<stop stop-color="#FEE0E1"/>
<stop offset="1" stop-color="#899AF4"/>
</linearGradient>
<linearGradient id="paint23_linear" x1="57.6018" y1="65.7217" x2="292.824" y2="65.7217" gradientUnits="userSpaceOnUse">
<stop stop-color="#FBAEC8"/>
<stop offset="1" stop-color="#757AFF"/>
</linearGradient>
<linearGradient id="paint24_linear" x1="178.711" y1="37.4791" x2="304.766" y2="37.4791" gradientUnits="userSpaceOnUse">
<stop stop-color="#FBAEC8"/>
<stop offset="1" stop-color="#757AFF"/>
</linearGradient>
<linearGradient id="paint25_linear" x1="169.152" y1="167.259" x2="191.769" y2="167.259" gradientUnits="userSpaceOnUse">
<stop stop-color="#FBAEC8"/>
<stop offset="1" stop-color="#757AFF"/>
</linearGradient>
<linearGradient id="paint26_linear" x1="172.319" y1="167.259" x2="188.603" y2="167.259" gradientUnits="userSpaceOnUse">
<stop stop-color="white"/>
<stop offset="1" stop-color="#E1E7FE"/>
</linearGradient>
<linearGradient id="paint27_linear" x1="85.4471" y1="87.3729" x2="108.065" y2="87.3729" gradientUnits="userSpaceOnUse">
<stop stop-color="#FBAEC8"/>
<stop offset="1" stop-color="#757AFF"/>
</linearGradient>
<linearGradient id="paint28_linear" x1="88.6138" y1="87.3729" x2="104.898" y2="87.3729" gradientUnits="userSpaceOnUse">
<stop stop-color="white"/>
<stop offset="1" stop-color="#E1E7FE"/>
</linearGradient>
<linearGradient id="paint29_linear" x1="133.939" y1="87.3729" x2="156.557" y2="87.3729" gradientUnits="userSpaceOnUse">
<stop stop-color="#FBAEC8"/>
<stop offset="1" stop-color="#757AFF"/>
</linearGradient>
<linearGradient id="paint30_linear" x1="137.106" y1="87.3729" x2="153.391" y2="87.3729" gradientUnits="userSpaceOnUse">
<stop stop-color="white"/>
<stop offset="1" stop-color="#E1E7FE"/>
</linearGradient>
<linearGradient id="paint31_linear" x1="196.323" y1="34.0555" x2="287.758" y2="34.0555" gradientUnits="userSpaceOnUse">
<stop stop-color="#FEE0E1"/>
<stop offset="1" stop-color="#899AF4"/>
</linearGradient>
<linearGradient id="paint32_linear" x1="86.7336" y1="118.344" x2="155.852" y2="118.344" gradientUnits="userSpaceOnUse">
<stop stop-color="#FEE0E1"/>
<stop offset="1" stop-color="#899AF4"/>
</linearGradient>
<linearGradient id="paint33_linear" x1="66.1661" y1="122.536" x2="176.419" y2="122.536" gradientUnits="userSpaceOnUse">
<stop stop-color="#FBAEC8"/>
<stop offset="1" stop-color="#757AFF"/>
</linearGradient>
<linearGradient id="paint34_linear" x1="248.358" y1="221.52" x2="348.96" y2="221.52" gradientUnits="userSpaceOnUse">
<stop stop-color="white"/>
<stop offset="1" stop-color="#E1E7FE"/>
</linearGradient>
<linearGradient id="paint35_linear" x1="325.872" y1="221.26" x2="323.607" y2="221.26" gradientUnits="userSpaceOnUse">
<stop stop-color="white"/>
<stop offset="1" stop-color="#E1E7FE"/>
</linearGradient>
<linearGradient id="paint36_linear" x1="332.715" y1="235.138" x2="334.173" y2="235.138" gradientUnits="userSpaceOnUse">
<stop stop-color="white"/>
<stop offset="1" stop-color="#E1E7FE"/>
</linearGradient>
<linearGradient id="paint37_linear" x1="325.489" y1="233.517" x2="326.743" y2="233.517" gradientUnits="userSpaceOnUse">
<stop stop-color="white"/>
<stop offset="1" stop-color="#E1E7FE"/>
</linearGradient>
<linearGradient id="paint38_linear" x1="317.341" y1="231.316" x2="319.334" y2="231.316" gradientUnits="userSpaceOnUse">
<stop stop-color="white"/>
<stop offset="1" stop-color="#E1E7FE"/>
</linearGradient>
<linearGradient id="paint39_linear" x1="331.642" y1="225.911" x2="332.546" y2="225.911" gradientUnits="userSpaceOnUse">
<stop stop-color="white"/>
<stop offset="1" stop-color="#E1E7FE"/>
</linearGradient>
<linearGradient id="paint40_linear" x1="344.682" y1="234.966" x2="345.236" y2="234.966" gradientUnits="userSpaceOnUse">
<stop stop-color="white"/>
<stop offset="1" stop-color="#E1E7FE"/>
</linearGradient>
<linearGradient id="paint41_linear" x1="337.439" y1="238.589" x2="339.966" y2="238.589" gradientUnits="userSpaceOnUse">
<stop stop-color="white"/>
<stop offset="1" stop-color="#E1E7FE"/>
</linearGradient>
<linearGradient id="paint42_linear" x1="340.523" y1="230.891" x2="340.705" y2="230.891" gradientUnits="userSpaceOnUse">
<stop stop-color="white"/>
<stop offset="1" stop-color="#E1E7FE"/>
</linearGradient>
<linearGradient id="paint43_linear" x1="318.263" y1="223.912" x2="318.788" y2="223.912" gradientUnits="userSpaceOnUse">
<stop stop-color="white"/>
<stop offset="1" stop-color="#E1E7FE"/>
</linearGradient>
<linearGradient id="paint44_linear" x1="319.355" y1="217.202" x2="320.095" y2="217.202" gradientUnits="userSpaceOnUse">
<stop stop-color="white"/>
<stop offset="1" stop-color="#E1E7FE"/>
</linearGradient>
<linearGradient id="paint45_linear" x1="275.745" y1="233.339" x2="276.823" y2="233.339" gradientUnits="userSpaceOnUse">
<stop stop-color="white"/>
<stop offset="1" stop-color="#E1E7FE"/>
</linearGradient>
<linearGradient id="paint46_linear" x1="275.735" y1="228.473" x2="276.639" y2="228.473" gradientUnits="userSpaceOnUse">
<stop stop-color="white"/>
<stop offset="1" stop-color="#E1E7FE"/>
</linearGradient>
<linearGradient id="paint47_linear" x1="267.386" y1="232.342" x2="267.57" y2="232.342" gradientUnits="userSpaceOnUse">
<stop stop-color="white"/>
<stop offset="1" stop-color="#E1E7FE"/>
</linearGradient>
<linearGradient id="paint48_linear" x1="308.86" y1="233.035" x2="309.761" y2="233.035" gradientUnits="userSpaceOnUse">
<stop stop-color="white"/>
<stop offset="1" stop-color="#E1E7FE"/>
</linearGradient>
<linearGradient id="paint49_linear" x1="295.814" y1="237.489" x2="296.175" y2="237.489" gradientUnits="userSpaceOnUse">
<stop stop-color="white"/>
<stop offset="1" stop-color="#E1E7FE"/>
</linearGradient>
<linearGradient id="paint50_linear" x1="303.415" y1="238.428" x2="305.232" y2="238.428" gradientUnits="userSpaceOnUse">
<stop stop-color="white"/>
<stop offset="1" stop-color="#E1E7FE"/>
</linearGradient>
<linearGradient id="paint51_linear" x1="327.821" y1="238.484" x2="328.747" y2="238.484" gradientUnits="userSpaceOnUse">
<stop stop-color="white"/>
<stop offset="1" stop-color="#E1E7FE"/>
</linearGradient>
<linearGradient id="paint52_linear" x1="336.343" y1="228.261" x2="336.705" y2="228.261" gradientUnits="userSpaceOnUse">
<stop stop-color="white"/>
<stop offset="1" stop-color="#E1E7FE"/>
</linearGradient>
<linearGradient id="paint53_linear" x1="268.864" y1="237.714" x2="269.588" y2="237.714" gradientUnits="userSpaceOnUse">
<stop stop-color="white"/>
<stop offset="1" stop-color="#E1E7FE"/>
</linearGradient>
<linearGradient id="paint54_linear" x1="257.473" y1="233.747" x2="258.194" y2="233.747" gradientUnits="userSpaceOnUse">
<stop stop-color="white"/>
<stop offset="1" stop-color="#E1E7FE"/>
</linearGradient>
<linearGradient id="paint55_linear" x1="218.753" y1="237.802" x2="260.98" y2="237.802" gradientUnits="userSpaceOnUse">
<stop stop-color="white"/>
<stop offset="1" stop-color="#E1E7FE"/>
</linearGradient>
<linearGradient id="paint56_linear" x1="249.086" y1="239.027" x2="249.902" y2="239.027" gradientUnits="userSpaceOnUse">
<stop stop-color="white"/>
<stop offset="1" stop-color="#E1E7FE"/>
</linearGradient>
<linearGradient id="paint57_linear" x1="253.499" y1="244.296" x2="256.109" y2="244.296" gradientUnits="userSpaceOnUse">
<stop stop-color="white"/>
<stop offset="1" stop-color="#E1E7FE"/>
</linearGradient>
<linearGradient id="paint58_linear" x1="227.673" y1="245.775" x2="229.466" y2="245.775" gradientUnits="userSpaceOnUse">
<stop stop-color="white"/>
<stop offset="1" stop-color="#E1E7FE"/>
</linearGradient>
<linearGradient id="paint59_linear" x1="26.6602" y1="171.636" x2="145.568" y2="48.6215" gradientUnits="userSpaceOnUse">
<stop stop-color="white"/>
<stop offset="1" stop-color="#E1E7FE"/>
</linearGradient>
<linearGradient id="paint60_linear" x1="34.5876" y1="163.436" x2="137.641" y2="56.8233" gradientUnits="userSpaceOnUse">
<stop stop-color="white"/>
<stop offset="1" stop-color="#E1E7FE"/>
</linearGradient>
<linearGradient id="paint61_linear" x1="214.044" y1="251.916" x2="232.162" y2="233.172" gradientUnits="userSpaceOnUse">
<stop stop-color="#98BFF2"/>
<stop offset="1" stop-color="#899AF4"/>
</linearGradient>
<linearGradient id="paint62_linear" x1="158.559" y1="186.783" x2="165.184" y2="179.929" gradientUnits="userSpaceOnUse">
<stop stop-color="white"/>
<stop offset="1" stop-color="#E1E7FE"/>
</linearGradient>
</defs>
</svg>
