<svg width="125" height="100" viewBox="0 0 125 100" fill="none" xmlns="http://www.w3.org/2000/svg">
<g clip-path="url(#clip0)">
<path d="M65.8454 30.0671C64.4456 21.0525 59.1825 14.8375 50.5039 12.038C41.8252 9.23844 33.8745 11.1981 27.4915 17.7491C21.1086 24.3 19.4848 32.2508 22.5083 40.9294C23.1802 42.945 23.1242 44.2888 21.7805 45.8566C20.3247 47.5363 20.4367 48.3762 21.7805 50.1679C21.5565 50.5038 21.2765 50.8958 21.0526 51.2317C19.3169 53.7513 17.5811 56.2149 17.9731 59.5744C18.197 61.3661 17.0772 62.4299 15.5655 62.9898C12.9899 63.8857 11.926 65.6214 12.374 68.253C12.7659 70.5486 11.8141 71.9484 9.51842 72.5083C6.99883 73.0682 5.935 74.692 6.10297 77.2676C6.21495 79.1712 5.48707 80.683 3.80734 81.6908C2.01562 82.7547 1.23175 84.2664 1.17576 86.4501C1.11977 89.0257 0.727831 91.6013 0.447876 94.3448C3.35941 94.4008 6.15896 94.4568 8.95851 94.6248C9.79838 94.6808 10.2463 94.4008 10.6942 93.7289C17.0212 84.7703 23.3482 75.8118 29.7312 66.8532C31.4669 64.3896 33.2026 61.926 34.9943 59.5184C36.1702 59.9103 37.29 60.1903 38.1858 59.1824C38.7457 58.5665 39.3616 57.9506 39.6976 57.1668C40.4815 55.543 41.8252 55.599 43.225 55.767C43.449 55.767 43.673 55.823 43.9529 55.823C49.384 55.655 54.2553 53.9193 58.3426 50.2799C59.0705 49.72 67.6931 42.2731 65.8454 30.0671ZM42.4971 24.468C42.7771 20.8846 46.0246 17.8611 49.664 17.973C53.3034 18.085 56.159 20.8286 56.4949 24.468C56.2709 29.5072 53.0794 31.1869 50.9518 31.7468C50.7278 31.8028 49.496 32.1388 48.5442 31.9708C44.8488 31.3549 42.2732 28.2194 42.4971 24.468Z" fill="url(#paint0_linear)" stroke="#133DC7" stroke-width="1.5" stroke-miterlimit="10" stroke-linejoin="round"/>
<path d="M123.292 72.8444C119.821 67.2453 116.293 61.7022 112.822 56.1031C112.486 55.5992 112.15 55.0953 111.702 54.4794C112.486 54.4794 113.046 54.5353 113.55 54.4794C116.517 54.0874 118.757 51.7918 118.925 48.8802C119.149 45.8567 117.357 43.2252 114.334 42.4973C110.694 41.6014 106.999 40.8175 103.303 39.9217C102.744 39.7537 102.072 39.3058 101.736 38.8019C99.7201 35.7224 97.7604 32.5869 95.8007 29.4514C94.6249 27.6037 93.2251 27.2677 91.4334 28.3875C90.5935 28.8914 89.8096 29.3954 88.9698 29.8993C86.6741 31.3551 86.4502 32.5869 87.85 34.8825C88.1299 35.3864 88.4659 35.8903 88.8578 36.5622C88.2979 36.4502 87.9619 36.4502 87.682 36.3942C84.2105 35.6104 80.7391 34.7705 77.2117 34.0426C74.0202 33.3147 70.8847 35.1065 70.0448 38.186C69.7649 39.1378 69.5409 40.0337 69.3729 40.9855L67.2453 50.448C67.2453 50.448 67.2453 50.448 67.1893 50.448C66.5734 53.2475 66.0135 55.8791 65.4535 58.5667C65.2296 59.6865 64.9496 60.7503 64.7257 61.8702C63.6058 66.6294 62.374 71.3886 61.4222 76.2039C60.6943 80.1792 64.4457 83.5947 68.4211 82.9228C70.8847 82.5309 72.3964 80.9631 73.4043 78.6115C73.7402 79.1714 74.0202 79.5633 74.3001 80.0113C77.8276 85.6104 81.355 91.2655 84.8824 96.8646C86.4502 99.3282 89.2497 100.336 91.6574 99.0482C94.5129 97.5365 119.037 82.0269 121.501 80.4592C124.244 78.6675 124.972 75.532 123.292 72.8444ZM85.2744 49.7201C84.3225 51.9598 82.0269 53.0236 79.5633 52.4077C78.8354 52.2397 77.3236 51.3439 76.6518 49.8881C75.4199 47.0885 77.2117 44.9049 77.2117 44.9049C77.2117 44.9049 77.8836 43.953 79.2273 43.5051C80.6271 43.0572 82.0829 43.0572 83.4267 43.897C85.4423 45.1848 86.1702 47.6484 85.2744 49.7201Z" fill="url(#paint1_linear)" stroke="#133DC7" stroke-width="1.5" stroke-miterlimit="10" stroke-linejoin="round"/>
<path d="M30.9631 55.3193L4.0874 94.4011" stroke="#133DC7" stroke-width="1.5" stroke-miterlimit="10" stroke-linejoin="round"/>
<path d="M27.7155 53.8633L0.447876 94.2328" stroke="#133DC7" stroke-width="1.5" stroke-miterlimit="10" stroke-linejoin="round"/>
<path d="M113.494 85.4424L101.344 93.3372L90.9294 77.2677C89.6976 75.364 90.2575 72.7885 92.1612 71.5567L97.3684 68.1412C99.2721 66.9094 101.848 67.4693 103.079 69.373L113.494 85.4424Z" stroke="#133DC7" stroke-width="1.5" stroke-miterlimit="10" stroke-linejoin="round"/>
<path d="M82.8668 44.0649C82.2509 45.8006 81.243 47.2564 79.7873 48.2642C74.0762 52.2955 64.0538 47.9842 57.3908 38.6337C52.5756 31.8588 50.7839 24.244 52.3516 19.0369" stroke="#F7ADC8" stroke-width="1.5" stroke-miterlimit="10" stroke-linejoin="round"/>
<path d="M56.047 13.9979C61.8141 10.4705 71.5005 14.7818 77.9955 23.9083C80.5151 27.4918 82.1948 31.2432 83.0347 34.8266" stroke="#F7ADC8" stroke-width="1.5" stroke-miterlimit="10" stroke-linejoin="round"/>
<path d="M40.9854 87.1219C42.5934 87.1219 43.8969 85.8184 43.8969 84.2104C43.8969 82.6024 42.5934 81.2988 40.9854 81.2988C39.3774 81.2988 38.0739 82.6024 38.0739 84.2104C38.0739 85.8184 39.3774 87.1219 40.9854 87.1219Z" stroke="#F7ADC8" stroke-width="1.5" stroke-miterlimit="10" stroke-linejoin="round"/>
<path d="M32.3628 84.4344C32.3628 84.4344 34.9384 88.8017 40.9854 88.8017C47.0324 88.8017 49.4961 84.4344 49.4961 84.4344C49.4961 84.4344 46.5285 79.6191 40.9854 79.6191C35.4423 79.6191 32.3628 84.4344 32.3628 84.4344Z" stroke="#F7ADC8" stroke-width="1.5" stroke-miterlimit="10" stroke-linejoin="round"/>
<path d="M94.9049 16.9093C96.3892 16.9093 97.5924 15.7061 97.5924 14.2217C97.5924 12.7374 96.3892 11.5342 94.9049 11.5342C93.4206 11.5342 92.2173 12.7374 92.2173 14.2217C92.2173 15.7061 93.4206 16.9093 94.9049 16.9093Z" stroke="#F7ADC8" stroke-width="1.5" stroke-miterlimit="10" stroke-linejoin="round"/>
<path d="M86.9541 14.4458C86.9541 14.4458 89.3057 18.4771 94.9048 18.4771C100.504 18.4771 102.744 14.4458 102.744 14.4458C102.744 14.4458 100 10.0225 94.9048 10.0225C89.7537 10.0225 86.9541 14.4458 86.9541 14.4458Z" stroke="#F7ADC8" stroke-width="1.5" stroke-miterlimit="10" stroke-linejoin="round"/>
<path d="M16.4053 6.04699C17.6113 6.04699 18.589 5.06934 18.589 3.86334C18.589 2.65734 17.6113 1.67969 16.4053 1.67969C15.1993 1.67969 14.2217 2.65734 14.2217 3.86334C14.2217 5.06934 15.1993 6.04699 16.4053 6.04699Z" stroke="#F7ADC8" stroke-width="1.5" stroke-miterlimit="10" stroke-linejoin="round"/>
<path d="M9.9104 4.03126C9.9104 4.03126 11.8141 7.27874 16.4054 7.27874C20.9966 7.27874 22.8443 4.03126 22.8443 4.03126C22.8443 4.03126 20.6047 0.391846 16.4054 0.391846C12.206 0.391846 9.9104 4.03126 9.9104 4.03126Z" stroke="#F7ADC8" stroke-width="1.5" stroke-miterlimit="10" stroke-linejoin="round"/>
</g>
<defs>
<linearGradient id="paint0_linear" x1="0.41988" y1="52.7189" x2="66.0977" y2="52.7189" gradientUnits="userSpaceOnUse">
<stop stop-color="#FBAEC8"/>
<stop offset="1" stop-color="#757AFF"/>
</linearGradient>
<linearGradient id="paint1_linear" x1="61.435" y1="63.6581" x2="124.2" y2="63.6581" gradientUnits="userSpaceOnUse">
<stop stop-color="#FEE0E1"/>
<stop offset="1" stop-color="#FCB6B4"/>
</linearGradient>
<clipPath id="clip0">
<rect width="124.636" height="100" fill="white"/>
</clipPath>
</defs>
</svg>
